<svg xmlns="http://www.w3.org/2000/svg" viewBox="0 0 40.54 90.18"><defs><style>.cls-1{fill:#ff6000;fill-rule:evenodd;}</style></defs><title>boots</title><g id="Layer_2" data-name="Layer 2"><g id="DESIGN"><path class="cls-1" d="M16.81,30.89C16.4,16.09,16.36,1.31,15.58.47c-.34-.38-1.65-1.1-1.52.68s1.22,30,1.22,30S16.81,32,16.81,30.89Z"/><path class="cls-1" d="M10.36,35.61S13.82-1.17,14.28.2c1.29,3.87-1.89,34.14-2.53,35.8S10.74,36.77,10.36,35.61Z"/><path class="cls-1" d="M13.19,34.06c3.71-.15,6.26,4.7,6.1,6.52s-1,5.12-1.6,7.92c-.53,2.51-1.05,5.25-1.58,7.72-1.16,5.48-2.73,11.35-3.18,15.64s2.64,9,6,10.86c2,1.14,4.78,1.11,6.74,3a5,5,0,0,1,.21,3c-3.39,2.14-12.35,1.89-15.91-1A16.67,16.67,0,0,1,.05,85.87,8.85,8.85,0,0,0,.25,83,8,8,0,0,1,1,77.27a22.1,22.1,0,0,0,1.42-3.38c1.48-5.53-.73-12-.45-18.28a45.32,45.32,0,0,1,3-14.08c-.48-.65-.1-1.76.2-3.14C8.5,37.73,10.1,35.1,13.19,34.06Z"/><path class="cls-1" d="M16.77,27.78c3.6-.93,7.1,3.29,7.33,5.11s.08,5.21.09,8.08c0,2.56.07,5.35.07,7.88,0,5.6-.3,11.68.15,16s4.46,8.26,8.08,9.38c2.24.69,4.91.08,7.23,1.56a4.92,4.92,0,0,1,.83,2.89c-2.87,2.8-11.68,4.43-15.78,2.31a16.66,16.66,0,0,1-10,.25,9,9,0,0,0-.4-2.84,8,8,0,0,1-.51-5.76A21.57,21.57,0,0,0,14.49,69c.29-5.72-3.22-11.62-4.25-17.78a45.14,45.14,0,0,1,0-14.39c-.61-.54-.15-1.89-.15-3.3C13.25,32.17,14,29.44,16.77,27.78Z"/></g></g></svg>