<svg xmlns="http://www.w3.org/2000/svg" viewBox="0 0 29.94 29.95">
	<defs>
	  <style>.face-cls-1{fill:#ff6000;}</style>
  </defs>
  <title>face</title>
	<path class="face-cls-1" d="M14.8,14.44H12.26c-.65,0-.93.27-.93.91q0,1.54,0,3.07c0,.63.24.84.87.84h2.54V29.94H4.18A4,4,0,0,1,0,25.75Q0,14.93,0,4.11A4,4,0,0,1,4.12,0H25.86a4,4,0,0,1,4.08,4.05q0,10.92,0,21.83a4,4,0,0,1-4,4.06H20l-.43,0V19.27h2.9c1.31,0,1.33,0,1.52-1.27.13-.87.23-1.75.31-2.63.06-.62-.22-.92-.84-.92H19.54c0-.26,0-.48,0-.7,0-.83,0-1.65,0-2.48a1.66,1.66,0,0,1,1.79-1.81c.63,0,1.25,0,1.88,0s1-.25,1-.93c0-.86,0-1.71,0-2.57,0-.51-.23-.81-.69-.8a34,34,0,0,0-4.29.16,5,5,0,0,0-4.27,4.46c-.14,1.22-.09,2.47-.12,3.7C14.79,13.76,14.8,14.06,14.8,14.44Z"/>
</svg>