<svg xmlns="http://www.w3.org/2000/svg" viewBox="0 0 188.51 61.12">
	<defs>
	<style>.fox-cls-1{fill:#ff6000;}.fox-cls-1,.fox-cls-2{fill-rule:evenodd;}.fox-cls-2{fill:#fff;}</style>
</defs>
<title>fox
</title>
<g id="Layer_2" data-name="Layer 2">
	<g id="DESIGN">
	<polygon class="fox-cls-1" points="183.14 61.11 183.65 60.58 184.09 60.11 184.44 59.62 184.73 59.19 184.93 58.73 185.05 58.31 185.13 57.92 185.14 57.55 185.1 57.16 184.97 56.8 184.8 56.46 184.59 56.11 184.34 55.79 184.05 55.5 183.69 55.19 183.32 54.91 182.93 54.66 182.48 54.4 182.04 54.13 181.58 53.9 181.1 53.67 180.59 53.44 180.09 53.23 179.58 53.04 178.54 52.66 177.53 52.31 176.6 51.97 175.72 51.67 174.67 51.6 173.71 51.54 172.84 51.47 171.97 51.44 171.14 51.38 170.3 51.34 169.44 51.3 168.53 51.25 167.53 51.2 166.45 51.14 165.24 51.09 163.9 51.01 162.37 50.92 160.68 50.83 158.76 50.71 156.62 50.56 156.03 50.47 155.47 50.32 154.92 50.19 154.36 50.02 154.09 49.92 153.82 49.82 153.56 49.71 153.26 49.62 152.98 49.47 152.71 49.35 152.42 49.22 152.14 49.08 152.52 49.04 152.9 49.01 153.28 48.98 153.68 48.95 154.16 48.79 154.66 48.62 155.16 48.47 155.67 48.32 156.18 48.19 156.7 48.05 157.19 47.91 157.72 47.77 158.24 47.68 158.75 47.55 159.25 47.44 159.81 47.36 160.33 47.28 160.87 47.18 161.38 47.11 161.92 47.06 162.44 46.98 162.96 46.92 163.48 46.9 164.02 46.88 164.54 46.84 165.06 46.83 165.58 46.84 166.08 46.84 166.6 46.84 167.12 46.88 167.62 46.92 168.11 46.97 168.63 47 169.12 47.07 169.6 47.14 170.08 47.24 170.89 47.19 171.6 47.18 172.25 47.16 172.79 47.16 173.05 47.18 173.3 47.2 173.54 47.21 173.76 47.25 173.97 47.31 174.2 47.32 174.4 47.38 174.59 47.44 174.78 47.5 175 47.57 175.19 47.65 175.39 47.73 175.8 47.92 176.24 48.16 176.71 48.44 177.22 48.75 177.83 49.12 178.47 49.52 178.86 49.62 179.23 49.72 179.59 49.8 179.94 49.86 180.3 49.91 180.64 49.92 180.97 49.94 181.31 49.94 181.62 49.92 181.94 49.87 182.22 49.82 182.49 49.74 182.75 49.64 182.99 49.55 183.22 49.42 183.42 49.28 183.6 49.14 183.76 48.98 183.89 48.79 184.01 48.59 184.09 48.37 184.14 48.14 184.18 47.91 184.17 47.65 184.12 47.37 184.07 47.07 183.94 46.77 183.81 46.46 183.63 46.13 183.42 45.78 183.16 45.42 182.88 45.04 182.29 44.77 181.72 44.53 181.15 44.27 180.53 44.01 179.97 43.76 179.38 43.51 178.8 43.26 178.21 43.01 177.62 42.78 177.02 42.55 176.4 42.34 175.77 42.13 175.13 41.95 174.53 41.77 173.87 41.6 173.2 41.46 172.18 41.5 171.14 41.56 170.13 41.6 169.08 41.66 168.06 41.72 167.04 41.77 166.01 41.8 164.98 41.88 163.94 41.92 162.93 41.97 161.9 42.05 160.87 42.06 159.84 42.14 158.8 42.19 157.78 42.25 156.74 42.3 156.19 42.16 155.66 42.05 155.13 41.88 154.64 41.72 154.39 41.6 154.13 41.52 153.9 41.41 153.64 41.29 153.39 41.13 153.13 41.01 152.87 40.83 152.6 40.67 152.73 39.96 152.84 39.28 153.03 38.66 153.2 38.07 153.41 37.55 153.65 37.04 153.91 36.59 154.2 36.16 154.49 35.75 154.83 35.37 155.16 35.03 155.52 34.72 155.87 34.4 156.24 34.11 156.63 33.85 157.03 33.59 157.82 33.1 158.65 32.63 159.04 32.4 159.45 32.16 159.85 31.89 160.23 31.63 160.63 31.36 161.02 31.09 161.39 30.78 161.75 30.48 162.09 30.14 162.44 29.75 162.74 29.38 163.03 28.95 163.18 28.97 163.3 28.98 163.43 29.03 163.54 29.06 163.6 28.77 163.63 28.48 163.64 28.2 163.67 27.93 163.78 27.91 163.9 27.88 163.99 27.88 164.12 27.88 164.16 28.16 164.21 28.42 164.27 28.69 164.31 28.97 164.35 29.27 164.4 29.55 164.47 29.84 164.52 30.13 164.68 30.08 164.82 30.01 164.94 29.95 165.01 29.9 165.09 29.84 165.14 29.74 165.19 29.61 165.3 29.45 165.41 29.69 165.54 29.9 165.66 30.08 165.82 30.23 165.88 30.31 165.96 30.36 166.04 30.43 166.16 30.48 166.33 30.6 166.57 30.68 166.56 30.21 166.57 29.75 166.57 29.34 166.6 28.95 166.64 28.59 166.69 28.26 166.75 27.97 166.82 27.69 166.89 27.41 166.96 27.2 167.05 26.98 167.18 26.78 167.28 26.59 167.42 26.45 167.59 26.28 167.72 26.17 167.9 26.04 168.08 25.93 168.29 25.85 168.5 25.76 168.73 25.67 168.98 25.59 169.26 25.52 169.55 25.47 170.8 25.22 172.37 24.9 173.25 24.87 174.13 24.85 174.98 24.85 175.84 24.86 176.68 24.88 177.55 24.9 178.4 24.91 179.23 24.94 180.06 24.95 180.92 24.94 181.72 24.92 182.55 24.89 182.96 24.87 183.36 24.81 183.79 24.78 184.21 24.73 184.6 24.67 185.01 24.61 185.41 24.54 185.82 24.46 186.33 24.14 186.71 23.88 187.02 23.68 187.31 23.5 187.53 23.3 187.81 23.07 188.12 22.81 188.51 22.43 188.48 22.2 188.44 21.99 188.39 21.77 188.34 21.53 187.73 21.28 187.13 20.98 186.56 20.67 186 20.35 185.46 20 184.93 19.64 184.4 19.24 183.89 18.87 183.39 18.47 182.9 18.05 182.41 17.61 181.94 17.16 181.48 16.71 181.02 16.27 180.54 15.79 180.09 15.33 179.17 14.39 178.27 13.45 177.36 12.48 176.44 11.54 175.97 11.1 175.5 10.62 175.03 10.18 174.53 9.77 174.03 9.33 173.54 8.92 173.01 8.5 172.47 8.11 172.45 7.87 172.42 7.63 172.38 7.38 172.34 7.14 172.25 6.89 172.2 6.67 172.12 6.43 172.01 6.2 171.92 5.97 171.81 5.74 171.7 5.51 171.57 5.28 171.44 5.07 171.31 4.86 171.14 4.63 171 4.43 170.69 4.01 170.35 3.61 170.01 3.23 169.65 2.85 169.26 2.5 168.89 2.16 168.51 1.85 168.12 1.55 167.99 1.56 167.83 1.6 167.69 1.66 167.56 1.72 167.46 1.78 167.33 1.89 167.22 2.02 167.12 2.15 167.02 2.28 166.94 2.42 166.83 2.58 166.75 2.74 166.57 3.06 166.41 3.39 165.86 3 165.3 2.6 164.72 2.17 164.14 1.76 163.55 1.34 162.98 0.94 162.71 0.7 162.43 0.48 162.15 0.24 161.91 0 161.85 0.05 161.8 0.09 161.73 0.16 161.68 0.23 161.59 0.44 161.5 0.7 161.41 1 161.31 1.34 161.24 1.71 161.13 2.08 161 2.88 160.87 3.66 160.74 4.33 160.64 4.83 160.18 4.75 159.69 4.65 159.23 4.6 158.75 4.56 158.29 4.52 157.83 4.49 157.35 4.47 156.89 4.47 156.44 4.49 155.97 4.53 155.52 4.56 155.06 4.61 154.61 4.7 154.15 4.75 153.71 4.86 153.25 4.96 152.8 5.06 152.36 5.2 151.92 5.32 151.45 5.48 151.01 5.64 150.57 5.8 150.12 5.97 149.66 6.17 149.22 6.37 148.78 6.57 148.36 6.79 147.88 7.02 147.44 7.25 146.98 7.5 146.56 7.75 146.1 8 145.69 8.12 145.11 8.26 144.43 8.45 143.64 8.63 142.79 8.85 141.87 9.09 140.92 9.36 139.95 9.64 138.97 9.93 138.03 10.23 137.58 10.39 137.13 10.54 136.72 10.71 136.33 10.88 135.97 11.05 135.61 11.21 135.29 11.38 135 11.55 134.71 11.71 134.5 11.87 134.32 12.05 134.16 12.21 133.62 12.36 133.07 12.55 132.51 12.72 131.95 12.92 131.39 13.16 130.83 13.37 130.26 13.62 129.69 13.87 129.11 14.11 128.54 14.37 127.95 14.65 127.36 14.89 126.77 15.12 126.17 15.38 125.55 15.61 124.92 15.81 124.19 15.85 123.45 15.88 122.7 15.88 121.97 15.89 121.23 15.89 120.49 15.89 119.73 15.85 118.98 15.84 117.47 15.78 115.94 15.69 114.44 15.6 112.91 15.48 111.39 15.38 109.85 15.23 108.32 15.12 106.81 15 105.25 14.88 103.73 14.75 102.2 14.65 100.68 14.57 100.36 14.42 100.03 14.29 99.82 14.23 99.6 14.18 99.3 14.11 98.96 14.01 98.04 13.83 96.7 13.54 94.91 13.18 92.52 12.72 90.74 12.46 89.01 12.23 87.33 12.02 85.68 11.81 84.87 11.72 84.06 11.65 83.25 11.59 82.47 11.54 81.68 11.51 80.89 11.48 80.1 11.47 79.32 11.48 78.55 11.54 77.75 11.58 76.98 11.65 76.19 11.76 75.42 11.87 74.61 12.04 73.83 12.19 73.03 12.38 72.23 12.62 71.43 12.87 70.63 13.15 69.8 13.49 68.97 13.84 68.13 14.23 67.27 14.66 66.42 15.12 66.28 15.15 66.12 15.17 65.95 15.2 65.79 15.24 65.4 15.33 64.98 15.48 64.45 15.63 63.8 15.83 63.04 16.04 62.12 16.25 61.51 16.28 60.89 16.28 60.27 16.27 59.64 16.25 59.01 16.16 58.39 16.11 57.75 16.01 57.14 15.93 56.5 15.79 55.88 15.63 55.24 15.48 54.64 15.3 54.01 15.15 53.39 14.93 52.79 14.71 52.19 14.47 51.13 13.74 50.06 13.02 49.02 12.28 47.98 11.6 46.93 10.9 45.87 10.25 45.34 9.92 44.81 9.61 44.25 9.3 43.7 9.03 43.17 8.74 42.62 8.45 42.07 8.19 41.49 7.93 40.94 7.64 40.36 7.41 39.77 7.18 39.19 6.97 38.6 6.78 37.99 6.58 37.38 6.41 36.75 6.24 36.12 6.09 35.48 5.97 34.85 5.85 34.18 5.72 33.08 5.82 32 5.88 30.98 6 30.01 6.08 29.55 6.13 29.08 6.2 28.64 6.25 28.19 6.32 27.73 6.41 27.31 6.49 26.87 6.57 26.46 6.69 26.02 6.79 25.59 6.92 25.18 7.06 24.75 7.22 24.32 7.38 23.9 7.57 23.47 7.75 23.04 7.96 22.6 8.19 22.18 8.43 21.71 8.69 21.28 8.97 20.82 9.27 20.35 9.61 19.86 9.93 19.37 10.31 18.72 10.6 18.07 10.88 17.38 11.17 16.68 11.45 16.34 11.58 15.99 11.69 15.64 11.81 15.28 11.93 14.91 12.04 14.55 12.13 14.18 12.21 13.82 12.28 13.45 12.36 13.08 12.39 12.7 12.44 12.34 12.46 11.96 12.48 11.58 12.46 11.23 12.46 10.85 12.41 10.46 12.36 10.1 12.28 9.73 12.2 9.36 12.08 8.97 11.96 8.61 11.8 8.22 11.63 7.87 11.41 7.77 11.17 7.68 11.02 7.65 10.98 7.62 10.94 7.57 10.92 7.54 10.88 7.29 10.88 6.84 10.82 6.97 11.28 7.05 11.64 7.16 11.91 7.25 12.13 7.33 12.36 7.44 12.55 7.57 12.8 7.76 13.09 7.52 13.03 7.27 12.93 7 12.87 6.74 12.8 6.74 12.72 6.74 12.65 6.71 12.6 6.67 12.54 6.57 12.39 6.47 12.28 6.32 12.13 6.18 12.02 5.99 11.87 5.82 11.76 5.45 11.51 5.1 11.28 4.75 11.08 4.49 10.92 4.26 10.58 4 10.29 3.79 10.07 3.56 9.8 3.33 9.64 3.11 9.44 2.99 9.37 2.88 9.3 2.75 9.24 2.63 9.17 2.37 9.08 2.11 9 1.83 8.92 1.5 8.86 1.18 8.8 0.8 8.77 0.41 8.75 0 8.7 0.05 9 0.12 9.24 0.18 9.54 0.24 9.83 0.75 10.07 1.25 10.3 1.47 10.43 1.72 10.55 1.94 10.71 2.14 10.87 2.24 10.95 2.33 11.02 2.42 11.11 2.49 11.24 2.57 11.32 2.65 11.43 2.71 11.54 2.77 11.68 2.82 11.8 2.88 11.93 2.9 12.08 2.96 12.23 2.96 12.38 2.99 12.55 2.99 12.72 2.99 12.9 2.78 12.74 2.6 12.61 2.46 12.52 2.31 12.46 2.17 12.38 2 12.36 1.79 12.28 1.52 12.23 1.56 12.51 1.61 12.72 1.64 12.83 1.67 12.92 1.71 13 1.77 13.09 1.8 13.17 1.86 13.26 1.93 13.33 2 13.41 2.14 13.59 2.37 13.74 2.63 14.35 2.9 14.94 3.17 15.48 3.47 16.04 3.76 16.56 4.05 17.05 4.22 17.31 4.39 17.54 4.52 17.77 4.71 17.98 4.9 18.22 5.07 18.44 5.26 18.67 5.46 18.86 5.65 19.08 5.87 19.26 6.08 19.47 6.32 19.66 6.54 19.85 6.79 20.05 7.04 20.24 7.3 20.41 7.55 20.62 7.84 20.79 8.13 20.95 8.41 21.12 8.46 21.39 8.48 21.64 8.49 21.93 8.49 22.2 9.31 22.57 9.95 22.84 10.47 23.07 10.9 23.25 11.32 23.4 11.79 23.51 12.34 23.67 13.01 23.9 12.94 24.07 12.89 24.23 12.86 24.34 12.83 24.44 12.83 24.54 12.83 24.64 12.83 24.79 12.86 24.97 13.12 24.94 13.4 24.91 13.66 24.9 13.9 24.89 14.16 24.9 14.41 24.9 14.64 24.9 14.88 24.94 15.34 24.99 15.82 25.05 16.26 25.15 16.68 25.25 17.14 25.36 17.6 25.44 18.04 25.52 18.5 25.62 18.95 25.7 19.42 25.74 19.66 25.76 19.91 25.76 20.15 25.76 20.41 25.74 21.04 25.52 21.68 25.28 22.31 25.03 22.94 24.81 23.57 24.59 24.21 24.35 24.83 24.14 25.48 23.9 25.94 23.9 26.4 23.86 26.84 23.81 27.31 23.77 28.21 23.64 29.1 23.51 30 23.4 30.87 23.25 31.77 23.09 32.64 22.94 33.48 22.78 34.36 22.65 35.23 22.54 36.08 22.43 36.53 22.39 36.94 22.36 37.37 22.34 37.78 22.32 38.22 22.3 38.65 22.32 39.09 22.34 39.51 22.34 40.72 22.65 41.9 22.93 43.05 23.21 44.14 23.47 44.69 23.6 45.22 23.7 45.75 23.8 46.29 23.9 46.8 23.98 47.32 24.07 47.84 24.14 48.36 24.21 48.88 24.27 49.42 24.3 49.92 24.34 50.45 24.36 50.97 24.38 51.5 24.37 52.05 24.35 52.58 24.35 53.12 24.32 53.66 24.24 54.23 24.21 54.78 24.14 55.34 24.03 55.93 23.93 56.52 23.83 57.12 23.68 57.48 23.66 57.87 23.64 58.25 23.63 58.63 23.61 59.01 23.61 59.38 23.58 59.77 23.58 60.15 23.56 59.88 23.81 59.6 24.06 59.31 24.3 59.01 24.56 59.22 24.64 59.42 24.71 59.61 24.79 59.8 24.88 59.69 25.22 59.56 25.59 59.43 25.95 59.32 26.29 59.13 27.03 58.92 27.76 58.75 28.51 58.6 29.24 58.41 29.97 58.25 30.73 58.1 31.46 57.9 32.24 57.7 32.99 57.48 33.74 57.38 34.14 57.27 34.52 57.14 34.89 56.98 35.29 56.83 35.67 56.7 36.06 56.53 36.43 56.36 36.82 56.2 36.89 56.08 36.96 55.98 37.04 55.88 37.14 55.78 37.23 55.68 37.4 55.52 37.63 55.34 37.92 55 38.03 54.7 38.15 54.37 38.28 54.04 38.38 53.7 38.51 53.38 38.64 53.03 38.74 52.71 38.87 52.68 38.95 52.69 39.07 52.66 39.18 52.64 39.26 52.4 39.33 52.22 39.37 52.08 39.42 51.92 39.43 51.79 39.44 51.62 39.44 51.41 39.43 51.15 39.41 51.18 39.53 51.24 39.63 51.3 39.77 51.32 39.9 52.28 40.02 52.79 40.08 52.94 40.11 53 40.16 53.05 40.19 53.08 40.24 52.89 40.36 52.71 40.44 52.52 40.52 52.3 40.61 52.11 40.69 51.91 40.75 51.71 40.82 51.5 40.87 51.07 40.99 50.63 41.06 50.16 41.15 49.65 41.26 49.65 41.37 49.66 41.47 49.66 41.57 49.66 41.7 49.84 41.7 50 41.73 50.16 41.73 50.31 41.77 49.8 41.97 49.33 42.13 48.82 42.29 48.31 42.45 47.81 42.57 47.29 42.71 46.81 42.85 46.31 42.98 45.81 43.12 45.28 43.29 44.78 43.45 44.27 43.65 43.75 43.85 43.23 44.09 42.95 44.2 42.68 44.35 42.43 44.49 42.16 44.64 41.34 44.76 40.62 44.88 39.93 44.98 39.3 45.05 38.7 45.16 38.09 45.22 37.45 45.29 36.79 45.37 36.04 45.46 35.2 45.54 34.25 45.64 33.2 45.75 31.97 45.86 30.57 45.99 28.95 46.15 27.13 46.33 26.71 46.3 26.28 46.29 25.91 46.24 25.52 46.21 24.77 46.13 24.03 46.05 23.33 45.94 22.65 45.86 21.95 45.78 21.27 45.74 20.92 45.74 20.57 45.71 20.21 45.73 19.86 45.73 19.5 45.77 19.12 45.78 18.74 45.81 18.36 45.89 17.96 45.95 17.55 46.05 17.13 46.15 16.7 46.26 16.26 46.4 15.78 46.56 15.33 46.75 14.84 46.95 14.78 47.03 14.73 47.12 14.72 47.2 14.69 47.31 14.65 47.41 14.64 47.52 14.63 47.65 14.63 47.74 14.62 47.99 14.64 48.24 14.69 48.48 14.74 48.72 14.83 48.98 14.9 49.23 15.02 49.47 15.11 49.71 15.27 49.94 15.41 50.12 15.54 50.29 15.69 50.43 15.98 50.55 16.26 50.67 16.58 50.76 16.89 50.87 17.23 50.96 17.55 51.04 17.9 51.12 18.25 51.22 18.59 51.26 18.94 51.34 19.32 51.38 19.66 51.44 20.03 51.47 20.4 51.54 20.77 51.54 21.14 51.56 21.53 51.61 21.88 51.6 22.26 51.61 22.6 51.61 22.96 51.59 23.35 51.59 23.7 51.54 24.04 51.54 24.39 51.49 24.72 51.44 25.06 51.4 25.39 51.34 25.7 51.28 26 51.2 26.31 51.14 26.59 51.04 27.35 51.01 28.11 50.97 28.91 50.92 29.66 50.9 30.43 50.85 31.21 50.83 31.98 50.78 32.73 50.75 33.51 50.72 34.25 50.68 35.05 50.64 35.81 50.63 36.56 50.6 37.34 50.55 38.09 50.53 38.86 50.48 38.33 50.64 37.65 50.89 36.79 51.15 35.81 51.44 34.76 51.76 33.62 52.1 33.02 52.26 32.43 52.4 31.81 52.58 31.22 52.69 30.62 52.81 30.01 52.95 29.43 53.07 28.85 53.15 28.29 53.22 27.74 53.3 27.24 53.31 26.74 53.35 26.27 53.35 25.81 53.33 25.4 53.28 25.06 53.18 24.73 53.08 24.45 52.94 24.21 52.76 24.03 52.54 23.45 52.58 23.01 52.59 22.81 52.62 22.63 52.66 22.46 52.67 22.31 52.71 22.16 52.8 21.97 52.87 21.82 52.96 21.61 53.08 21.18 53.38 20.62 53.8 20.41 53.8 20.2 53.78 19.98 53.78 19.77 53.78 19.3 53.72 18.83 53.65 18.34 53.59 17.88 53.54 17.62 53.54 17.39 53.51 17.15 53.47 16.89 53.47 16.66 53.51 16.43 53.52 16.21 53.55 15.98 53.59 15.75 53.65 15.55 53.72 15.33 53.82 15.11 53.95 14.93 54.06 14.72 54.21 14.53 54.37 14.34 54.58 14.18 54.78 14.01 55.01 13.85 55.29 13.68 55.58 13.75 56.22 13.87 56.77 14.05 57.27 14.26 57.7 14.55 58.08 14.85 58.43 15.22 58.73 15.62 58.95 16.04 59.14 16.53 59.3 17.02 59.39 17.55 59.46 18.09 59.51 18.64 59.51 19.22 59.49 19.81 59.44 20.43 59.38 21.04 59.3 21.65 59.18 22.26 59.06 22.89 58.92 23.47 58.78 24.08 58.65 24.65 58.49 25.78 58.17 26.8 57.89 27.72 57.63 28.51 57.45 29.68 57.3 30.84 57.16 31.99 57 33.13 56.8 34.23 56.65 35.34 56.45 36.47 56.25 37.55 56.02 38.63 55.78 39.74 55.55 40.81 55.29 41.9 55.03 42.97 54.74 44.07 54.45 45.17 54.16 46.27 53.87 47.37 53.78 48.49 53.67 49.63 53.6 50.74 53.51 51.86 53.43 52.99 53.35 54.09 53.28 55.21 53.18 56.31 53.08 57.42 52.97 58.53 52.85 59.6 52.71 60.71 52.59 61.8 52.45 62.86 52.29 63.93 52.11 65.11 51.65 66.3 51.17 67.5 50.67 68.7 50.15 69.31 49.87 69.91 49.59 70.5 49.3 71.1 49.02 71.7 48.72 72.28 48.42 72.87 48.09 73.46 47.76 74.03 47.44 74.58 47.08 75.13 46.74 75.69 46.4 76.21 46.02 76.75 45.64 77.25 45.24 77.75 44.85 78.24 44.45 78.68 44.04 79.15 43.62 79.58 43.2 80 42.74 80.41 42.28 80.79 41.82 81.16 41.35 81.62 41.07 82.07 40.83 82.53 40.61 82.93 40.43 83.35 40.24 83.76 40.06 84.16 39.92 84.54 39.81 84.91 39.67 85.27 39.58 85.63 39.51 85.98 39.44 86.35 39.41 86.68 39.35 87.02 39.35 87.38 39.35 87.7 39.35 88.05 39.39 88.38 39.41 88.73 39.45 89.09 39.5 89.44 39.58 89.8 39.68 90.16 39.79 90.54 39.91 90.91 40.02 91.32 40.16 91.71 40.3 92.56 40.64 93.45 40.99 93.93 41.27 94.34 41.52 94.73 41.77 95.1 41.98 95.46 42.19 95.82 42.38 96.21 42.6 96.63 42.81 97.08 43.04 97.63 43.31 98.22 43.62 98.91 43.94 99.7 44.34 100.61 44.77 101.65 45.26 102.83 45.85 103.23 46 103.79 46.2 104.48 46.47 105.27 46.77 106.16 47.07 107.12 47.42 108.11 47.76 109.14 48.11 110.17 48.42 111.19 48.72 111.67 48.87 112.14 48.98 112.61 49.12 113.05 49.23 113.45 49.31 113.85 49.38 114.21 49.47 114.55 49.5 114.85 49.53 115.12 49.55 115.34 49.52 115.52 49.5 116.43 49.59 117.34 49.72 118.27 49.84 119.22 49.96 120.21 50.08 121.16 50.2 122.16 50.31 123.15 50.37 123.63 50.4 124.13 50.43 124.63 50.43 125.1 50.47 125.58 50.47 126.06 50.47 126.54 50.43 127.03 50.43 127.49 50.4 127.95 50.35 128.42 50.31 128.88 50.23 129.3 50.16 129.74 50.07 130.18 49.97 130.6 49.86 131.3 49.94 131.95 50.03 132.24 50.08 132.53 50.13 132.81 50.2 133.1 50.26 133.36 50.35 133.62 50.4 133.9 50.52 134.15 50.6 134.71 50.8 135.28 51.02 135.52 51.26 135.79 51.54 136.07 51.81 136.38 52.14 136.98 52.81 137.58 53.47 138.14 54.14 138.59 54.71 138.76 54.96 138.92 55.16 139.03 55.32 139.07 55.42 139.26 55.45 139.49 55.5 139.72 55.57 140 55.62 140.58 55.82 141.21 55.97 141.82 56.18 142.37 56.37 142.88 56.55 143.21 56.7 144.81 56.62 146.44 56.54 148.06 56.48 149.7 56.44 151.31 56.42 152.96 56.38 154.57 56.37 156.2 56.34 157.81 56.34 159.4 56.34 161.03 56.37 162.63 56.37 164.22 56.4 165.81 56.44 167.39 56.45 168.97 56.5 169.25 56.55 169.55 56.6 169.8 56.67 170.08 56.7 170.63 56.77 171.16 56.8 172.19 56.8 173.21 56.8 173.71 56.84 174.19 56.85 174.44 56.88 174.69 56.91 174.93 56.94 175.19 57 175.44 57.05 175.66 57.11 175.93 57.16 176.16 57.24 176.42 57.35 176.66 57.45 176.91 57.55 177.15 57.7 177.45 58.02 177.75 58.31 178.02 58.59 178.29 58.86 178.58 59.08 178.84 59.32 179.13 59.49 179.4 59.67 179.7 59.84 179.99 59.97 180.3 60.11 180.65 60.23 181.01 60.33 181.39 60.42 181.78 60.48 182.25 60.57 182.29 60.69 182.35 60.85 182.41 60.97 182.47 61.12 182.64 61.12 182.81 61.12 182.99 61.11 183.14 61.11 183.14 61.11"/>
<polygon class="fox-cls-2" points="184.33 57.88 184.09 57.55 183.91 57.29 183.76 57.12 183.69 57.02 183.65 56.98 183.63 56.96 183.6 56.95 183.58 56.96 183.56 56.98 183.5 57.05 183.6 57.21 183.68 57.33 183.73 57.43 183.81 57.51 183.89 57.58 183.97 57.65 184.14 57.76 184.33 57.88 184.33 57.88"/>
<polygon class="fox-cls-2" points="126.19 49.8 126.54 49.67 126.87 49.56 127.2 49.47 127.51 49.35 127.23 49.38 126.95 49.42 126.69 49.45 126.41 49.47 126.13 49.5 125.86 49.53 125.59 49.56 125.31 49.61 125.31 49.71 125.31 49.86 125.54 49.82 125.78 49.82 125.99 49.8 126.19 49.8 126.19 49.8"/>
<polygon class="fox-cls-2" points="146.91 46.51 146.94 46.33 146.99 46.15 147.02 45.97 147.05 45.78 147.32 45.68 147.59 45.55 147.87 45.46 148.14 45.33 148.41 45.21 148.67 45.1 148.92 44.99 149.18 44.88 149.18 44.77 149.17 44.69 149.16 44.58 149.16 44.51 148.78 44.51 148.41 44.57 148.21 44.58 148.03 44.63 147.85 44.66 147.69 44.74 147.51 44.81 147.34 44.9 147.19 45.04 147.04 45.17 146.97 45.24 146.89 45.33 146.82 45.42 146.77 45.54 146.72 45.64 146.64 45.77 146.59 45.9 146.56 46.03 146.66 46.13 146.73 46.26 146.82 46.4 146.91 46.51 146.91 46.51"/>
<polygon class="fox-cls-2" points="136.12 46.37 136.3 46.26 136.46 46.16 136.63 46.1 136.78 46.02 136.52 45.97 136.26 45.91 135.99 45.89 135.72 45.87 135.2 45.86 134.64 45.86 134.09 45.89 133.51 45.9 132.94 45.94 132.33 45.98 131.99 45.93 131.58 45.85 131.06 45.7 130.5 45.6 130.22 45.55 129.94 45.52 129.67 45.5 129.41 45.5 129.19 45.5 128.95 45.52 128.85 45.55 128.75 45.55 128.67 45.61 128.56 45.64 128.78 45.77 129.01 45.86 129.21 45.97 129.44 46.07 129.67 46.13 129.92 46.23 130.13 46.29 130.38 46.33 130.61 46.4 130.86 46.43 131.11 46.46 131.35 46.5 131.85 46.53 132.33 46.54 132.84 46.54 133.33 46.51 133.82 46.49 134.3 46.47 135.23 46.4 136.12 46.37 136.12 46.37"/>
<polygon class="fox-cls-2" points="117.11 47.09 117.08 46.97 117.08 46.87 117.08 46.75 117.07 46.66 116.63 46.61 116.19 46.57 115.76 46.53 115.33 46.47 114.89 46.4 114.44 46.33 114.02 46.27 113.61 46.2 112.73 46.02 111.89 45.81 111.03 45.61 110.17 45.37 109.35 45.12 108.51 44.85 107.65 44.58 106.84 44.29 105.97 43.99 105.15 43.68 104.29 43.37 103.43 43.06 103.47 43.18 103.53 43.31 103.68 43.44 103.82 43.56 104.01 43.71 104.23 43.85 104.47 43.99 104.71 44.12 105.02 44.24 105.31 44.39 105.61 44.54 105.95 44.69 106.67 44.97 107.39 45.22 108.13 45.5 108.87 45.74 109.59 45.97 110.25 46.2 110.85 46.38 111.4 46.53 111.83 46.66 112.13 46.75 112.75 46.8 113.38 46.84 113.99 46.88 114.62 46.92 115.23 46.96 115.85 47 116.47 47.05 117.11 47.09 117.11 47.09"/>
<polygon class="fox-cls-2" points="47.19 50.15 47.25 49.92 47.29 49.68 47.32 49.47 47.39 49.23 47.42 49.02 47.46 48.78 47.5 48.57 47.55 48.34 47.42 48.37 47.29 48.4 47.16 48.44 47.06 48.47 46.95 48.65 46.9 48.79 46.86 48.95 46.85 49.08 46.82 49.22 46.84 49.42 46.86 49.67 46.88 49.99 47.04 50.06 47.19 50.15 47.19 50.15"/>
<polygon class="fox-cls-2" points="68.68 48.85 68.83 48.72 68.95 48.62 69.08 48.53 69.19 48.44 69.19 48.34 69.19 48.24 69.17 48.12 69.17 48.05 68.32 48.16 67.67 48.24 67.19 48.28 66.76 48.32 66.42 48.34 66.1 48.34 65.73 48.34 65.3 48.32 65.34 48.48 65.4 48.6 65.47 48.75 65.53 48.9 65.92 48.88 66.32 48.88 66.72 48.86 67.1 48.86 67.5 48.86 67.9 48.86 68.28 48.85 68.68 48.85 68.68 48.85"/>
<polygon class="fox-cls-2" points="134.29 45.35 134.46 45.28 134.64 45.21 134.8 45.13 134.96 45.09 134.93 44.96 134.93 44.85 134.92 44.75 134.92 44.64 134.4 44.66 133.95 44.7 133.49 44.73 133.04 44.74 132.62 44.74 132.21 44.73 131.81 44.7 131.45 44.66 131.04 44.61 130.64 44.55 130.24 44.48 129.81 44.39 129.37 44.27 128.91 44.16 128.42 44.01 127.92 43.85 127.93 43.94 127.93 44.07 127.93 44.17 127.93 44.32 128.38 44.48 128.82 44.61 129.23 44.73 129.64 44.85 130.03 44.95 130.41 45.02 130.8 45.09 131.15 45.16 131.55 45.2 131.9 45.24 132.29 45.28 132.68 45.29 133.46 45.33 134.29 45.35 134.29 45.35"/>
<polygon class="fox-cls-2" points="69.04 47.28 69.38 47.19 69.72 47.11 70.06 47.03 70.4 46.97 70.73 46.88 71.06 46.8 71.39 46.74 71.7 46.67 71.67 46.51 71.62 46.41 71.6 46.33 71.57 46.26 71.53 46.2 71.47 46.15 71.4 46.11 71.31 46.04 70.63 46.2 70.06 46.32 69.64 46.45 69.29 46.54 69.04 46.63 68.79 46.7 68.58 46.77 68.35 46.83 68.36 46.95 68.36 47.06 68.36 47.18 68.37 47.31 68.54 47.29 68.72 47.29 68.89 47.28 69.04 47.28 69.04 47.28"/>
<polygon class="fox-cls-2" points="110.68 44.95 110.72 44.79 110.73 44.66 110.75 44.54 110.77 44.41 109.1 43.88 107.8 43.48 106.84 43.17 106.13 42.91 105.58 42.74 105.15 42.55 104.7 42.37 104.23 42.14 104.19 42.3 104.17 42.47 104.13 42.63 104.08 42.81 104.89 43.13 105.73 43.45 106.55 43.76 107.36 44.01 108.2 44.29 109.03 44.53 109.86 44.75 110.68 44.95 110.68 44.95"/>
<polygon class="fox-cls-2" points="132.62 43.62 132.62 43.49 132.62 43.38 132.61 43.28 132.6 43.18 132.17 43.13 131.77 43.1 131.33 43.06 130.91 43.02 130.49 42.99 130.07 42.98 129.64 42.93 129.21 42.9 129.22 43.01 129.22 43.12 129.23 43.22 129.24 43.33 129.67 43.37 130.09 43.41 130.5 43.43 130.94 43.46 131.35 43.51 131.78 43.53 132.2 43.58 132.62 43.62 132.62 43.62"/>
<polygon class="fox-cls-2" points="59.57 46.4 59.69 46.3 59.79 46.17 59.88 46.1 59.99 46 59.75 45.89 59.49 45.78 59.2 45.69 58.92 45.62 58.62 45.55 58.27 45.46 57.93 45.42 57.61 45.37 57.25 45.34 56.9 45.33 56.54 45.31 56.17 45.29 55.82 45.29 55.47 45.33 55.14 45.35 54.8 45.39 55.45 45.58 56.05 45.74 56.65 45.9 57.22 46.03 57.79 46.13 58.37 46.23 58.97 46.33 59.57 46.4 59.57 46.4"/>
<polygon class="fox-cls-2" points="72.1 45.53 72.51 45.28 72.9 45.05 73.32 44.81 73.72 44.61 73.78 44.41 73.82 44.27 73.85 44.09 73.89 43.93 74.33 43.82 74.74 43.74 75.17 43.65 75.6 43.58 75.6 43.44 75.6 43.31 75.58 43.22 75.58 43.1 75.16 43.18 74.75 43.26 74.35 43.35 73.94 43.43 73.51 43.53 73.11 43.59 72.68 43.68 72.27 43.77 72.4 43.84 72.51 43.91 72.61 43.99 72.72 44.05 72.72 44.16 72.73 44.27 72.73 44.35 72.71 44.45 71.72 44.76 70.99 44.99 70.45 45.16 70.1 45.28 70 45.33 69.9 45.35 69.85 45.39 69.8 45.42 69.8 45.44 69.8 45.46 69.8 45.49 69.83 45.52 70.13 45.5 70.4 45.5 70.68 45.52 70.97 45.5 71.25 45.52 71.53 45.52 71.81 45.52 72.1 45.53 72.1 45.53"/>
<polygon class="fox-cls-2" points="59.05 44.81 59.17 44.76 59.28 44.69 59.38 44.63 59.48 44.58 59.43 44.49 59.4 44.39 59.34 44.31 59.3 44.24 58.95 44.24 58.64 44.29 58.37 44.29 58.02 44.29 57.61 44.24 57.04 44.19 56.29 44.12 55.34 44.01 55.34 44.12 55.35 44.2 55.35 44.32 55.35 44.41 56.05 44.53 56.6 44.63 57.05 44.69 57.4 44.74 57.73 44.77 58.1 44.8 58.5 44.81 59.05 44.81 59.05 44.81"/>
<polygon class="fox-cls-2" points="106.27 41.8 106.22 41.73 106.2 41.66 106.13 41.6 106.06 41.52 105.95 41.44 105.87 41.37 105.74 41.27 105.61 41.19 105.32 41.04 104.99 40.87 104.65 40.72 104.26 40.55 103.89 40.4 103.5 40.26 103.11 40.18 102.73 40.06 102.38 39.99 102.07 39.95 101.93 39.94 101.78 39.92 101.66 39.94 101.55 39.96 101.64 40.06 101.78 40.16 101.86 40.24 101.99 40.35 102.26 40.52 102.52 40.69 102.83 40.86 103.14 40.99 103.45 41.12 103.79 41.23 104.11 41.35 104.44 41.44 104.78 41.52 105.1 41.6 105.39 41.66 105.69 41.73 105.98 41.77 106.27 41.8 106.27 41.8"/>
<polygon class="fox-cls-2" points="74.64 42.47 75.07 42.19 75.42 41.95 75.74 41.77 76.03 41.6 76.33 41.44 76.69 41.26 77.14 41.05 77.71 40.75 77.68 40.64 77.62 40.47 77.57 40.32 77.51 40.18 77.12 40.39 76.76 40.6 76.41 40.82 76.05 41.05 75.65 41.27 75.3 41.49 74.91 41.7 74.52 41.94 74.56 42.06 74.58 42.19 74.64 42.34 74.64 42.47 74.64 42.47"/>
<polygon class="fox-cls-2" points="101.64 38.91 101.64 38.75 101.68 38.61 101.68 38.48 101.71 38.33 101.35 38.17 100.95 37.97 100.56 37.74 100.12 37.54 99.91 37.41 99.7 37.31 99.46 37.23 99.23 37.19 99.02 37.14 98.78 37.12 98.69 37.11 98.58 37.11 98.45 37.11 98.35 37.15 98.36 37.26 98.36 37.34 98.36 37.44 98.36 37.55 98.77 37.73 99.2 37.89 99.61 38.03 100 38.23 100.42 38.42 100.81 38.58 101.25 38.74 101.64 38.91 101.64 38.91"/>
<polygon class="fox-cls-2" points="149.53 35.83 149.77 35.8 149.99 35.75 150.23 35.7 150.43 35.66 150.66 35.62 150.89 35.59 151.1 35.55 151.31 35.52 151.28 35.34 151.23 35.18 151.17 35.03 151.1 34.88 150.89 34.92 150.66 34.98 150.43 35.03 150.21 35.08 149.96 35.13 149.7 35.21 149.49 35.25 149.23 35.31 149.21 35.44 149.16 35.57 149.11 35.7 149.08 35.86 149.21 35.84 149.32 35.84 149.43 35.84 149.53 35.83 149.53 35.83"/>
<polygon class="fox-cls-2" points="76.73 39.49 77.11 39.33 77.39 39.23 77.66 39.14 77.94 39.08 78.26 39.03 78.66 38.98 79.16 38.93 79.83 38.85 79.81 38.74 79.78 38.59 79.71 38.48 79.67 38.34 79.25 38.38 78.87 38.42 78.47 38.48 78.09 38.54 77.69 38.62 77.27 38.74 76.8 38.88 76.27 39.01 76.27 39.14 76.29 39.26 76.31 39.37 76.31 39.5 76.42 39.49 76.53 39.49 76.64 39.49 76.73 39.49 76.73 39.49"/>
<polygon class="fox-cls-2" points="58.8 40.13 59.01 40.02 59.2 39.95 59.4 39.87 59.57 39.83 59.75 39.78 59.92 39.73 60.08 39.7 60.25 39.7 60.58 39.66 60.89 39.66 61.23 39.63 61.59 39.62 61.67 39.5 61.73 39.45 61.75 39.37 61.77 39.31 61.77 39.24 61.77 39.16 61.76 39.07 61.73 38.95 61.44 38.98 61.16 38.99 60.9 39.03 60.62 39.07 60.76 38.81 60.89 38.54 61.03 38.3 61.18 38.03 61.33 37.78 61.44 37.52 61.59 37.27 61.73 37.01 61.64 37 61.52 36.98 61.41 36.98 61.28 36.98 61.09 37.27 60.86 37.55 60.68 37.81 60.47 38.03 60.27 38.28 60.05 38.48 59.85 38.68 59.64 38.85 59.4 39.03 59.15 39.18 58.86 39.31 58.55 39.42 58.2 39.54 57.84 39.65 57.42 39.73 56.98 39.82 56.91 39.96 56.78 40.18 57.05 40.16 57.3 40.13 57.56 40.13 57.81 40.13 58.06 40.13 58.31 40.11 58.57 40.13 58.8 40.13 58.8 40.13"/>
<polygon class="fox-cls-2" points="152.98 33.64 153.23 33.56 153.44 33.48 153.66 33.42 153.9 33.34 153.87 33.18 153.83 33.02 153.8 32.84 153.75 32.69 153.22 32.77 152.69 32.85 152.15 32.94 151.6 33.02 151.07 33.12 150.53 33.22 149.98 33.28 149.46 33.38 149.87 33.45 150.23 33.51 150.53 33.55 150.83 33.59 151.2 33.6 151.65 33.62 152.25 33.64 152.98 33.64 152.98 33.64"/>
<polygon class="fox-cls-2" points="98.39 36.38 98.18 36.23 98.04 36.09 97.9 36.01 97.73 35.91 97.6 35.84 97.46 35.8 97.32 35.78 97.17 35.76 97.01 35.76 96.86 35.75 96.72 35.76 96.53 35.78 96.11 35.81 95.66 35.83 95.67 35.94 95.67 36.06 95.67 36.16 95.67 36.27 96.01 36.29 96.34 36.28 96.7 36.29 97.02 36.3 97.38 36.33 97.69 36.35 98.03 36.35 98.39 36.38 98.39 36.38"/>
<polygon class="fox-cls-2" points="81.58 37.22 81.59 37.06 81.62 36.91 81.64 36.76 81.65 36.64 81.07 36.54 80.46 36.43 80.14 36.4 79.76 36.36 79.43 36.36 79.09 36.36 78.73 36.36 78.38 36.4 78.21 36.43 78.03 36.47 77.88 36.49 77.71 36.54 77.53 36.6 77.37 36.64 77.22 36.71 77.06 36.79 76.91 36.87 76.76 36.96 76.62 37.06 76.48 37.17 76.55 37.2 76.62 37.2 76.73 37.23 76.85 37.26 77.08 37.27 77.38 37.27 78.03 37.23 78.77 37.19 79.17 37.16 79.55 37.14 79.95 37.11 80.32 37.11 80.66 37.11 81.02 37.11 81.16 37.14 81.31 37.15 81.44 37.19 81.58 37.22 81.58 37.22"/>
<polygon class="fox-cls-2" points="83.29 35.98 83.27 35.87 83.19 35.78 83.09 35.68 83 35.58 82.87 35.5 82.72 35.41 82.53 35.31 82.36 35.22 82.16 35.15 81.97 35.08 81.72 35.01 81.5 34.95 81.24 34.89 81.01 34.84 80.76 34.79 80.5 34.75 80.25 34.7 79.98 34.66 79.76 34.65 79.48 34.61 79.25 34.6 79.02 34.59 78.81 34.59 78.58 34.6 78.38 34.61 78.19 34.65 78.03 34.67 77.88 34.72 77.73 34.76 77.61 34.81 77.53 34.89 77.46 34.97 78.26 35.05 79.02 35.15 79.78 35.24 80.5 35.36 81.2 35.49 81.89 35.65 82.58 35.8 83.29 35.98 83.29 35.98"/>
<polygon class="fox-cls-2" points="154.95 31.96 155.4 31.79 155.83 31.63 156.27 31.46 156.67 31.27 156.86 31.16 157.05 31.06 157.22 30.97 157.4 30.84 157.55 30.73 157.71 30.6 157.84 30.46 157.95 30.32 157.9 30.25 157.84 30.18 157.76 30.11 157.69 30.05 157.55 30.18 157.4 30.31 157.24 30.45 157.05 30.54 156.85 30.64 156.63 30.75 156.42 30.84 156.19 30.92 155.69 31.12 155.22 31.25 154.72 31.41 154.25 31.55 154.25 31.66 154.25 31.76 154.26 31.87 154.27 32 154.44 32 154.62 31.98 154.78 31.98 154.95 31.96 154.95 31.96"/>
<polygon class="fox-cls-2" points="85.03 35.01 84.92 34.91 84.83 34.79 84.69 34.68 84.55 34.56 84.43 34.44 84.29 34.35 84.13 34.27 83.97 34.19 83.81 34.11 83.63 34.03 83.45 33.95 83.27 33.9 83.08 33.84 82.9 33.79 82.72 33.73 82.49 33.7 82.12 33.64 81.7 33.59 81.31 33.58 80.87 33.55 80.69 33.58 80.5 33.59 80.31 33.62 80.1 33.64 79.92 33.68 79.72 33.71 79.55 33.77 79.38 33.82 80.14 33.9 80.87 34.01 81.59 34.14 82.3 34.27 83 34.44 83.68 34.61 84.36 34.81 85.03 35.01 85.03 35.01"/>
<polygon class="fox-cls-2" points="156.86 29.84 157.19 29.67 157.58 29.49 158.03 29.24 158.5 28.95 158.99 28.67 159.46 28.36 159.97 28.02 160.45 27.68 160.68 27.52 160.89 27.34 161.1 27.14 161.29 26.98 161.47 26.82 161.65 26.64 161.81 26.45 161.94 26.28 162.06 26.13 162.15 25.96 162.24 25.82 162.3 25.67 162.32 25.54 162.31 25.39 162.3 25.28 162.25 25.17 161.43 25.82 160.67 26.45 160.29 26.75 159.92 27.05 159.54 27.34 159.17 27.6 158.76 27.88 158.37 28.14 157.95 28.4 157.51 28.64 157.05 28.93 156.58 29.16 156.09 29.45 155.53 29.7 155.87 29.74 156.21 29.77 156.52 29.79 156.86 29.84 156.86 29.84"/>
<polygon class="fox-cls-2" points="116.76 31.61 116.76 31.43 116.75 31.27 116.74 31.07 116.74 30.93 116.84 30.93 116.96 30.92 117.06 30.92 117.15 30.91 117.12 30.77 117.05 30.62 116.98 30.48 116.92 30.35 116.84 30.48 116.75 30.59 116.69 30.68 116.64 30.8 116.61 30.92 116.58 31.1 116.57 31.32 116.53 31.63 116.66 31.61 116.76 31.61 116.76 31.61"/>
<polygon class="fox-cls-2" points="155.94 29.21 156.04 29.09 156.14 28.96 156.27 28.83 156.38 28.73 156.61 28.53 156.87 28.35 157.12 28.17 157.38 28 157.66 27.83 157.9 27.69 158.15 27.53 158.37 27.39 158.57 27.23 158.75 27.08 158.85 27 158.91 26.92 158.99 26.82 159.04 26.74 159.09 26.66 159.12 26.55 159.15 26.45 159.17 26.37 159 26.45 158.77 26.55 158.55 26.7 158.3 26.88 157.74 27.25 157.15 27.66 156.59 28.07 156.1 28.41 155.88 28.54 155.71 28.66 155.55 28.74 155.46 28.8 155.46 28.89 155.46 28.98 155.47 29.1 155.49 29.24 155.6 29.22 155.73 29.21 155.83 29.21 155.94 29.21 155.94 29.21"/>
<polygon class="fox-cls-2" points="152.76 28.69 152.92 28.57 153.1 28.46 153.28 28.34 153.57 28.2 153.97 28.01 154.56 27.77 155.33 27.44 156.38 27.02 156.44 26.78 156.51 26.62 156.55 26.41 156.62 26.22 156.49 26.22 156.37 26.25 156.24 26.28 156.11 26.29 155.86 26.41 155.59 26.53 155 26.82 154.36 27.14 154.03 27.34 153.68 27.5 153.33 27.66 152.96 27.83 152.57 27.99 152.19 28.12 151.99 28.2 151.78 28.25 151.59 28.29 151.38 28.33 151.4 28.44 151.41 28.54 151.41 28.64 151.41 28.77 151.75 28.74 152.1 28.73 152.42 28.72 152.76 28.69 152.76 28.69"/>
<polygon class="fox-cls-2" points="60.24 32.64 60.32 32.47 60.42 32.29 60.51 32.11 60.56 31.96 60.46 31.91 60.37 31.87 60.27 31.85 60.15 31.85 59.99 31.87 59.77 31.9 59.48 31.96 59.09 32.05 59.09 32.13 59.09 32.26 59.1 32.33 59.12 32.47 59.38 32.53 59.67 32.54 59.94 32.6 60.24 32.64 60.24 32.64"/>
<polygon class="fox-cls-2" points="152.23 26.94 152.9 26.66 153.42 26.41 153.84 26.19 154.18 26.02 154.53 25.82 154.9 25.59 155.32 25.3 155.87 24.95 155.81 24.94 155.71 24.94 155.63 24.94 155.53 24.95 155.3 24.99 155.03 25.05 154.77 25.17 154.46 25.28 154.13 25.41 153.8 25.54 153.09 25.82 152.38 26.11 152.04 26.25 151.71 26.35 151.4 26.45 151.1 26.53 151.1 26.64 151.12 26.75 151.12 26.88 151.12 27 151.4 27 151.68 26.98 151.94 26.96 152.23 26.94 152.23 26.94"/>
<polygon class="fox-cls-2" points="116.36 28.49 116.43 28.35 116.47 28.21 116.55 28.09 116.58 27.95 116.76 27.9 116.92 27.83 117.08 27.81 117.24 27.77 117.23 27.6 117.23 27.42 117.22 27.26 117.19 27.1 116.98 27.14 116.75 27.2 116.48 27.23 116.25 27.26 116.26 27.58 116.32 27.91 116.34 28.2 116.36 28.49 116.36 28.49"/>
<polygon class="fox-cls-2" points="62.41 31.2 62.35 30.96 62.29 30.7 62.23 30.45 62.15 30.21 62.11 30.45 62.05 30.72 61.99 30.96 61.93 31.22 62.09 31.21 62.17 31.2 62.31 31.2 62.41 31.2 62.41 31.2"/>
<polygon class="fox-cls-2" points="93.71 28.72 93.69 28.42 93.66 28.18 93.64 27.93 93.64 27.69 93.64 27.47 93.66 27.26 93.69 27.16 93.72 27.05 93.74 26.98 93.79 26.86 93.63 26.85 93.47 26.85 93.3 26.86 93.11 26.85 93.14 27.08 93.16 27.33 93.18 27.56 93.2 27.79 93.24 28.02 93.24 28.26 93.27 28.51 93.27 28.75 93.4 28.74 93.51 28.73 93.63 28.73 93.71 28.72 93.71 28.72"/>
<polygon class="fox-cls-2" points="186.63 22.96 186.78 22.83 186.95 22.7 187.08 22.57 187.23 22.43 187.07 22.32 186.92 22.23 186.89 22.19 186.83 22.16 186.77 22.16 186.7 22.16 186.64 22.13 186.56 22.16 186.51 22.19 186.44 22.2 186.26 22.33 186.03 22.49 186.19 22.62 186.34 22.73 186.49 22.85 186.63 22.96 186.63 22.96"/>
<polygon class="fox-cls-2" points="116.5 26.46 116.62 26.28 116.72 26.13 116.94 26.09 117.16 26.04 117.38 26.02 117.6 25.98 117.57 25.82 117.52 25.69 117.48 25.55 117.46 25.41 117.19 25.43 116.94 25.44 116.66 25.46 116.39 25.46 116.32 25.57 116.27 25.66 116.22 25.72 116.21 25.82 116.19 25.9 116.19 26 116.19 26.14 116.21 26.32 116.35 26.37 116.5 26.46 116.5 26.46"/>
<polygon class="fox-cls-2" points="161.73 23.77 161.73 23.64 161.72 23.54 161.72 23.41 161.72 23.31 161.84 23.3 161.95 23.3 162.06 23.27 162.15 23.27 162.19 23.06 162.22 22.84 162.23 22.62 162.24 22.4 162.18 22.34 162.12 22.27 162.07 22.23 161.99 22.17 161.96 22.23 161.95 22.3 161.94 22.35 161.91 22.4 161.88 22.45 161.83 22.49 161.78 22.52 161.73 22.57 161.59 22.64 161.42 22.69 161.21 22.78 160.94 22.89 160.92 22.7 160.87 22.54 160.81 22.39 160.76 22.23 160.51 22.17 160.25 22.1 160.02 22.05 159.77 22.01 159.71 21.83 159.61 21.64 159.54 21.45 159.46 21.29 159.3 21.27 159.15 21.22 158.99 21.2 158.82 21.19 158.76 20.91 158.73 20.63 158.69 20.35 158.63 20.08 158.52 20.08 158.42 20.09 158.31 20.11 158.19 20.11 158.16 20.48 158.14 20.77 158.1 21 158.08 21.18 158.05 21.32 157.98 21.52 157.9 21.72 157.79 21.95 158.25 21.85 158.52 21.8 158.6 21.81 158.68 21.83 158.75 21.85 158.85 21.89 158.88 22.05 158.91 22.23 158.95 22.39 158.99 22.57 159.33 22.7 159.69 22.85 160.02 23.02 160.37 23.18 160.72 23.31 161.05 23.47 161.39 23.63 161.73 23.77 161.73 23.77"/>
<polygon class="fox-cls-2" points="150.5 24.11 151.71 23.66 152.64 23.34 153.31 23.07 153.77 22.89 153.91 22.83 153.99 22.78 154.04 22.73 154.04 22.72 154.01 22.7 153.95 22.7 153.83 22.7 153.69 22.73 153.33 22.82 152.86 22.92 152.31 23.06 151.73 23.21 151.14 23.41 150.52 23.56 149.94 23.74 149.38 23.93 149.38 24.03 149.41 24.16 149.66 24.14 149.96 24.12 150.24 24.11 150.5 24.11 150.5 24.11"/>
<polygon class="fox-cls-2" points="62.95 28.48 63.01 28.25 63.08 28.02 63.11 27.83 63.17 27.6 63.31 27.56 63.44 27.5 63.55 27.44 63.67 27.39 63.69 27.23 63.7 27.1 63.72 26.98 63.75 26.85 63.53 26.92 63.34 26.98 63.28 27.02 63.18 27.05 63.11 27.07 63.06 27.13 62.98 27.2 62.92 27.26 62.84 27.34 62.79 27.44 62.73 27.55 62.68 27.69 62.61 27.88 62.56 28.06 62.68 28.14 62.77 28.24 62.86 28.37 62.95 28.48 62.95 28.48"/>
<polygon class="fox-cls-2" points="93.32 25.62 93.32 25.49 93.3 25.39 93.3 25.28 93.3 25.18 93.51 25.08 93.74 25.02 93.97 24.95 94.2 24.9 94.17 24.76 94.13 24.61 94.09 24.48 94.03 24.37 93.83 24.43 93.63 24.48 93.42 24.55 93.2 24.59 93.18 24.94 93.16 25.22 93.16 25.38 93.14 25.5 93.16 25.55 93.16 25.57 93.18 25.59 93.2 25.59 93.25 25.62 93.32 25.62 93.32 25.62"/>
<polygon class="fox-cls-2" points="116.83 24.19 117.17 24.14 117.52 24.07 117.83 23.99 118.15 23.93 118.15 23.77 118.14 23.58 118.14 23.41 118.14 23.26 117.89 23.26 117.67 23.25 117.47 23.23 117.26 23.23 117.13 23.23 117.01 23.25 116.89 23.27 116.75 23.31 116.61 23.34 116.45 23.41 116.3 23.47 116.13 23.56 116.13 23.72 116.13 23.88 116.15 24.06 116.15 24.24 116.32 24.23 116.5 24.21 116.66 24.21 116.83 24.19 116.83 24.19"/>
<polygon class="fox-cls-2" points="160.74 21.79 160.85 21.44 160.94 21.11 161.02 20.75 161.1 20.44 160.98 20.46 160.85 20.51 160.74 20.54 160.6 20.56 160.52 20.88 160.46 21.18 160.37 21.52 160.3 21.83 160.41 21.81 160.52 21.83 160.63 21.8 160.74 21.79 160.74 21.79"/>
<polygon class="fox-cls-2" points="157.12 21.76 157.21 21.63 157.25 21.55 157.32 21.48 157.38 21.4 157.45 21.35 157.55 21.28 157.69 21.21 157.87 21.11 157.87 20.86 157.9 20.63 157.9 20.39 157.9 20.15 157.9 19.94 157.9 19.7 157.91 19.48 157.9 19.24 157.79 19.28 157.66 19.32 157.53 19.35 157.42 19.38 157.32 19.85 157.25 20.24 157.19 20.56 157.14 20.82 157.11 21.05 157.09 21.27 157.09 21.48 157.12 21.76 157.12 21.76"/>
<polygon class="fox-cls-2" points="155.29 20.93 155.48 20.8 155.7 20.67 155.94 20.54 156.18 20.43 156.42 20.3 156.65 20.2 156.74 20.14 156.82 20.08 156.91 20.03 156.98 19.96 156.88 19.82 156.8 19.66 156.71 19.53 156.61 19.42 156.7 19.4 156.82 19.37 156.91 19.33 157.01 19.3 156.95 18.95 156.86 18.61 156.8 18.29 156.74 17.97 156.44 17.98 156.13 18.02 155.83 18.04 155.53 18.07 155.81 17.86 156.11 17.64 156.38 17.42 156.67 17.23 156.35 17.23 156.04 17.23 155.75 17.23 155.46 17.26 155.37 17.12 155.31 17 155.24 16.87 155.16 16.77 155.58 16.65 156 16.58 156.42 16.46 156.86 16.37 156.82 15.95 156.77 15.52 156.71 15.11 156.67 14.7 156.27 14.77 155.84 14.84 155.46 14.93 155.06 15.01 154.67 15.11 154.27 15.22 153.89 15.33 153.48 15.47 153.13 15.62 152.73 15.77 152.36 15.95 151.93 16.11 151.55 16.33 151.15 16.56 150.73 16.79 150.32 17.02 150.36 17.15 150.4 17.26 150.4 17.39 150.4 17.5 151.1 17.15 151.72 16.86 152.01 16.71 152.27 16.61 152.53 16.51 152.78 16.41 153.04 16.36 153.28 16.3 153.56 16.25 153.81 16.21 154.09 16.19 154.4 16.16 154.71 16.17 155.02 16.16 154.69 16.33 154.28 16.54 154.05 16.66 153.82 16.79 153.57 16.93 153.34 17.09 153.1 17.26 152.87 17.41 152.67 17.59 152.46 17.79 152.27 17.98 152.1 18.2 152.02 18.3 151.94 18.43 151.88 18.52 151.82 18.64 152.31 18.4 152.74 18.2 153.1 18.05 153.45 17.92 153.78 17.83 154.11 17.75 154.48 17.7 154.88 17.64 154.83 17.71 154.82 17.79 154.79 17.86 154.77 17.92 154.67 18.05 154.56 18.17 154.36 18.4 154.11 18.61 154 18.73 153.9 18.84 153.81 18.95 153.73 19.07 153.66 19.18 153.63 19.3 153.63 19.37 153.64 19.42 153.64 19.48 153.64 19.56 154.31 19.26 154.71 19.11 154.88 19.05 155.03 19.01 155.17 19 155.35 18.98 155.4 19.08 155.42 19.18 155.46 19.26 155.46 19.37 155.55 19.37 155.68 19.36 155.81 19.37 155.87 19.35 155.93 19.2 155.97 19.07 156.01 19 156.06 18.93 156.13 18.86 156.21 18.83 156.31 18.77 156.44 18.72 156.35 18.98 156.28 19.18 156.24 19.26 156.22 19.36 156.18 19.44 156.13 19.52 156.09 19.57 156.01 19.65 155.93 19.72 155.83 19.8 155.7 19.88 155.55 19.96 155.4 20.06 155.18 20.15 155.23 20.34 155.24 20.52 155.28 20.72 155.29 20.93 155.29 20.93"/>
<polygon class="fox-cls-2" points="63.9 25.49 64.2 25.27 64.45 25.07 64.58 24.99 64.69 24.91 64.81 24.84 64.95 24.79 65.03 24.73 65.16 24.71 65.29 24.68 65.38 24.67 65.51 24.67 65.64 24.68 65.78 24.69 65.9 24.71 65.9 24.54 65.86 24.37 65.86 24.21 65.86 24.06 65.53 24.07 65.18 24.11 64.99 24.12 64.81 24.16 64.61 24.19 64.45 24.24 64.28 24.31 64.1 24.39 63.94 24.46 63.8 24.59 63.72 24.67 63.66 24.74 63.59 24.82 63.53 24.91 63.47 25 63.42 25.11 63.39 25.22 63.33 25.32 63.49 25.36 63.64 25.41 63.78 25.44 63.9 25.49 63.9 25.49"/>
<polygon class="fox-cls-2" points="159.54 20.51 159.67 19.96 159.75 19.52 159.87 19.18 159.96 18.88 160.06 18.62 160.14 18.43 160.23 18.2 160.3 17.98 160.18 18.07 160.05 18.17 159.92 18.27 159.82 18.36 159.71 18.48 159.61 18.56 159.54 18.69 159.45 18.83 159.38 18.95 159.34 19.11 159.29 19.28 159.25 19.45 159.24 19.65 159.23 19.85 159.23 20.09 159.24 20.35 159.38 20.41 159.54 20.51 159.54 20.51"/>
<polygon class="fox-cls-2" points="177.67 19.13 177.67 19.01 177.67 18.9 177.67 18.8 177.67 18.7 177.4 18.57 177.14 18.44 176.9 18.32 176.63 18.2 176.49 18.14 176.37 18.09 176.22 18.07 176.08 18.04 175.95 18.04 175.79 18.04 175.62 18.04 175.47 18.09 175.74 18.2 176.03 18.33 176.31 18.47 176.58 18.6 176.86 18.74 177.12 18.86 177.41 19 177.67 19.13 177.67 19.13"/>
<polygon class="fox-cls-2" points="93.45 23.34 93.63 23.11 93.76 22.93 93.85 22.86 93.9 22.81 93.97 22.77 94.02 22.72 94.14 22.67 94.25 22.65 94.39 22.64 94.53 22.62 94.5 22.46 94.5 22.27 94.49 22.11 94.49 21.95 94.21 22.03 93.92 22.13 93.63 22.26 93.32 22.36 93.38 22.62 93.4 22.84 93.44 23.11 93.45 23.34 93.45 23.34"/>
<polygon class="fox-cls-2" points="116.5 21.76 116.84 21.69 117.17 21.63 117.52 21.56 117.86 21.49 118.2 21.45 118.53 21.4 118.86 21.32 119.18 21.29 118.8 21.15 118.46 21.03 118.32 20.98 118.17 20.95 118 20.92 117.86 20.9 117.7 20.9 117.55 20.91 117.36 20.93 117.17 20.96 116.97 21.02 116.75 21.07 116.48 21.15 116.22 21.27 116.17 21.4 116.14 21.52 116.08 21.64 116.05 21.77 116.17 21.79 116.29 21.77 116.39 21.76 116.5 21.76 116.5 21.76"/>
<polygon class="fox-cls-2" points="173.56 18.24 173.79 18.12 173.99 18.02 174.15 17.93 174.28 17.89 174.48 17.84 174.7 17.8 174.98 17.75 175.35 17.69 175.25 17.36 175.17 17.02 175.05 16.73 174.93 16.46 174.8 16.25 174.67 16.04 174.55 15.88 174.42 15.73 174.27 15.61 174.14 15.5 173.99 15.44 173.87 15.38 173.72 15.36 173.58 15.36 173.47 15.37 173.35 15.4 173.24 15.46 173.11 15.53 173.02 15.62 172.93 15.73 172.85 15.85 172.78 15.98 172.7 16.14 172.67 16.3 172.63 16.48 172.63 16.68 172.62 16.89 172.65 17.09 172.69 17.32 172.73 17.56 172.81 17.79 172.89 18.02 173.08 18.09 173.26 18.1 173.43 18.17 173.56 18.24 173.56 18.24"/>
<polygon class="fox-cls-2" points="64.93 23.43 65.12 23.27 65.28 23.17 65.44 23.06 65.57 22.96 65.71 22.89 65.83 22.83 65.97 22.78 66.08 22.73 66.35 22.68 66.6 22.63 66.88 22.57 67.22 22.49 67.27 22.35 67.31 22.2 67.32 22.1 67.34 21.96 66.86 22 66.49 22.03 66.33 22.03 66.16 22.07 66.02 22.1 65.88 22.13 65.76 22.17 65.63 22.23 65.47 22.34 65.34 22.43 65.16 22.57 64.99 22.7 64.77 22.89 64.53 23.12 64.63 23.18 64.75 23.25 64.83 23.33 64.93 23.43 64.93 23.43"/>
<polygon class="fox-cls-2" points="173.99 17.29 174 17.05 174.02 16.79 174.03 16.56 174.03 16.33 173.89 16.28 173.76 16.25 173.66 16.22 173.48 16.2 173.47 16.31 173.44 16.41 173.42 16.53 173.37 16.65 173.54 16.79 173.68 16.96 173.84 17.12 173.99 17.29 173.99 17.29"/>
<polygon class="fox-cls-2" points="169.04 17.54 168.98 17.39 168.89 17.23 169.26 17.2 169.61 17.16 169.93 17.13 170.26 17.1 170.26 17.02 170.26 16.91 170.25 16.79 170.25 16.71 169.96 16.68 169.7 16.63 169.44 16.61 169.18 16.58 168.91 16.54 168.63 16.53 168.38 16.5 168.11 16.48 168.11 16.57 168.09 16.66 168.08 16.75 168.06 16.86 167.96 16.83 167.85 16.82 167.75 16.79 167.65 16.79 167.62 16.89 167.55 17 167.52 17.09 167.46 17.19 167.88 17.26 168.26 17.36 168.66 17.46 169.04 17.54 169.04 17.54"/>
<polygon class="fox-cls-2" points="120.44 19.78 120.35 19.57 120.26 19.4 120.15 19.2 120.03 19.03 119.59 18.96 119.1 18.9 118.84 18.89 118.55 18.88 118.29 18.87 118.04 18.87 117.75 18.89 117.47 18.92 117.23 18.96 116.94 19.01 116.82 19.05 116.7 19.08 116.58 19.15 116.45 19.2 116.35 19.28 116.23 19.33 116.14 19.4 116.03 19.48 116.13 19.52 116.26 19.52 116.43 19.55 116.64 19.56 117.17 19.57 117.76 19.57 118.45 19.6 119.13 19.63 119.48 19.65 119.81 19.68 120.15 19.74 120.44 19.78 120.44 19.78"/>
<polygon class="fox-cls-2" points="94.44 20.86 94.55 20.77 94.68 20.7 94.8 20.63 94.89 20.59 94.88 20.46 94.87 20.35 94.87 20.25 94.85 20.15 94.51 20.11 94.23 20.08 94.01 20.07 93.86 20.07 93.73 20.08 93.58 20.11 93.46 20.17 93.3 20.23 93.3 20.39 93.3 20.56 93.32 20.72 93.32 20.91 93.51 20.82 93.66 20.79 93.77 20.75 93.9 20.75 93.98 20.75 94.11 20.77 94.25 20.79 94.44 20.86 94.44 20.86"/>
<polygon class="fox-cls-2" points="171.68 16.53 171.88 16.21 172.09 15.91 172.28 15.68 172.45 15.48 172.62 15.3 172.76 15.2 172.93 15.11 173.08 15.01 173.37 14.85 173.66 14.73 173.78 14.66 173.93 14.57 174.07 14.47 174.21 14.34 174.13 14.27 174.03 14.19 173.94 14.13 173.85 14.11 173.76 14.08 173.66 14.05 173.55 14.02 173.48 14.01 173.37 14.01 173.3 14.01 173.2 14.03 173.11 14.05 173.02 14.06 172.92 14.11 172.82 14.15 172.74 14.19 172.56 14.31 172.4 14.44 172.22 14.6 172.07 14.73 171.94 14.94 171.81 15.12 171.7 15.36 171.58 15.55 171.25 15.58 170.88 15.61 170.53 15.62 170.2 15.65 169.83 15.68 169.49 15.72 169.12 15.73 168.76 15.78 168.76 15.88 168.76 15.98 168.77 16.09 168.77 16.21 169.14 16.25 169.51 16.28 169.88 16.32 170.24 16.36 170.61 16.4 170.99 16.45 171.31 16.48 171.68 16.53 171.68 16.53"/>
<polygon class="fox-cls-2" points="158.88 16.7 159.23 16.5 159.56 16.31 159.89 16.14 160.22 15.96 160.2 15.85 160.2 15.73 160.19 15.62 160.19 15.52 160.01 15.53 159.75 15.58 159.67 15.59 159.54 15.62 159.41 15.66 159.3 15.72 159.19 15.77 159.09 15.85 159.04 15.9 159.01 15.95 158.98 15.99 158.94 16.05 158.92 16.11 158.88 16.17 158.88 16.25 158.88 16.33 158.86 16.41 158.88 16.49 158.88 16.58 158.88 16.7 158.88 16.7"/>
<polygon class="fox-cls-2" points="127.31 18.29 127.48 18.24 127.66 18.17 127.81 18.1 127.98 18.05 127.97 17.92 127.97 17.8 127.97 17.69 127.96 17.57 127.16 17.66 126.53 17.69 125.88 17.74 125.19 17.77 124.32 17.78 123.2 17.77 121.71 17.77 119.78 17.75 119.06 17.57 118.43 17.46 118.17 17.42 117.91 17.39 117.65 17.39 117.43 17.39 117.18 17.39 116.92 17.46 116.66 17.5 116.39 17.59 116.06 17.69 115.74 17.83 115.37 17.98 114.94 18.17 114.94 18.27 114.95 18.38 114.95 18.51 114.95 18.64 115.18 18.51 115.41 18.43 115.62 18.33 115.81 18.25 116.01 18.2 116.23 18.14 116.43 18.1 116.64 18.07 116.84 18.04 117.05 18.04 117.26 18.04 117.44 18.04 117.86 18.05 118.26 18.1 119.06 18.22 119.86 18.37 120.28 18.45 120.67 18.51 121.08 18.54 121.5 18.57 121.5 18.45 121.49 18.33 121.49 18.24 121.49 18.14 122.16 18.2 122.72 18.27 123.22 18.32 123.74 18.33 124.32 18.33 125.08 18.33 126.05 18.32 127.31 18.29 127.31 18.29"/>
<polygon class="fox-cls-2" points="67.07 21.31 67.25 21.19 67.45 21.11 67.64 21.03 67.8 20.96 68 20.93 68.16 20.88 68.34 20.85 68.5 20.82 68.81 20.79 69.12 20.75 69.43 20.75 69.74 20.72 69.73 20.54 69.72 20.38 69.72 20.21 69.7 20.05 69.31 20.11 68.93 20.2 68.54 20.28 68.18 20.34 67.77 20.41 67.38 20.49 66.98 20.59 66.6 20.65 66.62 20.8 66.62 20.96 66.64 21.15 66.64 21.32 66.74 21.32 66.86 21.32 66.97 21.31 67.07 21.31 67.07 21.31"/>
<polygon class="fox-cls-2" points="95.49 19.21 95.51 19.01 95.52 18.8 95.54 18.6 95.56 18.43 95.25 18.43 94.91 18.4 94.73 18.36 94.57 18.35 94.42 18.36 94.25 18.38 94.07 18.38 93.92 18.44 93.85 18.48 93.79 18.52 93.71 18.54 93.66 18.61 93.59 18.67 93.51 18.74 93.48 18.8 93.42 18.89 93.35 19 93.32 19.07 93.27 19.2 93.24 19.32 93.82 19.24 94.26 19.2 94.62 19.16 94.85 19.13 95.04 19.13 95.19 19.13 95.35 19.18 95.49 19.21 95.49 19.21"/>
<polygon class="fox-cls-2" points="50.91 21.44 51.17 21.22 51.44 21.02 51.71 20.85 51.99 20.65 51.66 20.65 51.33 20.65 51 20.65 50.67 20.65 50.32 20.66 50 20.66 49.66 20.68 49.31 20.7 48.87 20.54 48.25 20.3 47.45 19.99 46.51 19.63 45.5 19.23 44.4 18.83 43.24 18.4 42.08 17.98 41.49 17.8 40.91 17.62 40.34 17.42 39.77 17.28 39.22 17.12 38.71 16.99 38.2 16.86 37.71 16.77 37.27 16.68 36.85 16.61 36.47 16.58 36.14 16.58 35.82 16.58 35.57 16.66 35.39 16.74 35.2 16.87 35.75 16.94 36.27 17.05 36.75 17.16 37.27 17.28 37.78 17.41 38.28 17.56 38.77 17.69 39.27 17.87 40.26 18.2 41.23 18.53 42.16 18.92 43.13 19.28 44.09 19.64 45.04 19.99 45.53 20.15 46.01 20.31 46.5 20.48 46.95 20.62 47.45 20.77 47.93 20.91 48.42 21.03 48.91 21.12 49.4 21.22 49.9 21.32 50.41 21.39 50.91 21.44 50.91 21.44"/>
<polygon class="fox-cls-2" points="129.5 16.82 129.47 16.75 129.43 16.68 129.37 16.62 129.32 16.56 128.62 16.58 128.09 16.58 127.68 16.59 127.34 16.63 127.08 16.66 126.8 16.71 126.51 16.77 126.17 16.86 126.57 16.86 127 16.83 127.41 16.82 127.83 16.83 128.25 16.82 128.68 16.82 129.08 16.82 129.5 16.82 129.5 16.82"/>
<polygon class="fox-cls-2" points="44.38 20.88 44.38 20.75 44.38 20.63 44.38 20.51 44.38 20.41 44.03 20.27 43.67 20.11 43.21 19.94 42.76 19.74 42.24 19.56 41.7 19.37 41.15 19.2 40.6 19.05 40.31 19 40 18.92 39.74 18.86 39.47 18.83 39.19 18.79 38.91 18.74 38.65 18.74 38.38 18.72 38.16 18.72 37.91 18.75 37.68 18.76 37.48 18.83 37.26 18.88 37.09 18.96 36.9 19.05 36.74 19.18 37.25 19.21 37.78 19.26 38.26 19.32 38.76 19.4 39.22 19.52 39.71 19.6 40.16 19.7 40.65 19.82 41.59 20.07 42.5 20.33 43.44 20.62 44.38 20.88 44.38 20.88"/>
<polygon class="fox-cls-2" points="97.2 17.98 97.2 17.89 97.2 17.75 97.2 17.66 97.19 17.57 96.81 17.46 96.31 17.32 96.05 17.26 95.78 17.16 95.5 17.13 95.22 17.09 94.94 17.09 94.66 17.09 94.52 17.09 94.39 17.1 94.26 17.12 94.13 17.16 94 17.2 93.87 17.26 93.76 17.32 93.66 17.39 93.54 17.46 93.45 17.54 93.35 17.64 93.27 17.75 93.32 17.83 93.38 17.92 93.42 17.98 93.45 18.07 93.74 18 93.97 17.93 94.23 17.91 94.49 17.86 94.72 17.86 94.96 17.84 95.17 17.84 95.4 17.84 95.85 17.87 96.29 17.91 96.73 17.96 97.2 17.98 97.2 17.98"/>
<polygon class="fox-cls-2" points="71.69 19.28 71.69 19.16 71.66 19.05 71.66 18.93 71.66 18.84 71.24 18.84 70.81 18.83 70.42 18.8 70 18.8 69.8 18.83 69.59 18.84 69.38 18.86 69.17 18.92 68.94 18.95 68.7 19.02 68.46 19.12 68.23 19.23 68.65 19.23 69.09 19.21 69.53 19.23 69.96 19.24 70.39 19.24 70.82 19.24 71.25 19.26 71.69 19.28 71.69 19.28"/>
<polygon class="fox-cls-2" points="141.8 15.53 142.06 15.33 142.31 15.12 142.53 14.95 142.79 14.8 143.01 14.66 143.24 14.52 143.47 14.42 143.7 14.31 144.12 14.11 144.59 13.95 145.08 13.79 145.6 13.64 145.6 13.54 145.6 13.43 145.6 13.33 145.6 13.24 145.27 13.24 145 13.26 144.74 13.3 144.48 13.33 144.22 13.39 144.01 13.46 143.77 13.54 143.55 13.63 143.32 13.74 143.11 13.87 142.89 14 142.66 14.18 142.45 14.35 142.2 14.54 141.96 14.77 141.7 15.01 141.72 15.12 141.76 15.27 141.8 15.4 141.8 15.53 141.8 15.53"/>
<polygon class="fox-cls-2" points="40.09 20.63 40.09 20.46 40.08 20.27 40.07 20.11 40.05 19.95 39.17 20 38.28 20.05 37.37 20.08 36.49 20.14 35.57 20.18 34.69 20.23 33.81 20.26 32.9 20.31 32.9 20.41 32.9 20.54 32.92 20.66 32.92 20.79 33.85 20.77 34.77 20.72 35.69 20.66 36.6 20.63 37.51 20.59 38.4 20.59 38.81 20.57 39.25 20.59 39.69 20.62 40.09 20.63 40.09 20.63"/>
<polygon class="fox-cls-2" points="29.57 21.15 29.97 21.01 30.35 20.86 30.73 20.72 31.12 20.56 31.5 20.41 31.88 20.28 32.28 20.14 32.64 19.99 31.95 20.03 31.25 20.09 30.58 20.17 29.85 20.23 29.16 20.3 28.46 20.35 27.74 20.43 27.05 20.51 26.89 20.46 26.71 20.43 26.55 20.38 26.4 20.31 26.08 20.19 25.78 20.04 25.46 19.89 25.14 19.71 24.83 19.52 24.5 19.35 24.19 19.16 23.87 18.98 23.53 18.8 23.2 18.64 22.85 18.48 22.49 18.33 22.31 18.27 22.11 18.24 21.92 18.15 21.75 18.1 21.71 18.24 21.66 18.36 21.6 18.52 21.57 18.65 21.86 18.75 22.15 18.83 22.42 18.92 22.69 19 23.19 19.2 23.66 19.42 24.58 19.82 25.49 20.24 25.92 20.43 26.38 20.59 26.62 20.68 26.84 20.75 27.1 20.82 27.31 20.9 27.6 20.96 27.84 21.02 28.11 21.05 28.4 21.09 28.67 21.12 28.98 21.15 29.27 21.15 29.57 21.15 29.57 21.15"/>
<polygon class="fox-cls-2" points="22.85 21.49 23.12 21.44 23.41 21.36 23.66 21.29 23.94 21.22 23.94 21.11 23.94 20.98 23.94 20.86 23.93 20.75 23.5 20.75 23.07 20.77 22.66 20.75 22.26 20.72 21.88 20.68 21.49 20.63 21.1 20.59 20.72 20.54 20.37 20.46 20 20.38 19.66 20.31 19.3 20.21 18.94 20.11 18.59 20 18.25 19.89 17.91 19.78 17.23 19.52 16.53 19.26 15.85 18.95 15.16 18.64 14.42 18.32 13.66 17.97 12.88 17.57 12.07 17.2 11.89 17.23 11.69 17.29 11.5 17.32 11.3 17.36 11.24 17.51 11.15 17.68 11.09 17.86 11.01 18.05 11.17 18.02 11.35 17.98 11.53 17.98 11.73 17.98 11.94 18 12.14 18.05 12.34 18.09 12.54 18.14 12.76 18.19 12.96 18.25 13.17 18.32 13.38 18.4 13.81 18.57 14.21 18.76 14.64 18.96 15.05 19.18 15.45 19.38 15.85 19.6 16.55 20 17.17 20.33 17.91 20.51 18.64 20.7 19.33 20.86 20.02 21.02 20.72 21.15 21.43 21.27 22.16 21.4 22.85 21.49 22.85 21.49"/>
<polygon class="fox-cls-2" points="154.56 14.71 154.53 14.57 154.53 14.45 154.53 14.35 154.53 14.24 154.84 14.22 155.14 14.19 155.47 14.19 155.78 14.18 156.1 14.15 156.44 14.15 156.72 14.14 157.05 14.13 157.08 14.01 157.14 13.89 157.16 13.77 157.19 13.66 156.8 13.67 156.42 13.7 156.02 13.71 155.6 13.74 155.6 13.6 155.6 13.5 155.89 13.49 156.18 13.49 156.47 13.46 156.74 13.45 157.01 13.42 157.3 13.42 157.58 13.41 157.86 13.39 157.87 13.24 157.89 13.09 157.91 12.96 157.92 12.82 157.83 12.8 157.74 12.78 157.63 12.77 157.5 12.73 157.32 12.72 157.08 12.72 156.8 12.72 156.4 12.72 155.93 12.72 155.34 12.72 154.65 12.72 153.79 12.74 152.82 12.77 151.66 12.8 150.35 12.8 148.83 12.84 149.35 12.65 149.77 12.54 150.19 12.41 150.66 12.33 151.18 12.21 151.88 12.1 152.76 11.99 153.94 11.8 153.87 11.65 153.83 11.52 153.77 11.37 153.7 11.24 153.47 11.35 153.22 11.41 152.96 11.48 152.66 11.54 152.02 11.68 151.31 11.8 150.58 11.93 149.83 12.1 149.48 12.2 149.1 12.28 148.73 12.38 148.37 12.52 148.39 12.64 148.39 12.73 148.39 12.87 148.39 12.98 148.13 13.08 147.87 13.17 147.58 13.26 147.3 13.38 147.02 13.49 146.75 13.56 146.46 13.67 146.18 13.77 146.18 13.89 146.18 13.98 146.2 14.11 146.2 14.2 146.48 14.11 146.75 14.01 147 13.89 147.27 13.83 147.53 13.74 147.81 13.66 148.07 13.6 148.36 13.54 148.9 13.41 149.48 13.33 150.02 13.26 150.58 13.21 151.14 13.16 151.71 13.14 152.27 13.14 152.8 13.12 153.34 13.09 153.86 13.09 154.4 13.1 154.9 13.1 154.93 13.26 154.93 13.43 154.93 13.6 154.93 13.77 154.62 13.94 154.36 14.06 154.2 14.14 154.09 14.23 154.01 14.27 153.97 14.34 153.96 14.39 153.97 14.47 154.11 14.51 154.26 14.57 154.4 14.64 154.56 14.71 154.56 14.71"/>
<polygon class="fox-cls-2" points="159.89 13.98 159.96 13.87 160.02 13.79 160.09 13.74 160.18 13.66 160.29 13.63 160.46 13.57 160.69 13.54 160.98 13.47 160.98 13.36 160.98 13.26 160.95 13.14 160.95 13.05 160.66 13.08 160.44 13.1 160.25 13.14 160.1 13.18 160 13.22 159.87 13.26 159.74 13.33 159.57 13.45 159.55 13.59 159.52 13.71 159.46 13.84 159.43 14 159.56 14 159.69 13.98 159.81 13.98 159.89 13.98 159.89 13.98"/>
<polygon class="fox-cls-2" points="98.75 17.02 98.69 16.92 98.6 16.83 98.5 16.75 98.39 16.68 98.27 16.61 98.12 16.54 98.01 16.45 97.86 16.41 97.69 16.34 97.54 16.3 97.36 16.25 97.19 16.19 96.79 16.11 96.4 16.05 96 16.01 95.61 15.99 95.21 15.97 94.83 15.97 94.45 16.01 94.11 16.01 93.95 16.06 93.79 16.09 93.66 16.11 93.51 16.17 93.59 16.25 93.66 16.31 93.72 16.41 93.79 16.49 94.47 16.5 95.12 16.53 95.75 16.57 96.35 16.63 96.94 16.7 97.55 16.79 98.14 16.91 98.75 17.02 98.75 17.02"/>
<polygon class="fox-cls-2" points="74.56 18.02 74.55 17.91 74.54 17.77 74.54 17.66 74.54 17.56 73.85 17.44 73.21 17.32 72.91 17.28 72.6 17.23 72.3 17.2 71.98 17.15 71.69 17.16 71.39 17.15 71.08 17.18 70.76 17.23 70.42 17.28 70.08 17.36 69.7 17.46 69.34 17.6 69.41 17.69 69.48 17.75 69.54 17.84 69.59 17.93 69.96 17.87 70.3 17.84 70.63 17.8 70.96 17.77 71.26 17.75 71.56 17.75 71.85 17.77 72.14 17.79 72.72 17.8 73.3 17.86 73.89 17.93 74.56 18.02 74.56 18.02"/>
<polygon class="fox-cls-2" points="77.22 17.41 77.16 17.2 77.08 16.99 77.02 16.77 76.94 16.57 76.03 16.36 75.22 16.21 74.83 16.14 74.44 16.09 74.04 16.05 73.67 16.01 73.29 15.99 72.9 15.99 72.5 16.01 72.09 16.06 71.64 16.11 71.18 16.21 70.71 16.3 70.19 16.41 70.19 16.54 70.22 16.65 70.22 16.77 70.22 16.91 70.77 16.77 71.26 16.68 71.73 16.61 72.19 16.56 72.61 16.53 73.03 16.5 73.46 16.5 73.82 16.53 74.23 16.58 74.61 16.65 75.03 16.73 75.42 16.82 75.85 16.95 76.28 17.09 76.75 17.23 77.22 17.41 77.22 17.41"/>
<polygon class="fox-cls-2" points="162.01 11.83 162.12 11.68 162.21 11.58 161.98 11.54 161.73 11.53 161.47 11.52 161.23 11.51 160.97 11.51 160.73 11.51 160.46 11.48 160.22 11.48 160.22 11.59 160.23 11.7 160.23 11.81 160.23 11.93 160.46 11.91 160.69 11.89 160.92 11.89 161.15 11.87 161.37 11.87 161.59 11.86 161.81 11.84 162.01 11.83 162.01 11.83"/>
<polygon class="fox-cls-2" points="163.34 11.08 163.32 10.87 163.3 10.65 163.29 10.43 163.29 10.23 162.65 10.21 162.16 10.21 161.79 10.2 161.47 10.21 161.2 10.23 160.92 10.29 160.57 10.32 160.17 10.39 160.17 10.48 160.18 10.58 160.18 10.71 160.18 10.82 160.73 10.76 161.16 10.73 161.35 10.71 161.54 10.73 161.7 10.73 161.87 10.74 162.04 10.78 162.21 10.79 162.36 10.82 162.52 10.87 162.89 10.98 163.34 11.08 163.34 11.08"/>
<polygon class="fox-cls-2" points="145.86 11.79 146.32 11.55 146.77 11.38 147.19 11.21 147.59 11.08 148 10.95 148.36 10.82 148.72 10.74 149.1 10.67 149.46 10.62 149.83 10.54 150.21 10.51 150.58 10.44 151.4 10.38 152.29 10.31 152.29 10.13 152.29 9.96 152.29 9.8 152.27 9.63 151.89 9.64 151.5 9.66 151.07 9.7 150.63 9.74 150.16 9.84 149.66 9.92 149.18 10.03 148.67 10.15 148.18 10.26 147.69 10.43 147.22 10.6 146.77 10.77 146.53 10.87 146.31 10.98 146.12 11.08 145.91 11.19 145.71 11.3 145.52 11.43 145.33 11.54 145.17 11.65 145.34 11.69 145.53 11.71 145.69 11.75 145.86 11.79 145.86 11.79"/>
<polygon class="fox-cls-2" points="166.62 9.4 166.61 9 166.59 8.59 166.54 8.19 166.46 7.82 166.43 7.62 166.37 7.41 166.33 7.23 166.28 7.05 166.21 6.89 166.16 6.71 166.05 6.53 165.97 6.37 165.9 6.21 165.81 6.06 165.7 5.92 165.59 5.77 165.47 5.67 165.36 5.55 165.21 5.41 165.09 5.32 164.95 5.21 164.78 5.14 164.62 5.04 164.47 4.97 164.28 4.92 164.09 4.87 163.9 4.83 163.68 4.8 163.73 4.91 163.8 5.02 163.88 5.15 163.98 5.27 164.2 5.53 164.44 5.78 164.64 6.03 164.84 6.27 164.9 6.37 164.96 6.48 165.02 6.57 165.02 6.64 164.78 6.54 164.52 6.48 164.27 6.41 164 6.34 164.02 6.5 164.02 6.67 164.02 6.85 164.03 7.02 164.14 7.04 164.23 7.05 164.33 7.08 164.42 7.1 164.3 7.14 164.14 7.17 163.98 7.21 163.81 7.26 163.78 7.48 163.76 7.64 163.73 7.78 163.73 7.88 163.66 7.96 163.63 8.06 163.57 8.16 163.48 8.28 163.64 8.49 163.78 8.69 163.94 8.89 164.09 9.13 164.17 9.12 164.28 9.09 164.37 9.11 164.47 9.09 164.54 8.97 164.58 8.84 164.64 8.73 164.68 8.59 164.72 8.75 164.75 8.92 164.8 9.08 164.82 9.24 165.16 9.17 165.45 9.15 165.63 9.15 165.8 9.15 165.97 9.17 166.16 9.24 166.35 9.29 166.62 9.4 166.62 9.4"/>
<polygon class="fox-cls-2" points="25.5 16.43 26.13 16.21 26.74 15.98 27.31 15.78 27.86 15.58 28.43 15.4 28.95 15.22 29.49 15.07 30 14.93 30.52 14.8 31.04 14.7 31.57 14.6 32.1 14.52 32.64 14.45 33.23 14.43 33.79 14.39 34.38 14.39 34.37 14.29 34.3 14.18 34.25 14.03 34.2 13.89 33.72 13.87 33.23 13.83 32.76 13.77 32.26 13.74 31.79 13.69 31.31 13.64 30.84 13.6 30.34 13.56 31.18 13.41 31.98 13.29 32.7 13.18 33.43 13.12 33.75 13.09 34.09 13.08 34.41 13.08 34.73 13.07 35.05 13.05 35.35 13.07 35.67 13.08 35.96 13.09 36.59 13.15 37.2 13.24 37.81 13.32 38.46 13.45 39.14 13.56 39.84 13.7 40.55 13.87 41.35 14.05 41.33 13.87 41.31 13.7 41.31 13.54 41.31 13.39 41.09 13.29 40.88 13.22 40.65 13.14 40.41 13.07 40.64 13.08 40.86 13.14 41.07 13.15 41.28 13.21 41.7 13.3 42.11 13.42 42.5 13.56 42.89 13.7 43.3 13.87 43.69 14.03 44.07 14.18 44.45 14.34 44.85 14.47 45.23 14.61 45.62 14.71 46 14.8 46.21 14.84 46.38 14.85 46.59 14.88 46.79 14.9 46.77 14.71 46.76 14.55 46.74 14.37 46.74 14.22 46.29 14.13 45.86 14.03 45.41 13.94 45 13.83 44.17 13.59 43.36 13.33 42.54 13.1 41.77 12.85 40.99 12.6 40.21 12.38 39.81 12.28 39.42 12.16 39.03 12.08 38.62 11.97 38.22 11.91 37.81 11.83 37.4 11.79 36.98 11.72 36.56 11.68 36.12 11.64 35.69 11.64 35.25 11.63 34.79 11.64 34.3 11.65 33.84 11.7 33.36 11.77 33.36 11.86 33.36 11.96 33.36 12.08 33.38 12.21 33.56 12.19 33.72 12.16 33.9 12.16 34.04 12.16 34.04 12.28 34.06 12.41 33.51 12.51 32.96 12.62 32.4 12.72 31.86 12.85 31.29 12.96 30.75 13.07 30.19 13.2 29.63 13.29 29.63 13.39 29.63 13.5 29.63 13.63 29.65 13.74 29.81 13.74 30 13.77 30.18 13.79 30.32 13.79 29.76 14.05 29.22 14.27 28.65 14.5 28.09 14.71 27.48 14.9 26.9 15.08 26.3 15.25 25.7 15.42 25.07 15.58 24.45 15.72 23.82 15.85 23.18 15.96 22.55 16.06 21.89 16.16 21.25 16.25 20.57 16.31 20.82 16.38 21.04 16.41 21.32 16.45 21.71 16.48 22.26 16.48 23.04 16.48 24.1 16.45 25.5 16.43 25.5 16.43"/>
<polygon class="fox-cls-2" points="159.69 9.5 159.75 9.34 159.83 9.17 159.45 9.04 159.07 8.88 158.68 8.75 158.3 8.63 157.94 8.5 157.56 8.4 157.22 8.32 156.84 8.24 156.46 8.19 156.06 8.12 155.67 8.09 155.28 8.08 154.88 8.06 154.44 8.08 153.99 8.08 153.56 8.12 154.31 8.28 155.07 8.46 155.84 8.62 156.61 8.8 157.37 8.96 158.15 9.13 158.91 9.34 159.69 9.5 159.69 9.5"/>
<polygon class="fox-cls-2" points="156.1 9.68 156.18 9.51 156.28 9.37 155.86 9.21 155.49 9.08 155.11 8.96 154.73 8.83 154.36 8.75 153.98 8.65 153.63 8.6 153.25 8.56 152.86 8.54 152.48 8.53 152.1 8.56 151.71 8.56 151.28 8.63 150.86 8.69 150.43 8.77 149.98 8.87 149.98 8.97 149.98 9.08 150 9.17 150 9.31 150.44 9.27 150.86 9.24 151.28 9.24 151.67 9.22 152.03 9.22 152.43 9.24 152.79 9.24 153.14 9.27 153.84 9.34 154.57 9.43 155.32 9.55 156.1 9.68 156.1 9.68"/>
<polygon class="fox-cls-2" points="16.03 15.33 16.49 15.12 16.96 14.94 17.41 14.78 17.83 14.64 18.25 14.47 18.68 14.34 19.09 14.23 19.51 14.11 19.9 14.01 20.3 13.89 20.74 13.8 21.14 13.73 21.99 13.56 22.89 13.39 22.83 13.26 22.73 13.14 22.6 13.05 22.44 12.98 22.26 12.93 22.04 12.9 21.8 12.9 21.54 12.9 21.27 12.93 20.94 12.98 20.64 13.03 20.28 13.12 19.94 13.18 19.59 13.26 19.22 13.38 18.83 13.5 18.09 13.74 17.32 13.98 16.58 14.23 15.88 14.47 15.22 14.71 14.6 14.91 14.11 15.08 13.68 15.2 13.98 15.2 14.25 15.22 14.56 15.24 14.84 15.24 15.15 15.28 15.44 15.29 15.72 15.3 16.03 15.33 16.03 15.33"/>
<polygon class="fox-cls-2" points="40.28 13 40.11 12.87 39.95 12.74 39.77 12.64 39.55 12.57 39.37 12.48 39.16 12.44 38.99 12.39 38.77 12.36 38.56 12.36 38.36 12.33 38.14 12.32 37.91 12.33 37.45 12.36 36.98 12.36 37.4 12.44 37.81 12.52 38.23 12.6 38.65 12.69 39.06 12.76 39.47 12.84 39.88 12.92 40.28 13 40.28 13"/>
<polygon class="fox-cls-2" points="17.75 13.66 17.98 13.46 18.22 13.29 18.49 13.12 18.74 12.96 19.02 12.82 19.3 12.69 19.59 12.57 19.87 12.46 20.18 12.36 20.49 12.28 20.77 12.2 21.09 12.13 21.41 12.08 21.72 12.02 22.04 11.97 22.36 11.95 22.99 11.89 23.61 11.86 24.25 11.82 24.87 11.83 25.46 11.83 26.05 11.84 26.59 11.84 27.1 11.86 27.05 11.69 27.01 11.58 26.98 11.43 26.95 11.31 26.4 11.31 25.87 11.28 25.32 11.28 24.79 11.25 24.24 11.25 23.7 11.25 23.16 11.25 22.6 11.25 22.9 11.1 23.19 10.98 23.45 10.87 23.74 10.77 24.01 10.67 24.26 10.62 24.52 10.58 24.75 10.54 25.04 10.54 25.25 10.51 25.5 10.51 25.72 10.54 26.2 10.57 26.64 10.64 27.09 10.71 27.52 10.79 27.95 10.87 28.4 10.94 28.61 10.94 28.83 10.97 29.06 10.95 29.27 10.97 29.5 10.94 29.73 10.9 29.94 10.87 30.18 10.79 30.13 10.65 30.09 10.51 30.06 10.38 30.01 10.23 29.58 10.15 29.16 10.07 28.73 9.98 28.33 9.94 27.91 9.91 27.5 9.86 27.1 9.86 26.69 9.84 26.31 9.86 25.91 9.86 25.52 9.9 25.13 9.94 24.73 10.02 24.35 10.07 23.95 10.13 23.58 10.23 23.2 10.32 22.81 10.43 22.44 10.54 22.06 10.7 21.67 10.82 21.3 10.99 20.92 11.14 20.53 11.35 20.15 11.54 19.76 11.71 19.37 11.93 18.99 12.15 18.61 12.38 18.2 12.62 17.82 12.87 17.44 13.14 17.44 13.26 17.44 13.37 17.44 13.43 17.48 13.5 17.52 13.56 17.58 13.56 17.65 13.63 17.75 13.66 17.75 13.66"/>
</g>
</g>
</svg>