<svg xmlns="http://www.w3.org/2000/svg" viewBox="0 0 30.35 30.37">
	<defs>
	  <style>.inst-cls-1{fill:#ff6000;fill-rule:evenodd;}</style>
  </defs>
  <title>inst</title>
	<path class="inst-cls-1" d="M6.51.43s.05-.23.24-.25C11-.13,16.69,0,21.29.18c.82,0,1.75-.11,2.46,0,0,0,.06.24.25.25a3.45,3.45,0,0,1,1,.24,4.7,4.7,0,0,1,1,.25c.17.08.36.41.49.49s.43-.08.49,0c.37.44,1.2,1.27,1.72,2,.1.14.42.36.5.49s-.08.43,0,.5a1.76,1.76,0,0,1,.49.74c0,.09-.08.44,0,.49.31.25.13.5.24,1,.05.21.22.25.25.49.42,3.48,0,6,0,10.35a35.35,35.35,0,0,1-.25,6.65,4.5,4.5,0,0,1-.49,1.72,6.14,6.14,0,0,1-.24.75c-.25.2-.28.5-.5.74s-.41.13-.49.25.08.42,0,.49a8.54,8.54,0,0,1-1.23.74c-.13.07,0,.24-.25.25,0,0-.2,0-.24,0-.34.22-.56.66-.74.74s-.85.15-1.23.24c-2.06.51-6.57.25-9.36.25s-7,.42-9.61-.25a7.79,7.79,0,0,1-1.73-.74c-.18-.12-.34-.38-.5-.49A13.33,13.33,0,0,1,2.07,28c-.17-.17-.09-.57-.25-.74s-.44-.15-.5-.25S1,26.19.84,25.8c0,0-.2-.94-.24-1-.31-.25-.43-1.69-.49-2.71-.22-3.42,0-8.24,0-11.82A20,20,0,0,1,.35,6.1C.47,5.5.82,5,.84,4.61a3.7,3.7,0,0,1,.74-1.23A7.2,7.2,0,0,1,2.81,2.15c.19-.17.29-.61.49-.74s.66-.08,1-.24c.13-.07,0-.23.24-.25S5.38.57,6,.43C6.17.39,6.35.46,6.51.43ZM26.71,5.6c-.08-.07.06-.4,0-.49s-.37-.35-.49-.49-.94-1-1-1-.65-.07-1.23-.25c0,0,0-.22,0-.25s-.64,0-.74,0S23,2.89,23,2.89c-1.49-.24-4.56,0-7.64,0s-7-.18-8.62.25A4.36,4.36,0,0,0,3.55,5.6a2.5,2.5,0,0,0-.25.5c0,.22-.23.19-.24.24-.29,1.18.2,2.62,0,3.95,3-.47,7,.75,8.62-.25.15-.09.32-.41.5-.5a9.24,9.24,0,0,1,4.68-.49c.9.15,1.59,1,3,1.23,2.13.36,4.5-.26,7.39,0C27.19,9,27.4,6.16,26.71,5.6ZM3.06,13c.39,4.25-.93,10.67,1,12.8A4.47,4.47,0,0,0,5.77,27c.25,0,.16.21.25.25a19.26,19.26,0,0,0,4.43.25h4.68c2.32,0,8.31.49,9.12-.5.07-.07.41,0,.49,0s0-.22,0-.25.41.06.49,0a25.91,25.91,0,0,0,1.73-2,8.31,8.31,0,0,0,.25-2.71c.1-3.25-.08-5.77,0-9.11H21.79c.77,1.52.5,4.19.24,5.17a2,2,0,0,1-.24.74,15.42,15.42,0,0,1-1.23,2,7.28,7.28,0,0,1-7.14,2c-.32-.08-.53-.2-.74-.24s-.33,0-.49-.25-.4.07-.5,0-.3-.35-.49-.49a7.46,7.46,0,0,1-2.46-3c-.76-1.79-.64-3.53,0-5.91Zm10.1,1a3.14,3.14,0,0,0-.74,1.48,2.9,2.9,0,1,0,5.67,0A4.58,4.58,0,0,0,17.35,14c-.34-.34-.85-.58-1-.74S14.92,13,15.13,13v.25A2.79,2.79,0,0,0,13.16,14Z"/>
	<path class="inst-cls-1" d="M24.37,5.05a5.63,5.63,0,0,1,0,3.17H21.19V5.05A5.43,5.43,0,0,1,24.37,5.05Z"/>
</svg>