<svg xmlns="http://www.w3.org/2000/svg" viewBox="0 0 413.58 118">
	<defs>
	  <style>.logomain-cls-1{fill:#978f8b;}.logomain-cls-2{fill:#231f20;fill-rule:evenodd;}</style>
  </defs>
  <title>logo-main</title>
<g id="Layer_2" data-name="Layer 2">
	<g id="DESIGN">
	<path class="logomain-cls-1" d="M1.27,102c0-.64-1.27-4.94-1.27-7,0-.38.63-2.41,1-2.41a.57.57,0,0,1,.63.51c0,.25-.12.63-.12.76,0,.5.51,1,.51,1.52-.38.89-.26,1-.26,1l1.14,2.41.25.25c.26,0,.51-.25.76-.25s4.18,4.69,4.69,5.19,2.91,3.3,3,4.44c2,.13,3.8.89,5.83.89.51,0,.76-.13,1.27-.13s1.27.38,2.16.38c1-.51,2.66-1.14,3.93-1.65,0-.13-5.83-5.83-6.59-7.22,0-.26-1.14-2.53-1.52-2.53h-.38C13.56,97,13.94,96.83,12,93.16c-.76-.76-2.79-1.78-2.79-2.54s.89-.63,1.26-.63c1,0,.89,1.9,1.53,1.9.12,0,.12-.51.12-.76s0-1.65-.25-1.65H9.76l-.38.38a4,4,0,0,1-.63-.38H6.21c-.13.25-.26.25-.51.25s-.38-.25-.76-.25c-.89,0-3.3.25-3.3.76,0,.25.13.38.13.63s-.13.64-.5.64S.63,91.38.51,91l.25-.38c0-.25-.13-.38-.13-.76a2.51,2.51,0,0,1,1.78-1.77c.38,0,.38,0,.51.12H7l.25-.12c.38-.13.89.25,1.14.25a2.15,2.15,0,0,0,.89-.13h3.42c2.66,0,5.83,7.61,7.86,7.61,2.54,0,1.4-3.17,3-3.55a4.52,4.52,0,0,1-.64-2.41c0-.38.13-.38.13-.63L22.94,89c0-.13.13-.25.13-.38.12.25-.13-1-.39-1,0-1,.39-2,.39-3s-.51-2.16-.51-3.3c0-.26.12-.51.12-.76a9.87,9.87,0,0,0-.51-3.8V73.26l.26-.51c.25,0-.26-.13-.26-1.77.13,0-.12-.13.26-.51-.13,0,.25-.13-.26-.51,0-.38.51-.51.51-1s-.51-.64-.51-.89.64-.76.64-1.4a5.12,5.12,0,0,0-.38-1c0-.63.13-.89.13-1.27L22.43,64a2.8,2.8,0,0,0,.13-.5c0-.13-.38-.51-.38-.64V60.33c.38-.26.38-1.65.38-2,0-.63-.26-.88-.26-1.65a4.39,4.39,0,0,0,.13-.76c-.38-.12-.38-.76-.38-1.14,0,.51.63-6.21.51-6.21s-.13-1.14-.13-1.27l.13-.38c0-1.9-.13-3.29-.13-5.07,0-.76.13-1.52.76-1.52.89,0,1,1.27,1,2l-.39.38c.13.13.26.5.39.5l.5-.25c.12,0,2.16,1,1.9,1.65.38.5,6.84,5.7,6.84,8,0,.38,0,.76-.38.76-.76,0-3.8-3.55-4.31-4.31,0,.51-3.42-5.32-4.69-5.32-.26,0-.26.25-.26.51a2.51,2.51,0,0,0,.26,1.52c0,.13-.26.76-.26,1,0,.89.13,1.15.51,1.15h.51c2.28,0,4.31,5.57,4.94,5.57.13.38,2.28,2.41,2.54,2.79.63.63.63,1.14,1.39,1.77,0,.51-.25.51-.63.51-1.14,0-7.1-8.75-9-9.25v1.9l.13.26c0,.25-.39.51-.39.51l.26,1.52.13.13c.25-.13.63-.25.63-.13.64,0,4.69,4.95,6.09,6.72,0-.89,2.28,3,3,3,.13,0,.26,0,.26-.25l.12-3c0-1.52.26-2.66.26-4.06,0-1.14-.38-1.9-.38-3,0-.89.12-1.14.12-1.9a2.92,2.92,0,0,0-.12-1.14c0-.12.12-.76.12-.88.13-.51-.25-1.27-.25-1.78a1,1,0,0,1,.25-.63c0-.51-.12-.76-.12-1.14s.12-1,.12-1.65a4,4,0,0,0-.12-1.14l.12-3c.13-.63-.38-3.55-.63-3.17s-.12,1-.76,1c-1.4-.76-2.16-2.16-3-3.55-.76-.51-3.55-2.79-3.55-3.81,0-.25.63-.76,1.14-.76.89,0,2.66,4.18,4.94,5.7,1.39.51.38,1,1.14,1,.38,0,.63-.64.76-.76s-.25-.38-.25-.51c0-.51.12-.89.12-1.39,0-1.4-1-.76-1.65-1.4,0,1-.25-2.41-1.14-2.66a8,8,0,0,0-3.68-.64c-.5.51-3.93-.51-3.93,3.3,0,.13,0,.25.26.5.13,0,.5-.13.76-.13,1.65,0,3.55,3.8,4.94,5.2.51.51,3.93,4.05,3.93,4.44s-.25.63-.51.63C32.45,42.58,28,37,27,36c.13,0-1.9-2.28-2.66-2.28-.12,0-.51,0-.51.13V36.5a1.86,1.86,0,0,1,.26.5c-.26-.76,4.43,3.42,5.58,5.71C30.8,44,34,47,34,47.4a.94.94,0,0,1-.76.25c-1.65,0-4.43-4.05-5.45-5.2C27,41.57,25.35,39,24.21,39c-.39,0-.52.26-1,.26s-.76-.64-.76-1.27.13-1.52.13-2.28c0-.38-.38-.51-.38-.76a1.35,1.35,0,0,1,.26-.64V31.68l.13-.25c0-.63-.13-1.4-.13-1.77,0-2.16,1.39-2.16,3.29-2.16l.25.13a2.82,2.82,0,0,1,.51-.13s.38,0,.5.13l.38-.13h3.93l.25.13c.89,0,2.15-.76,2.79-.76a3.94,3.94,0,0,1,1.4.25l2.15,2.16c.51,2.4,3.8,3.42,3.8,6.21,0,.51-.25,1-.25,1.52s.51,1.14.51,1.78c0,1-.26,1.9-.26,2.79s.26,1.9.26,2.79c0,.38-.13.5-.13.76,0,0,.13,1.14.13,1.4.25-.13-.26.63-.26,1,0,.89.26,1.52.26,2.16.13.12-.26.89-.26,1l.12.51a3.6,3.6,0,0,0-.12,1c0,.13.26,1.14.26,1.26.51,0-.51-.25-.51,3.17-.13,0,.13.25.38.38,0,1.9.13,1.39-.12,2,0,.13.12.51.12.64v6a2.19,2.19,0,0,0-.12.89c0,.26.26.63.26.89-.26,0-.26.25-.26.38a5.66,5.66,0,0,0,.12.63c0,1-.12,1.77-.12,2.66,0,1.27.26,2.66.26,3.8,0,.13-.13,1.4-.13,1.65.13,0-.12,1,.13,1.27,0,1.26-.13,1.9-.13,3.17S42,84,42,85.68c0,.63.13,1-.13,1.39l.13.25c0,1-.13,2.16-.13,3.55,0,.38,0,.64.13.76l.13,3s-.26.12-.26,1.14a3.83,3.83,0,0,1,.26,1c0,.51-.76.89-.76,1.52,0,.38.13.38.13.76,0,.64-.51,1.27-.51,1.9s.25,1,.25,1.52a.4.4,0,0,1-.38.38h-.12a7.21,7.21,0,0,1-2.28,4.56c-1,.76-5.58,8.24-13.69,10-2.66,0-5.07.51-6.09.51-1.52,0-6.09-1-10.77-4.44C4.56,110.14,2.54,108,1,103.68,1,103,1.27,102.54,1.27,102Zm3.29-6c0-2-2.53-1-2.53-4.19,1,0,3.29,2.16,2.78,2.91,0,.13,2.28,1.4,2.53,2.79l2.54,2.28v.5a78.91,78.91,0,0,1,6.59,7.73c.13.51-.51.51-.63.51s-6.09-6.46-6.09-7C8.11,100.26,4.56,95.94,4.56,96.08ZM5.07,91c.25-.38.38-.64.63-.64.89,0,5.2,6.34,7.48,7.86,2.53,3.55,5.82,6.33,8.36,9.76a1,1,0,0,1-.76.51c-.89,0-1.14-.89-1.39-1.52-.76-.76-1.4-1-1.9-2-3.68-1.9-1.77-2.53-7.73-8.49m-2.15,9c.13,0,.25,0,.25-.25-.51-.51-1-1.78-1.65-2H5.7C6.33,103.93,6.21,105.45,7.6,105.45ZM9.38,107c0-.38,0-.51-.38-.51C9,106.85,9,107,9.38,107Zm7.73,3.43a.43.43,0,0,0,.13.25.27.27,0,0,0,.25-.25.43.43,0,0,0-.25-.13Zm6-6.09c.25.51,2.41,3.42,2.78,3.42s1.77-1.77,2.16-1.9c.38.51,1.39-.64,2.79-2a.34.34,0,0,0-.38-.38,1.29,1.29,0,0,0-.51.13,3.59,3.59,0,0,0-1.4-1.39c-.12-.13-4.69-4.69-4.69-6.59.26,0,1.14,0,1.52.51,0,.38,0,.25-.12.51-.13-.13,2.79,1.9,2.79,3.17.89.12,2.41,3.17,3,3.17,1,0,1.27-1,1.27-1.9,0-1.26-6.84-7-6.59-7.73L24.34,92c-.12-.5.51-.63.89-.63,1.39,0,2.4,2.91,3.8,3.68.76.26,2.28,3.8,3.55,3.8.89,0,1-.89,1-1.65,0-2.41-5.58-4.44-6.21-7.86-.64,0-1.78-2.28-3-2.28-.25,0-.51.13-.51.63l.26.64c.25.51-.26,1.52-.26,2s.39.76.39,1c-.52,6.21-2.67,4.05-2.67,6.34,0-.89,6.34,7.35,6.47,7.73l-.38.25c-1.14,0-3-3.67-3.93-4.43-.63-.76-2.78-3.3-3.29-3.3-1,0-1.9.26-2,.76C19.9,100.76,21,102.66,23.07,104.31Zm-1.27,9.38c0,.13,0,.26.13.26s.13-.13.13-.26a.13.13,0,0,0-.25,0ZM29,79c.76.88,3.93,5.32,5.2,5.32l.12-.26V81.12C34,80.48,34.48,80,32.83,80c.26,0-3.42-3-3.68-3.8-.5-1-4.81-5.45-4.81-6.46,0-.13.51-.13.64-.13.51,0,4.18,4.44,4.81,5.32.51.51,3.93,4.31,4.18,4.31s.38-.38.38-.76-.12-.64-.12-.89c0-.89.12-1.52.12-2.41s-.12-1.65-.12-2.41.12-1.39.12-2c0-.13-.38-1.65-.63-1.65s-.12.13-.25.25a43.83,43.83,0,0,1-3.55-3.55,16.46,16.46,0,0,1-3-3.42l-2-2-.26-.13a1,1,0,0,0-.76.64l.26.38c.13.64-.26,1.39-.26,2,0,0,3,1.77,3.8,3.67.38,1,.64.26.64.89.76.5,5.32,4.69,5.32,6,0,.51-.13.76-.64.76-1,0-4.69-5.58-5.83-6.46-2-.89-.89-2.16-2.91-2.79v.51c0,.13,0,.26-.13.26v2.91l-.38.38a21.88,21.88,0,0,1,.52,2.54c0,.25-.13,1.14-.13,1.39a59.08,59.08,0,0,1,4.56,5.58Zm2.79,8.87c.63.89,1.27,1.14,1.9,2,.89.38.89-1.9.89-2.53a1.4,1.4,0,0,0-.38-.89c0-.38.12-.51.12-.76s-.25-.76-.63-.76l-.51.38c-1.14,0-7.22-8.49-8.36-8.49-.12-.25-1,2-1,3,0,.13.26.25.26.25h1.27A80.67,80.67,0,0,0,31.81,87.83Zm1.9-19a18.14,18.14,0,0,0,.51-3.67c0-2.15-1.65-.51-1.65-1.78h-.13c-.63,0-3.42-3.93-3.3-3.67-.38-.25-4.81-5.2-4.94-5.2,0,.64-.13.88-.13,1.65s-.26,2.28.89,2.28c0,0,5.19,5.45,5.19,6A15.65,15.65,0,0,1,33.71,68.82Zm-9.63-9a.43.43,0,0,0,.13.25c.12,0,.12-.12.12-.25a.12.12,0,0,0-.12-.12Zm3,28.27c1.65.63,5.45,6.71,6.46,6.71.12,0,.63-.38.63-.51V90.87c0-.12-.39.13-.63.13-1.65,0-2.54-3.17-3.17-3.3-2.16-1.14-3.93-6.08-5.71-6.08-.13,0-.5,0-.5.12v3.68C25.73,85.43,26.36,87.58,27.13,88.09Zm6.46-57a1.34,1.34,0,0,0,.63-.25,2.4,2.4,0,0,0-.76-1.9c-.76,0-.89-.13-1.14.38C32.45,29.28,33.08,30.92,33.59,31ZM35,56.14a.12.12,0,0,0-.13.13l.13.12a.12.12,0,0,0,.13-.12C35.11,56.14,35.11,56.14,35,56.14Zm0,14.58a.45.45,0,0,0-.13.26l.13.13a.12.12,0,0,0,.13-.13C35.11,70.85,35.11,70.72,35,70.72Zm.89-27.63H36L35.87,43Zm1.4,9.38a.12.12,0,0,0,.12.13c.13,0,.13,0,.13-.13h-.25Zm.5,6.84c0,.13,0,.25.13.25s.12-.12.12-.25a.12.12,0,0,0-.12-.12A.12.12,0,0,0,37.77,59.31Zm.64,14.45v-.38l-.26.12Z"/>
<path class="logomain-cls-1" d="M60.71,101.65a5.92,5.92,0,0,1,.38-1.14l-.38.26c-.63-.38-1.27-3.8-1.27-3.93,0-.51.13-.76.13-1.27s-.51-1.52-.51-2.28l.25-.38c0-.51-.38-1.14-.38-1.65l.13-.25V87.45l-.26-.25c0-.13.13-1,.13-1.52l.13-.12c0-.89-.51-1.9-.51-2.79s.26-1.65.26-2.53-.26-2.15-.26-3.42a1.39,1.39,0,0,1,.38-1.14c0-.25-.13-.89-.38-1V72.88l-.12-2.79a2.18,2.18,0,0,1-.12-.89c0-1,.25-2.16.25-3.29l-.12-.64c0-.63.38-1,.38-1.52s.13-1.4-.38-1.9V59.31c-.12-.12-.12-.26-.12-.63s.25-.51.25-.89c0-1.65-.25-3.29-.25-4.69,0-.63.25-1.52.25-2.28l-.12-.38s.12-.76.12-1a27.85,27.85,0,0,0-.25-3.55l.25-.76a.45.45,0,0,0-.25-.38c0-.38.12-.38.12-.76,0-.63-.12-.89-.12-1.65s.12-1.14.12-1.65a9.8,9.8,0,0,0-.5-2.79l-.13-.13c.13-.12.63-.63.63-.76,0-1.14-.12-1.39-.12-2.28,0-.38,0-.89.25-.89a3.41,3.41,0,0,1-.76-2.54c0-.76.38-2.54,1.52-3,.12,0,4.56-.26,5.45-.89h3.29c.26.25.38.25.76.25s.64-.25,1.14-.25c.89,0,4.31,1,4.31,2.28v.25a8.56,8.56,0,0,1,2.41,3c.76.76,1.65,0,1.65,2.53,0,2.16-.26,4.69-.26,6.84a23.83,23.83,0,0,0,.38,2.91,10.52,10.52,0,0,1-.25,2.92l-.13,5.07c-.25,1.52.51,2.41.51,3.8.12,0-.13.38-.25.64V61.6a1.58,1.58,0,0,0-.13.76,2.14,2.14,0,0,0,.13.89l-.13.51c0,.76.13,1,.13,1.52,0,.13-.13.38-.13.51s.13.38.13.51c0,.51-.26,1.14-.26,1.65,0,.88.51,2.28.51,3.29,0,1.52-.25,2.66-.38,4.57,0,.89.38,1.52.38,2.16s-.38,1.52-.38,2.28.38,1.27.38,2S78.2,84,78.2,84.79c0,.26.13.26.13.38,0,.51-.13.63-.13,1.14s.38.89.38,1.39.12.76-.25.89A9.52,9.52,0,0,0,78.58,90l.25.12c-.13.13-.13.51-.13.64,0,.76,1.52,6.08,4.82,6.08s9-2.15,9.38-6.21c0-.25-.13-.76-.13-1.14,0-1,.63-4.69.63-5.07s-.25-.38-.25-.76c0-1.52.39-2.91.25-4.44l-.25-.13c0-.38.25-1.77.25-2.15s-.25-.89-.25-1.52a11.81,11.81,0,0,0,.39-1.14c.12-.51,0-.51-.39-.76l.25-.63c.26-.5-.25-1.9-.25-3.17,0-.13.25-2.16.25-2.28s.26-.51-.25-.89c0-1,.25-2,.25-2.91,0-1.14-.38-2.53-.38-3.67a3.94,3.94,0,0,0,.51-1.14A3.67,3.67,0,0,0,93,58c0-.89.38-1.9.38-2.66,0-.38-.25-.5-.25-.88,0-.76.39-1.4.39-2.28,0-.63-.39-1.39-.39-2.16l.25-.38c.26,0-.25-.38-.25-.76-.12,0,.13-.51.25-.76a29.68,29.68,0,0,0-.38-3.3c0-.63.38-1,.38-1.65,0-1-.5-2.15-.5-3.29,0,0,.38-4.06.5-4.18.13-1.52-.5-2.91-.5-4.19,0-.76.12-1.39.12-2l-.12-.64c.76-1.52,2.79-1.77,5.07-1.77.13,0,.13.12.26.12s2.54-.12,3.17-.12l.51.12c1.39,0,2-.12,3.3-.12-.13-.13,4.94,2.16,5.32,3.55-.25,1.14.51,1.9,1.14,2.66a7.07,7.07,0,0,1,.76,3.93c0,.38-.12.51-.12.89a5.51,5.51,0,0,0,.12.63,1.74,1.74,0,0,1-.12.64,1.24,1.24,0,0,0,.26.51l-.13.38a8.52,8.52,0,0,1,.38,1.52,13.75,13.75,0,0,1-.51,1.9c.26,0,.63.63.63,1l-.38.38.25.38v6.09a5.65,5.65,0,0,1,.13,1.52c0,1.27-.38,2.66-.38,4.06,0,2,.25,3.8.25,5.83,0,1.14-.25,2.41-.25,3.8,0,.76.38,1.65.38,2.41s-.38,1.52-.38,2.16.25.76.25,1.14-.25.89-.25,1.27,0,.76.25.89v3.3l-.25.38v1.9c-.13.13-.13.64-.13.89a10.51,10.51,0,0,0,.38,3.43.25.25,0,0,0-.25.25c0,.38.25.38.25.51,0,.38-.13.26-.25.38,0,.89.25,1.65.25,2.28,0,1-.51,4.94-1,5.32,0,.13.13.76.13.89s0,.25-.26.89a2.83,2.83,0,0,0,.13.51c0,1.65-1.27,3.3-1.78,5.2-1.14,4.82-7,10-10.14,11.79a21.11,21.11,0,0,1-3.93,1.77L91,116l-2.15.13c0,.38-.26.38-.51.38h-.64a1,1,0,0,0-.63.25H86.7c-1,0-2,.38-3,.38l-.12-.13c-.38,0-.51.13-.89.13a15.93,15.93,0,0,1-6.72-1.27c-1-1.52-4.56-.89-6.72-3-3.17-2.16-.13.76-6.84-7.35C62.1,104.44,60.71,102.28,60.71,101.65ZM59.95,38.4c-.12,0-.12.12-.12.25a.12.12,0,0,0,.12.13V38.4Zm-.12,18.12.12.12a.12.12,0,0,0,.13-.12c0-.13,0-.13-.13-.13A.12.12,0,0,0,59.82,56.53Zm0,33.08.12.13a.12.12,0,0,0,.13-.13c0-.13,0-.13-.13-.13A.12.12,0,0,0,59.82,89.61Zm11-44.11c.38-.13.63-3.43.63-4.06a2.38,2.38,0,0,0-.39-1l.13-.13c-.13-.25-.13-.76-.25-.89,0-.38.12-.38.12-.64,0-.51-.25-.89-.25-1.39a12.58,12.58,0,0,0,.25-1.52c0-.12,0-.38-.25-.38s-.51.26-.89.26c-.76-.38-5.07-4.69-5.2-5.71,0-.25.12-1.14-.38-1.14-.13,0-.13.13-.38.13a2.73,2.73,0,0,1-.76-.13c-.76,0-1.4.13-1.4.76,0,2.15,2.66,2.79,3,4.69.89,0,5.71,5.07,5.71,6.34,0,.51,0,.76-.25.76-1.14,0-4.18-4.18-4.82-4.94,0,0-2.79-4.82-5.58-4.82a20.48,20.48,0,0,0,.25,3.93h.51c2.41,0,2.53,1.65,4.05,3.29.12.38,1.27.89,1.27,1a.47.47,0,0,1-.13.38c-1.27-.13,1.65.26,1.9,2.28Zm0,15.84c.5-.64.38-1.9.38-2.79A21.88,21.88,0,0,0,71.1,56c0-.64.39-1,.39-1.52s-.26-.76-.26-1.27c0-.26.26-.64.26-1,0-1.27-.39-2.53-.39-3.8,0-.13.13-.89.13-1.14S71,46.51,71,46.13c-.26,0-.63.25-1,.25l-2.92-3c-.38-.63-1-.76-1.52-1.52-3.29-4.06-2.16-3-5.07-5.2-.26,0-.38.51-.38.63s.12,1,.12,1.14c.13-.25-.12.89-.12,1.65,0,.38-.13,1,.38,1.14l.25-.13c2-.25.76.89,2.66,1.27-.63-.51,6.46,6.34,6.46,7.73,0,.51,0,.76-.38.76-.76,0-7.73-8.24-8.75-9.13a6.19,6.19,0,0,0-.63,1.65c0,.76.38.63.38,1l-.38.63c2.79,1.9,2.41,1.39,3.93,3.93.25.38,2.54,2.54,2.54,2.54.25.63,3.92,3.55,3.92,4.94a.46.46,0,0,1-.5.51c-1,0-3.93-4.18-4.82-5.32C65,51.33,61.22,47,60.2,47c-.25,0-.25.76-.25.76,0,4.18.89,1.52,4.56,7.1.38.13,1.4,1,1.4,1.27C67,57.41,70.09,61.34,70.85,61.34Zm-4.44,6.21C68.19,70,70.72,72.37,71,72.12s.25-1.9.51-1.9V68.06a.51.51,0,0,1-.26-.51c0-.12.26-.38.26-.64l-.26-.38V62.48l-.13-.38c-.5,0-.25.51-.76.51s-2.66-2.41-3-2.79c-.89-1.27-4.57-5.7-5.71-6-.76-.13-1.52,1.52-1.52,2,0,1.27,1.39.64,2.15,1.65.63,0,1.39,2.28,2.16,2.41,2,0-2.92-1.27,6.21,7,0,.51,0,1.14-.51,1.14s-2.54-3.3-6.33-7a31.88,31.88,0,0,0-3.17-3.55c-.5,0-.63.63-.63,1.14,0,.13.25.63.25.76,0,.76-.12,1.26-.12,2.15C62,62,65.4,66.16,66.41,67.55ZM63.75,80.23c1.9,2.28,4.31,4.57,6.21,6.72.38.38.38.76.63.76s.89,0,.89-.25v-3.8c-.26-.13-.39-.64-.39-.76.26-.38.51-.51.51-1a20,20,0,0,1-.38-2c0-.25.26-.76.26-1.14,0-.13,0-.38-.26-.38,0-2.28.26-2.66.26-3.68,0-.38,0-1.52-.51-1.52-.26.13-.38.26-.63.26-1.14,0-6.59-7.1-6.46-6.84,0-.13-3.3-3.8-3.93-3.8,0,.76.51.38.51.76,0,.76-.38,1.77-.38,2.91,0,.38,3.17,2,3.42,2.41,1.14,1.65,3.42,3.93,3.67,4.57s3.42,3.29,3.68,4.18c0,.25-.39.89-.76.89-.76-2.16-4.69-3.93-4.56-4.95l-1.77-1.77-2.28-3a2.55,2.55,0,0,0-.76-.25c-.63-.25-.76,1.4-.76,3.29,0,1.27,2.53,1.14,4.94,4.69.64.89,6,4.56,6,7.1,0,.13-.26.13-.39.13-4.18-1.52-5.07-7.23-7.22-7.23h-.51l.13-.51a15.23,15.23,0,0,0-1.4-1.39c-.76,0-1.27.25-1.27.76s.26.63.26,1-.51.64-.51,1.27C59.95,77.06,63,79.47,63.75,80.23Zm22.18,29.53.38-.38.25.13.38-.13a2.86,2.86,0,0,1,.51.13,16.68,16.68,0,0,1,3.8-1l.76-.76c-1-.13-4.44-5.07-5.58-6.08-.64-.64-1.65-.89-1.65-2,0-.12,0-.25.12-.25.51,0,2.79,2.16,3.17,2.79l2.15,2.15c0,.51,2.28,2.28,2.28,3.29a.76.76,0,0,1-.13.51c.76-.38,1.65-.38,2.28-.89.76-.26.51-1.52,1-2a.54.54,0,0,0,.51.51c1.26-1,2.54-1.65,3.42-2.53,2.28-2.79,4.31-5.71,4.56-8,.51.89,1.4-4.57,1.4-8.37,0-.38,0-.51-.25-.76h-.13c-1.52,0-5.58-7.35-9.26-10.14-.76,0-.88,2.66-.88,3.29,0,.38.13,1,.76,1l.13-.13c-.13-.25.64.13,1,.64.89.89,6.46,5.32,6.46,8.11-.51,0-6.59-5.32-7.48-8H95.7a3.49,3.49,0,0,0-.63,2.28c0,2.41.88,1.27,2,2.66a40.41,40.41,0,0,0,6.47,7.48c0,.51.13.76-.38.76-.76,0-3.68-3.93-4.43-4.56-.38-.38-1.9-3-2.92-3.42-1,1.27-1,2.54-1.14,4.05-.13,1-1,2.16-1,2.92,0,1,6.59,4.18,6.59,7.6a.53.53,0,0,1-.5.51c-.26,0-2.41-2.79-3.43-3.67v-.25C95.06,95.94,93.54,94,93,94a2.24,2.24,0,0,0-1.65,1.52c0,.63,2.66,2.66,3.17,3.55.25.26,3,2.41,3.29,3.67,0,.51-.25.51-.38.51-1,0-5.7-7.1-7-7.1-.13,0-1.65,1.14-2.29,1.52s-3,.51-3.55.76h-3.8c-.13,0-.13.25-.13.38,0,.38.38.38.38.63s0,.12-.12.38a22.69,22.69,0,0,0,1.77,1.78c1.52.88,2.28,2.53,3.55,3.8l1.9,1.9a1.07,1.07,0,0,1,.25.89c0,.13,0,.51-.25.51-.63,0-7.86-8.62-9-9.76-.76-.76-1.27-1.77-2.15-1.77-2.66,0-4.19-5.33-4.95-5.83C72,91.13,72,89,71.23,89c-.13.13-.13.51-.38.51a4,4,0,0,1-2.41-2.28l-2.79-2.79a.57.57,0,0,1-.38-.51.43.43,0,0,1,.12-.25c-.12-.26-4.19-4.57-4.82-4.57-.12,0-.12,1.27-.5,1.65l.38,2.41c1.78.25,3.68,2.79,4.56,3.67,3.3,3.29,6.08,7.22,8.74,9.38a.48.48,0,0,1-.12.38A3.36,3.36,0,0,1,74.91,98l-.13.26c.38,0,3.17,3,5.71,5.7C80.36,105.33,84.79,109.13,85.93,109.76Zm-2.79,0,.13-.76a49.09,49.09,0,0,0-7.1-7.86c-2.53-3-9.25-9.63-9.13-10.52,0-.38-5.32-5.83-6-5.83-.38,0-.63,0-.63.26,0,2.28.76,3.55,2.66,5.07h.12c.38,0,1.52,2.16,1.65,2.41s.76.26,1,.38c.76.76,1.77,3.17,2.41,3.17a18.59,18.59,0,0,1,2,2.15L70.6,98c1.14,2.54,4.95,5.33,4.95,5.71l-.13.38C76.43,106.09,80,109.76,83.15,109.76ZM61.22,53.61v-.38c-.12,0-.5,0-.64.12C60.71,53.61,61.09,53.61,61.22,53.61Zm-.64,36.5.13.13a.44.44,0,0,0,.25-.13c0-.12-.13-.12-.25-.12A.13.13,0,0,0,60.58,90.11Zm5.33,7.61c.13.25,1,2.41,1.9,3,1,1.52,3.29,2.79,3.93,4.43a6.56,6.56,0,0,0,6.34,4.06c.13,0,.64,0,.64-.38,0-2.16-4.43-4.69-4.18-4.56-.13.13-5.33-6.34-6.34-7.1-.38-.38-1-.89-1-.89h-.39v-.5c-.76-.38-2-2-1.9-2.41-.38-.64-2.53-2.79-3.17-2.92s-.38,1.14-.63,1.78a.69.69,0,0,1,.38.63v.88c0,.76.89,1.4.89,2.53.38,0,.25-.5.51-.5A6.51,6.51,0,0,1,65.91,97.72Zm-3.3-1.27.13.13a.13.13,0,0,0,.13-.13c0-.13,0-.13-.13-.13A.13.13,0,0,0,62.61,96.45Zm.51.38-.26-.12Zm8.62,9.76v-.38c-3.29-2.91-5.83-6.21-8.49-9.12l-.12.13c-.89,1,3.67,5.7,3.55,6.09C66.67,103.17,70.34,106.59,71.74,106.59ZM70.6,34.34c.38,0,.38-.26.5-.63,0-1.77.51-4.94-1.9-4.94-.76,0-1.39.13-2,.13A3.91,3.91,0,0,1,66,28.77C66,28.89,68.82,34.34,70.6,34.34ZM67.43,69.45c0,.13,0,.26.13.26s.13-.13.13-.26a.13.13,0,1,0-.25,0Zm4.18,40.69c-.12,0-.12.13-.12.26a.12.12,0,0,0,.12.13v-.38Zm.13-42.46c.26,0,.26,0,.26-.13A.44.44,0,0,0,71.74,67.68Zm.13.38a.12.12,0,0,0,.13.13.12.12,0,0,0,.12-.13c0-.13,0-.13-.12-.13S71.86,67.93,71.86,68.06Zm.64,11.53.12.13a.13.13,0,0,0,.13-.13c0-.12,0-.12-.13-.12A.12.12,0,0,0,72.5,79.59Zm.12,29.16c-.12,0-.12,0-.12.12a.12.12,0,0,0,.12.13v-.25Zm.13,1.52a.45.45,0,0,0,.12.26.27.27,0,0,0,.26-.26.44.44,0,0,0-.26-.13Zm0,1.9.12.13a.44.44,0,0,0,.26-.13c0-.13-.13-.13-.26-.13A.12.12,0,0,0,72.75,112.17ZM73,60.84a.13.13,0,0,0,.26,0c0-.13,0-.13-.13-.13S73,60.71,73,60.84Zm.51,51.33a.13.13,0,1,0,.25,0c0-.13,0-.13-.12-.13S73.51,112,73.51,112.17Zm.13-1.52a.45.45,0,0,0,.12.26c.13,0,.13-.13.13-.26a.12.12,0,0,0-.13-.12Zm.12-52.73a.45.45,0,0,0,.13.26.27.27,0,0,0,.25-.26.42.42,0,0,0-.25-.13Zm.64,31.82v-.25h-.26A.28.28,0,0,0,74.4,89.74Zm0,1.65a.44.44,0,0,0,.13.26.27.27,0,0,0,.25-.26.42.42,0,0,0-.25-.13Zm0,23.2a.42.42,0,0,0,.13.25.26.26,0,0,0,.25-.25.42.42,0,0,0-.25-.13Zm.63-53c0-.13,0-.51-.12-.51s-.25.13-.38.25C74.78,61.47,74.91,61.6,75,61.6Zm-.12,11c-.25-.25-.38-.13-.38-.13S74.78,72.62,74.91,72.62Zm.25-.89a.13.13,0,0,0-.13.13l.13.12a.12.12,0,0,0,.12-.12C75.29,71.74,75.29,71.74,75.16,71.74ZM75,90.11h.25L75,90Zm.25-8.74.13.12a.12.12,0,0,0,.13-.12c0-.13,0-.13-.13-.13A.13.13,0,0,0,75.29,81.37Zm.64,7.22c-.13,0-.13.13-.13.25a.12.12,0,0,0,.13.13V88.6Zm0-3.55a.12.12,0,0,0,.13.12c.13,0,.13,0,.13-.12h-.25Zm0,6.59H76l-.13-.38ZM81,113.82h.5l-.5-.13Zm2.15-3.29a.12.12,0,0,0,.13.12c.13,0,.26,0,.26-.12h-.38Zm3.17.12a.45.45,0,0,0,.13.26c.13,0,.13-.13.13-.26a.12.12,0,0,0-.13-.12Zm.76,3.42a.44.44,0,0,0,.12.25.27.27,0,0,0,.26-.25.45.45,0,0,0-.26-.13Zm.25,1.65a.13.13,0,1,0,.26,0c0-.12,0-.12-.13-.12S87.33,115.59,87.33,115.72Zm.26-.38a.13.13,0,0,0,.13.13c.12,0,.25,0,.25-.13h-.38ZM88.72,98c1.39.51,1,1.4,1.52,1.65.76.51.89.26,1.65,1.65,0,0,3.3,2.91,3.3,3.93,0,.25-.13.25-.38.25-.63-.89-1.78-1-2.28-2-.26-.38-4.06-3.55-4.06-5.07C88.47,98.23,88.47,98,88.72,98Zm0,17.62h.13l-.13-.12Zm.38-3.42-.25-.13Zm.13,2.28a.45.45,0,0,0,.13.26.27.27,0,0,0,.25-.26.44.44,0,0,0-.25-.13Zm.38-2.66c.13,0-.13-.25-.25-.25C89.36,111.79,89.48,111.66,89.61,111.79Zm.26,1.52c0-.25,0-.25-.26-.25A.28.28,0,0,0,89.86,113.31Zm3.55-.76a.13.13,0,0,0,.13.13c.12,0,.12,0,.12-.13h-.26Zm.51-2.91a.13.13,0,0,0,.26,0c0-.13,0-.13-.13-.13S93.92,109.51,93.92,109.64Zm.13,3.8h.51l-.26-.13Zm11.16-56c.13,0,.38,0,.38-.25,0-.89-.38-1.39-.38-2.15,0-.51.13-.63.13-1.14-2,0-6.34-6.08-7.48-7.48,0-1.39-2.54-1.9-2.54-3.67,0-.13,0-.38.38-.38.76.25,2.91,3.17,3.55,3.8,1.77,1.65,2.54,3.29,3.8,4.18,0,1,1.39.64,2,1.65a3.76,3.76,0,0,0,.51-2.28c0-1.14-.13-.89-7.48-8.24.26.76-1.14-2.79-2.66-2.79a.57.57,0,0,0-.38.38v.38c0,1.27-.51,2.28-.51,3.29,0,.5.13.76.13,1.14a2.58,2.58,0,0,1-.13.64c0,1,.25,1.9.25,2.79.38.89.89.38,1.4.76,1.65,1.14,2.41,2.79,3.93,4.18-.76,1,1.78.38,1.78,2.66l.38-.12c.25-.13-.63-.51,1.78,1.9l.38.38c.13,0,.26-.13.38-.13C104.82,57.16,104.82,57.41,105.2,57.41ZM98.74,40.3c1.65,1.14,6.72,8,6.84,8a1.29,1.29,0,0,0,.13-.51,3.55,3.55,0,0,0-.13-1,.45.45,0,0,1,.25-.38,9.33,9.33,0,0,1-.25-2.15c0-.26.13-1,.13-1.14s-.13-1-.13-1.52.13-.63.13-1.52c-.38-.26.12-2.54-.89-2.54-.12,0-.25.13-.38.13a22.42,22.42,0,0,1-3.29-3.55c-1-1.52-3.8-2.66-3.8-5.07,0-.13.12-.13.25-.13,1.65,0,2.66,3.55,4.69,4.56.38-.89,1.14,3.17,3,3.17l.25-.13a18.61,18.61,0,0,1-.25-3.67c0-.64-.13-2.16.25-2.29a2.18,2.18,0,0,0-2-2c-.13,0-.51.26-.51.38,0,.38,1.52,1.9,1.77,2.41,0,.25,0,.88-.38.88-1.14-.38-2.66-1.77-2.66-3,0-.25.12-.25.12-.64-.51,0-1,.38-1.52.38-.76,0-1.65-.38-2.41-.38-1.14,0-2.53-.38-3.29,1.14a2.83,2.83,0,0,1,.12,1c.89,1,5.58,4.43,5.58,6h.51c0,2,3.17,2.91,3.17,4.81,0,.13,0,.38-.13.38-1,0-6.34-6.72-7.48-7.86a1.91,1.91,0,0,0-1.26-.51s-.51,2.28-.51,2.79A38.18,38.18,0,0,1,98.74,40.3ZM98.1,76.68c1.14,1.27,6.59,8,7.61,8V82.26a.66.66,0,0,0,.25-.51c0-.63-.25-.76-.13-1l-.12-.13c-.13-1.52.12-3.43.12-5.32,0-.64-.63-.76-.63-1.65a7.06,7.06,0,0,1,.51-1.52V69.33c0-.12.12-1.14.12-1.39,0-1.4-.25-2.66-.25-3.93,0-.76.13-.88.13-1.39.12,0-.13-.25-.13-1l.13-.25c.12,0-.13-.38-.13-1.14s.25-1.39.25-2c0-.13-.12-.13-.5-.13s-.51.51-.89.51-.88-.38-.88-.76L101.78,56c-.38,0-3.55-3.8-3.55-3.93l-1.65-1.65c0-.38-.26-1.14-.76-1.14a.91.91,0,0,0-.76.51c0,.26.13.64.13,1s-.38.76-.38,1.14.38.63.38,1.14a.6.6,0,0,1-.38.63c0,.13.26.13.38.13s.38-.13.63-.25c1.78,0,3.3,2.79,4.44,4.18a59.24,59.24,0,0,0,4.95,5.83c0,.51-.13.51-.5.51s-4.82-4.82-5.45-6c-.26-.51-2.79-3.68-3.93-3.68-.12-.13-.63.76-.63.88a2.76,2.76,0,0,0,.12.76s.13-.12-.12.51a3.33,3.33,0,0,0,.63,2.41c-.38.13-.51.89-.51,1.52,0,1.39.51,2.91.51,3.8s-.51,1.27-.51,1.9c0,1.77,2.41,5.19,6,7.1v.25c0,1.9,4.56,4.82,4.56,6.21,0,.51-.26.51-.63.51s-4.44-4.69-5.07-5.7c-.89-1-3.68-3.29-3.93-4.43a3.25,3.25,0,0,0-.89,2.28,1.21,1.21,0,0,0,.26.89l-.26.38C94.81,74.65,97.6,75.79,98.1,76.68Zm-3.17-6.34a.13.13,0,0,0,.26,0c0-.13,0-.13-.13-.13S94.93,70.22,94.93,70.34Zm.13,41.83.13-.38Zm.25-21.67c0-.25.38-.25.5-.25-.25,0,2.79,2,3.17,3.29l2.16,2.16c.26,1.4,1.27,1.14,1.27,2.54-.63,0-1.27-.26-1.27-1C100.38,96.45,95.31,92.78,95.31,90.5Zm0,16.48.13.13a.45.45,0,0,0,.26-.13c0-.12-.13-.12-.26-.12A.12.12,0,0,0,95.31,107Zm.5-48.42c1.4,0,2.41,2.54,3.81,3.93.76.76,5.58,5.58,5.58,6.84a.51.51,0,0,1-.5.26c-1,0-.38,0-3.93-4.69-.13-.25-.51-.13-.89-.51-1.4-1.78-3.55-3.42-4.44-5.7C95.44,58.55,95.7,58.55,95.82,58.55Zm-.25,16.86a.43.43,0,0,0-.13.25l.13.13a.12.12,0,0,0,.13-.13C95.7,75.54,95.7,75.41,95.57,75.41Zm.64-11.28c1.26,0,4.31,4.56,5.83,6.59.64.26,2.79,2.54,2.79,3.3,0,.26-.12.63-.25.63-.51,0-2.66-2.79-4.95-5.07-.51-.51-3.81-4.18-3.81-4.94C95.82,64.38,95.95,64.13,96.2,64.13Zm.25,44.62c0,.12.13-.64-.51-.64C95.95,108.37,96.2,108.5,96.45,108.75Zm0,.12.13.13a.42.42,0,0,0,.25-.13c0-.12-.12-.12-.25-.12A.12.12,0,0,0,96.45,108.88Zm.63.63c-.12,0-.12.13-.12.25a.12.12,0,0,0,.12.13v-.38Zm.13.38a.12.12,0,0,0,.13.13.12.12,0,0,0,.12-.13c0-.13,0-.13-.12-.13S97.22,109.76,97.22,109.89ZM98,110s0-.51-.38-.51C97.6,109.76,97.85,109.89,98,110Zm-.25-5.33c0,.13,0,.26.13.26s.12-.12.12-.26a.12.12,0,1,0-.25,0Zm3.29,5.58c0,.13,0,.26.13.26s.13-.13.13-.26a.13.13,0,0,0-.26,0Zm0,1c0,.12,0,.25.13.25s.13-.13.13-.25a.13.13,0,1,0-.26,0Zm.13-2.28a.44.44,0,0,0,.13.25c.13,0,.13-.13.13-.25a.12.12,0,0,0-.13-.13Zm2.79-5.2a.12.12,0,0,0,.13.13c.12,0,.12,0,.12-.13h-.25Zm.64-5.83c.25,0,.63-.12.63-.5h-.26c-.25,0-.51,0-.51.25S104.44,97.85,104.57,98Zm0-.88c.13,0,.13-.26.13-.38h-.13Zm1.39-5.2c0,.13,0,.26.13.26s.12-.13.12-.26a.12.12,0,0,0-.12-.12A.12.12,0,0,0,106,91.89Zm.76,3.93H107c-.13-.26-.25-.13-.25-.13Zm.38-30.93c0,.13,0,.25.13.25s.13-.13.13-.25a.13.13,0,0,0-.26,0Zm.38,1.4h.26l-.26-.26Zm.38-21a.45.45,0,0,0,.13.26c.12,0,.12-.13.12-.26a.12.12,0,0,0-.12-.13Zm.51,23.32v.13l.51-.25c0-.38-.76-.25-.89-.25S108.37,68.44,108.37,68.57Zm.26,2.92.26-.13c0-.25-.64-.13-.51-.13Zm-.13-1.9c-.13,0-.13,0-.13.13a.12.12,0,0,0,.13.13v-.26Zm.38,6.84H109l-.12-.13Z"/>
<path class="logomain-cls-1" d="M129.41,106.59a9.47,9.47,0,0,1,.38-3.29c.64-.26.64,1.78.64,1.9,2.91.25,2.78,3.68,6,3.68.63,0,1.27.13,1.65-.51-.76-.38-1.27-1.65-1.39-1.78.38.76-4.44-6-5.58-6s-.25,2.28-1.27,2.28l-.38-.76V96.83c-.13,0-.5-.51-.5-.63l.38-.38c0-.51-.13-.76-.13-1.14s.13-.26.13-.64-.38-1.14-.38-1.65c0-.25.25-.63.25-.76v-3.3c-.25-.38-.38-.51-.38-.89s.51-1,.51-1.52c0-.88-.13-1.78-.13-2.54s.13-1.39.13-2-.13-1.14-.13-1.78c0-1.39.13-2.66.13-3.93,0-.76-.13-1.39-.13-2.16s.26-1.9.26-2.66c-.13-1.4-.5-3.68-.5-5.45,0-1,.38-1.9.38-3.17s-.38-2.66-.38-3.93a1.72,1.72,0,0,1,.25-1.14V54c-.25-.13-.25-.38-.25-.76,0-.76.25-1.52.25-2.28,0-.51-.25-1-.25-1.4a8.32,8.32,0,0,0,.25-.89c0-3.3-.38-6.59-.38-10.14,0-.89.38-1.78.38-2.91s-.38-2.79-.38-4.06c0-.51,1-3.55,1.65-3.55,4.69,0,11.53-.25,13.18-.25l12.17.13c2.79,0,8.49.51,11.41,2.79,12.17,6.08,14.45,15.34,14.45,21.42,0,1.52-.64,6.72-2.66,9.76-1,1.65-5.2,5.45-5.2,6.84s3.55,3.42,4.18,4.43c3.17,4.05,5.33,12.68,5.07,12.68v.13a1,1,0,0,0,.12.38V90.5c-.5,1.14-.25,2.28-.38,3.42-.13,1.65-.89,2.91-1.52,4.56C179.6,103,178.34,106,173,110.4c-1.52,1.26-3.68,2.15-7.35,3.93-2.53,1.15-4.43,1.27-7.22,1.52,1.27.13-4.94.25-11,.25a2.19,2.19,0,0,1-.89.12c-.51,0-1-.12-1.39-.12s-.76.12-1,.12c-1.14,0-2-.12-3-.12-.76,0-2.16.12-2.53.12h-1.14c-.38,0-.76.38-1.26.38-.51-.76-6-3.8-6.59-5.71l-.13-.51v-3.8Zm11.53-28.65h.12c.76-3.17-.76-4.56,3.3-4.56h2.92c1,0,1.77-.13,1.77-.51-2.15-2.66-3.8-3.8-7.48-8.74a.58.58,0,0,1,.51-.63c1.14,0,.38,1.27,2,2,.63.76,5.07,7.73,7.35,7.73.38,0,2,0,2-.38,0-1.26-2-2.53-2.66-3.17,0-1.27-5.58-5.33-4.95-6.21h.63a59.28,59.28,0,0,1,8,9,5.3,5.3,0,0,0,5.07,2.41h.25c-1-2-3.67-4.31-5.32-6.21.25.12-3.67-6.09-5.7-6.09h-6.59a1.64,1.64,0,0,0-.89-.13c-.26,0-.51.13-.89.13-.76,0-2.66-2.91-3.42-3.67-2.28-1.14-4.19-6.09-5.83-6.09-.63,0-1.14,1.52-1.14,2.16,0,1.52,11.53,10.77,15.09,17.37,0,.25-.26.25-.38.25A2.61,2.61,0,0,1,143,71.36c-1.14-1.14-10-13.57-12.17-13.57-.38,0-.88,2-.88,3.3a11.33,11.33,0,0,0,.63,1.65l-.12.26c0,1.14-.13,2.28-.13,3.42s2.91,2,4.18,4.44Zm-7.74-41.32a19.48,19.48,0,0,0,4.44,5.2c.76,1.14,1.65,2.79,3.17,3.29l.13-.5c0-2.28-.51-4.18,2.28-5.07a23.15,23.15,0,0,1,2.79.26c.89,0,1.65,0,1.52-.38,0-.13-7.22-10-10-10-.38,0-1.14-.25-1.14.51a.48.48,0,0,0,.12.38c2.16,2.53,6.72,7.73,6.72,8.24,0,.25,0,.51-.25.51-.51,0-4.69-5.19-5.32-5.83a7.15,7.15,0,0,0-4.82-3.8c-.25,0-.88,0-.88.51,0,.13.13.26.13.38L135,33.58c.76,2.16,5.19,4.69,5.19,6.84-.25,0-.51.13-.76.13s-2.78-3.17-3.29-3.68c0,0-3.93-5.33-5.2-5.33-.63,0-.89,1.65-.89,1.9s.26,1.39.26,1.52S132.7,35.74,133.21,36.63Zm7.74,19.26c.38,0,.51-4.43.51-5.58,0-.51,0-4.31-.51-4.31a1.72,1.72,0,0,0-.64.12c-.76.13-1.52-1-1.78-1.65l-3.17-3.17c-.89-1.65-2.78-3-4.31-4.56-1-.12-1,.89-1,1.4,0,1.39,0,2.66.89,2.66.13,0,.13-.13.25-.13,1.78,0,7.23,7.73,9.13,10.27a.76.76,0,0,1-.13.51c-1.39,0-8.24-9.38-9.25-9.38-.63,0-.5,2-.5,2.41a1.65,1.65,0,0,0,1.26,1.77C135.24,49.3,137.14,54.24,140.94,55.89Zm-4.44,28a10.12,10.12,0,0,1,2.16,1.9c0,.63,1.27,2.28,2.28,2.28.12,0,.51-.26.51-.51a5.92,5.92,0,0,0-.38-2.41c0-1.52.38-3.17.38-4.82,0-.88.25-1.77-.64-1.77a5.39,5.39,0,0,0-.63.13c-.13,0-2.53-2.91-3.68-4.06.38.38-4.18-6-5.58-6-.76,0-.38,1-.63,1.27l.13.76c0,.26-.38.26-.38.64,0,1.65,2.16.76,2.66,2.79,3,2.54,5.07,5.83,8,8.75,0,.26-.51.5-.89.5-1.78-1.26-5.2-7.35-9.25-9.76,0,.76-.25,1.14-.25,2C130.3,79.34,134.1,79,136.51,83.9Zm-2.66-30.17c.63.64,5.83,7.61,7.1,7.61.38,0,.38-.38.38-.51,0-.38,0-.51-.26-.64v-3c.38,0-5.32-2.66-6.08-5.57l-3.55-4.31a1.13,1.13,0,0,0-.63-.13c-.38,0-.51.51-.51.76,0,.76.13,1.26.13,1.65s-.13.76-.13,1C130.3,51.71,132.83,52.72,133.85,53.74Zm-.76,41.83c1,1.14,1.65,2.66,2.66,3.55.63.76,1.9,1.4,2.41,2.16,1.78,2.15,4.69,7.73,7.86,7.73.26,0,1,0,1.14-.25,0-.89-3.3-4.19-3.93-4.95-.51-1.14-2.66-2.28-3.55-3.93-1.27-1-3.8-6-7.23-8-.5-.12-.63-1.78-1.65-1.78-.51.38-.51.51-.51.76C130.42,94.68,131.18,93.79,133.09,95.57Zm-1.14,12.8h.13l.63-.64c.26-.13-1.52-1.65-2.16-1.65-.12,0-.25,0-.25.25S131.31,108.37,131.95,108.37Zm16.48.13c.13.26.38.26.63.26-.13,0,2.66.12,2.66-.51-2.66-3.42-11.41-11.15-10.26-13.82-.38,0-1.14.13-1.4.13-1,0-9-10-9-9.89,0-.51.38-.51.63-.51,1.14,0,3,2.79,4.44,4.69.76.76,4.18,4.57,4.69,4.57s.51-.89.51-1.65.51-2.79-.89-2.79h-.51c-1.65-1.52-3.43-3.42-4.94-5.07-1.27-1.39-2.16-3.68-3.93-4.31-.76,0-.63,2.66-.63,3.93,0,.51.38,1,.38,1.52a6.12,6.12,0,0,1-.38,1.14l.12,3.42c.25-.13.63-.51,1-.51,1,.13,3.8,4.18,4.94,5.45,2.79,3,6.09,6,9,10.39C145.51,105.45,147.91,108,148.42,108.5Zm-12.55-3.93c-.25-.51,2.66,4.31,4.57,4.31.38,0,1.65,0,1.78-.51-2-3.17-8-10.14-11-12.55h-.38c0,1.27-.25,1.77-.25,3.55C130.93,99.62,136.13,103.3,135.87,104.56Zm-4.94-41.83c0-.25.13-.25.25-.25,1.4,0,4.18,4.18,5.2,5.2a10.55,10.55,0,0,0,1.4,1.14c1,.89,1.9,2.54,2.91,3.55,0,.5.12.76-.38.76-1.14,0-3.55-3.8-4.82-5.07C134.35,65.78,130.93,64,130.93,62.74Zm18.89-22.81c2.4,0,2.15-.38,2.28-.63-2.28-3.17-7.22-9.89-10.26-9.89-.38,0-1-.12-1,.13,0,1.39,3.93,4.94,5.07,6.08C145.89,35.1,148,39.92,149.82,39.92ZM154,108.75a3.36,3.36,0,0,0,2.41-.51c0-1-4.05-4.69-5.2-6.46-.88-.25-2.66-3.81-3.17-3.93-1,0-2.91.51-2.91.76S152.35,108.75,154,108.75Zm-1.14-70.22c.13.25.26,1.27.51,1.27l3.68.76c.89.12,1.9,1.77,2.41,1.77,0-1-3.67-4.06-4.18-5.2-2.79-2.66-5.83-8-9.26-8-.13,0-.63,0-.63.38S152,37.13,152.86,38.53Zm-3.3,22.94h3.55a18.74,18.74,0,0,1,2.53-.63c4.94-1.9,6.34-3.8,6.34-9.25-1.4-4.44-4.19-4.18-7.23-5.07h-5.2c-.89,0-1.52.25-1.52,1.14a8.22,8.22,0,0,0,.13,1.77C148.17,54.24,147.41,61.47,149.56,61.47Zm-.89,36a3,3,0,0,0,1.65-.64h1.39a15.69,15.69,0,0,0,8-1.77c.51-.38.51-1,1-1.39,2.15,0,2.79-3.55,2.79-5.07,0-.38.13-4.05-.5-4.69l-2.41-2.53a21.13,21.13,0,0,0-7.73-1.14c-3.3,0-4.69.13-4.69,2.66,0,.63.38,1.14.38,1.77s-.38,1.14-.38,1.78a1.71,1.71,0,0,0,.25,1.14V93a1.89,1.89,0,0,0-.25.51c.38.13.25,2.41.25,3.68C148.42,97.47,148.55,97.47,148.68,97.47Zm3.93,4.44c1.52,1.52,4.31,6.34,6.09,6.34h.5c.89,0,4.82-1.14,5.2-1.9-1.39-1.14-2.54-2.79-3.81-4.06-.89-.51-2.15-3.17-3.67-4.31-1,0-2.41-.25-2.41.89,0,.89,3.55,4.18,4.56,5.07v.51c.38.76,1.9,2.79,1.78,2.66-1.14-.38-2.41-2.79-4.44-4.31-1.39-2-2.54-4.43-5.57-4.43-.13,0-1.15-.12-1.15.51C149.69,99.88,152,101.27,152.6,101.9Zm10.9-53.62c.38,1,.13,2.28.89,3.17,2.28,2.41,4.56,5.32,6.71,7.35h.51c0-.76,2.41-3.55,2.41-6.34,0-.88-1-.51-1.52-1-2.92-2.54-4.57-6.21-8.11-8.87-.13.38-.76-1.4-1.39-2-2.79-2.92-4.69-4.95-6.72-7.22,0-.51-3.29-4.19-4.18-4.19-.38,0-1.9-.13-1.9.51,1.65,1.77,3.17,3.93,4.69,5.83,2.79,3,5.45,6.08,8.12,9,0,.51-.13.51-.26.51-.89,0-1.27-1-1.9-1A24.79,24.79,0,0,1,163.51,48.29ZM175,90.11c1.14.51,1.27-2,1.27-2.66.12-.25-1.9-1.9-3.93-4.06-3.8-4.31-7.35-8.74-11.15-12.93-2.66-2.92-6.46-5.71-6.46-8-1.52,0-3.29-.25-3.29.64,0,1.14,2,2.15,2.79,3.8a33.7,33.7,0,0,1,6.59,7.1c1.39,1.9,4.69,4.31,5.32,6.34L168.83,83C169.08,83.78,173,88.21,175,90.11Zm-.89-39c0-4.57-1.65-5.33-6.84-10.52-.26-.38-6.6-10.27-11.54-11.41-.38,0-.5.51-.5.76a6.15,6.15,0,0,0,.88,1.4l3,3.29c.76,2,5.2,6.09,7.61,8.37-.38,0,2.66,2.54,2.79,3.55C171.24,47.65,172.51,51.08,174.15,51.08Zm-8.5,23.19c1.14.76,3.3,3.67,4.06,4.69,2.15,1,3.42,4.31,5.83,6.09,0,.12.38-.13.5-.38,0-5.45-3-5.83-5.58-9.25a1.29,1.29,0,0,1-1-.63c1.27.63-5.32-4.56-5.32-6.84,0-1.52,1.9-1.9,1.9-2.66-1.78-1.9-5.07-5.7-5.7-6-.76.13-1.27,1.27-1.78,1.78-.63.76-2,.51-2.66,1-.12,1.52,2.54,3,2.79,4.31,2.66,2.28,4.31,5.07,6.84,7.61ZM165,106.09c.63,0,1.78-.89,1.78-1.52,0-2-6.34-7.86-6.72-7.86.26-.25-1.9.51-2.15.63l-.13.13,3.3,3.3C161.1,100.26,164.27,106.09,165,106.09ZM158.95,61.6c1.26,0,3.29,3.67,4.05,4.69,0,.12-.13.12-.26.12-.64,0-3.3-2.79-4.18-4.44C158.44,62,158.69,61.72,158.95,61.6ZM160,75c0,.13,0,.26.13.26s.13-.13.13-.26a.13.13,0,0,0-.26,0Zm3-41.45c2.16,2.66,8.36,10.27,9.38,10.27.13,0,.13-.38.13-.51a12.93,12.93,0,0,0-3.42-6.46c-1.77-1.65-5.45-5.71-7.86-5.71C161.48,32.19,162.37,32.83,163,33.58Zm5.07,69.84c.51.26,2-1,2-1.65-2.54-2-5.45-7.35-7.1-7.35-1,0-1.14.26-1.78,1.14C161.22,96.58,167.56,103.3,168.07,103.42ZM166.8,64.76c.51,0,1.52-1.14,1.52-1.77,0-.89-5.07-6.09-5.58-6.09s-1.27.89-1.27,1.39v.38C162.37,59.57,165.91,64.76,166.8,64.76Zm-2.41,29.41c.63.89,5.83,6.84,6.21,6.84.89,0,3.42-3.29,3.42-4.94-1.52-1.78-2.79-4.06-4.94-5.46,0-.12-3.3-3.17-3.3-4.31,0-.13,0-.38.38-.38,1.14.25,1.78,1.65,2.66,2.54s4.05,6,5.71,6.21c.63-.26,1-1.77,1-2.41,0-1.27-3.93-4.44-5.58-6.34-.88-.88-7.22-9-7.73-9-.13,2.28,2.92,5.2,2.92,9.38,0,2.79-1.27,4.31-1.27,6.21A2.33,2.33,0,0,0,164.39,94.17Zm4.82-32.32c1.14.25,1.9-.89,1.9-2,0,1-5.7-6.21-7.1-7.22-.38,0-.51,0-.51.13,0,.38.13.51.13.89s-.76,1.65-.51,1.77C165.53,57.29,166.92,60,169.21,61.85ZM165.53,90.5c.89,0,3.93,4.43,4.56,5.07s2,1.65,2,2.66l-.39.12c-1-.12-5.45-6.59-6.59-7.6C165.16,90.5,165.28,90.5,165.53,90.5Zm4.19-38.28c.76.89,2.79,1.78,2.79,3.29,0,.38-.26.51-.64.51-1-.64-6.21-6.72-6.21-7.86C167.18,48.16,169,51.2,169.72,52.22Zm-.13,20.91c.63.64,2.66,4.18,4.18,4.18,0-2.53-2.66-3.55-3.29-4.82-.26-.12-.76-1.52-.89-1.65a7.09,7.09,0,0,0-3.17-2.16c-.13,0-.25.12-.25.38C166.17,70.47,169.34,72.88,169.59,73.13Zm4.06,4.31a.12.12,0,1,0,.25,0c0-.13,0-.13-.13-.13S173.65,77.31,173.65,77.44Zm.12.26.13.13a.12.12,0,0,0,.13-.13c0-.13,0-.13-.13-.13A.12.12,0,0,0,173.77,77.69Zm.25,0a.44.44,0,0,0,.13.25.28.28,0,0,0,.25-.25.46.46,0,0,0-.25-.13Z"/>
<path class="logomain-cls-1" d="M209,116.23c-.13,0-.25-.12-.51-.12s-.25.12-.5.12c-3.93,0-8.5-5.45-8.5-6.84a2.12,2.12,0,0,1,.13-.89v-5.2c0-.64-.38-1.4-.38-2.16-.25-.63.51-1,.51-1.27,0-1-.26-3.68-.26-3.55,0-.13.13-.13.13-.5,0,0-.13-.64-.13-.76,0-2,.26-3.93.26-6l-.13-.51.13-.26c.51.13-.51-.64-.51-1a9.88,9.88,0,0,1,.51-2.78c-.13-.26-.13-.89-.26-1.15l.13-.38c0-1-.13-1.65-.13-2.28,0-.13.13-2.16.13-2.66,0-1-.51-2.28-.51-3.42,0-.51.38-1.39.38-2.16,0-.38-.25-.51-.25-1,0-.13,0-.51.25-.63,0-1.9-.38-3.55-.5-5.33a3.18,3.18,0,0,0,.25-1.26c0-.38-.12-.64-.12-1.14-.26-.13.38-1.14.38-2.54l-.25-.63c-.12-1.65.38-3.3.38-4.95a4.33,4.33,0,0,1-.51-2.28c0-.25,0-.63.12-.76,0-1.65-.25-4.82-.25-5.32l.13-.38c.12-.13-.13-.51-.13-.89s0-.38.13-.51V42.33l.12-3a11,11,0,0,1-.25-3c0-.51.13-1,.13-1.4a1.9,1.9,0,0,0-.13-.76l.13-.5-.26-.63c0-.51.38-1,.38-1.4,0-.76-.76-.89-.76-1.52s1.14-2.53,2-2.53c1.4,0,2.79.51,4.06.51,2.91,0,4.56-.51,6.71-.51,3.55,0,7.48,7.6,7.48,7.6,0,.38-.25.64-.25,1.14,0,.25,0,.25.25.38l-.25.25c-.13.63.25,2.15.25,3.17s-.38,1.65-.38,2.28c0,.38.13.25.13.51l-.13.51c0,.89.38,1.77.38,2.66l-.25.63c-.13.51.25,1.39.25,2.15s-.25,1.52-.25,2.16.25.64.25,1.14a1.27,1.27,0,0,1-.38,1.14c0,.12.38,1,.38,1.14.13.51-.25.63-.25.89,0,1.27.25,2.41.25,3.55a8.11,8.11,0,0,1-.25,1.14c0,.38,0,.5.25.63a7,7,0,0,0-.25,2.15c0,.51.38,1.65.38,2l-.38.51c0,.38.38.76.38,1.14a1.7,1.7,0,0,1-.13.64v7c.13.13.13.26.13.51.12-.13-.26.5-.38.76s.25,1.27.25,1.52c0,1.52-.38,3.29-.38,4.69,0,.89.51,1.9.51,2.66,0,.51-.38.89-.38,1.4V89l.25.26a11,11,0,0,0-.25,1.27c-.13-.13.12.38.25.76s-.25.51-.25,1.14c0,1,.25,1.65.25,2.53s0,.89-.38,1.4c0,.26.38.64.38.89,0,.63-.38,1.14-.38,1.65s.38,1,.38,1.4c0,.76-.25,1.27-.25,1.9s.25.51.25,1-.38,1.27-.38,1.9c0,2,.13,3.29.13,5.45,0,.12.38,1.14.38,1.27s.12.38-.13.76v.89c0,1.52-.38,3-2.28,3-.76,0-1-.38-1.52-.38-1,0-2,.51-3,.51-.13,0-.38-.38-.38-.51C210.27,116.1,209.89,116.23,209,116.23Zm-9.12-9a.12.12,0,1,0,.25,0c0-.13,0-.13-.12-.13S199.89,107.1,199.89,107.23Zm5.07-72c-.38-.13,4.69,7,5.83,7,.63,0,.38-1,.38-1.65,0-.38.26-3.55-3.93-5.07.38.76-3.29-5.45-5.58-5.45-.63-.25-.89.51-.89,1a1,1,0,0,0,.13.51C202.42,32.57,204.7,35.86,205,35.23Zm5.71,11.91c.63-.51.63-1.27.63-2.16,0-2.28-1.14-1.14-2.15-2-.64-.38-6.47-9-8-9-.25,0-.38.12-.38.63a13.92,13.92,0,0,1,.38,2.16C200.9,36.25,206,43.47,210.66,47.15ZM211,69.58c.25,0,.25-1,.25-1a35.06,35.06,0,0,0-.13-3.55v-.63c-.25,0-.5.12-.76.12-2,0-6.72-6.84-8.24-8.62-.38-.38-.76,0-1-.51-.38.26-.38.64-.38,1.14a1.79,1.79,0,0,0,.38,1.14,1.46,1.46,0,0,0-.25.88c0,.13,0,.13.25.26,4.57,2.28,6.08,7.35,9.89,10Zm-1,14.58c.63.38,1.14,1.78,1.26,1.78a8.79,8.79,0,0,0,.38-2.54,10.78,10.78,0,0,0-.51-4.05c0-.38.38-.89.38-1.4s-.25-1.4-.25-2.16c0-.38.25-.51.25-.89.13-.12-.25-.51-.25-.76V70.22c0-.38-.5-.38-.89-.38-3.17,0-.76-2-9.13-9.51-.38,0-.51,0-.51.12.25.13.13,1.78.13,2.66,2.28,2.53,9.63,8.62,9.63,11.66,0,.38-.5.38-.63.38-1.14,0-.89-1.14-1.52-1.65-1-1-5.58-4.18-5.58-6.34L201.27,66v2.79c0,.38,3.93,4.69,4.31,4.95-.13-.38,5.45,4.31,5.45,6.34a.82.82,0,0,1-.64.64c-.38,0-1.4-1.27-2.41-1.78-.25-1.78-4.82-5.45-5.07-5.71s-.63-1.65-1.14-1.65-.88.25-.88.76C200.9,74.4,206.47,79.72,210,84.16Zm1-31.56a16.11,16.11,0,0,0,.25-2.54c0-.89.13-1.9-.5-1.9-.13,0-.26.12-.38.12-1,0-5.07-3.29-8.49-8.49-.64,0-1,0-1,.26,0,3.93,1.39,2.15,2,3.93l2.54,2.54C205.84,47.78,209.51,52.22,211,52.6Zm.25,11a1.71,1.71,0,0,0,.25-1.14,1.21,1.21,0,0,0-.25-.89V57.29c-.25-.13-.25-.51-.25-1.14v-1.9a1,1,0,0,0-.64.13c.26,0-4.94-3.42-4.94-5.2a.12.12,0,0,1,.13-.12c0-.13-.13-.13-.38-.38-1.14,0-2.92-4.06-4.06-4.06l-.25.25v2.41c3.17,3.17,6.59,6,9.76,10.77,0,.38.13,1.14-.51,1.14-1-.26-2.66-2.29-3-3.17,0,0-5.45-6-5.71-6s-.5,0-.5.25a5.85,5.85,0,0,0,.25.64c0,.13-.25.76-.25,1s0,.76.25.89l2.79,2.79A42.42,42.42,0,0,0,211.29,63.62ZM211,95.82a5.06,5.06,0,0,0,.5-2.79c0-9-.76-6-2.41-7.86.38-.25-3.3-3-3.68-4.56l-3-3c-.13-.13-.51-.13-.64-.13-.88,0-.63,1-.63,1.52s4.57,5.7,5.45,6.59a2.88,2.88,0,0,1,1.4,1.77L210.66,90v.12c0,.13-.26.76-.63.76-1.4,0-7.23-8.36-7.86-8.62-.89,0-1.27,0-1.27.76,0,.13.25,2,.25,2.54v.12c0-1.52,6,5.83,8,7.86C209.13,94.17,211,94.93,211,95.82Zm-6.34,12.93a3.2,3.2,0,0,0,1.52-.26c-.38-.64-3.93-4.69-4.31-4.69s-.64.51-.64.64v2.66l-.13.26.13.25.51-.25c.38,0,.51,0,.51.25a2.77,2.77,0,0,1-.12.76l.12.13A8.16,8.16,0,0,0,204.7,108.75Zm4.06-10.4a19.88,19.88,0,0,0,2.41,3.3.85.85,0,0,0,.51-.89,10.86,10.86,0,0,0-.38-3.55s-2.41-.76-2.41-1.78v-.25c-1.52-1.65-3.16-2.79-4.43-4.57a10,10,0,0,0-2.79-3.29h-.25c-.13,0,.13.26.25.51a19.19,19.19,0,0,1-.38,2.66C203.43,93,206.47,95.69,208.75,98.35Zm-7.48-2.41c0,.13,0,.13.13.26,4.06,2.41,6,8.75,9.76,10.14.51-.13.51-2.41.51-2.92,0-.89.12-1.52-.51-1.52-.38,0-.5.51-.76.51-1.52-.13-4.82-5.83-6-6.84-.63-.64-2.28-1.39-2.66-2.54-.51,0-.51,1-.51,1l.13.64c.13,0-.13-.13-.13,1Zm2.16,7c.51.63,4.05,5.83,4.43,5.83h2.66a1.28,1.28,0,0,0,1.15-1.4.46.46,0,0,0-.51-.5c-.38,0-.38.5-.64.5-1.65,0-4.94-5.07-6.08-6.34-.63-.64-2.53-2.41-2.53-2.41-.26,0-.64,1.27-.64,1.65C201.27,101.65,202.8,101.9,203.43,102.92ZM211,37.13a.71.71,0,0,0,.25-.63s-.25-3.3-.63-3.55c-2,.38-2.79-3.29-4.44-3.29-.51,0-1,0-1,.51C205.21,31.81,210,35.61,211,37.13Zm0-5.83c0-.76-.26-1.65-1.14-1.65C209.89,30.29,210.4,31.3,211,31.3Zm0,22.56a.78.78,0,0,0,.12-.51H211Zm2.15,50.7a.12.12,0,0,0,.12.13c.13,0,.13,0,.13-.13h-.25Zm.63-22.05.13.13a.12.12,0,0,0,.13-.13c0-.13,0-.13-.13-.13A.12.12,0,0,0,213.82,82.51Zm.38,8.24a.13.13,0,0,0,.26,0c0-.13,0-.13-.13-.13S214.2,90.62,214.2,90.75Zm.13-29.66.13-.13h-.13Zm.51-20.41a.44.44,0,0,0,.12.25c.13,0,.13-.12.13-.25a.12.12,0,0,0-.13-.12Zm0,38.53H215s0-.38-.12-.51Zm0,1a.12.12,0,0,0,.12.13c.13,0,.13,0,.13-.13h-.26Zm1-19.39a.12.12,0,0,0-.13.12l.13.13A.13.13,0,0,0,216,61C216,60.84,216,60.84,215.85,60.84Zm0,23.07a.12.12,0,0,0-.13.13l.13.13A.12.12,0,0,0,216,84C216,83.9,216,83.9,215.85,83.9Z"/>
<path class="logomain-cls-1" d="M243,116a.69.69,0,0,0-.63.25c-1.14-1.4-1.78-.25-2.53-1.52,0-1.65-1.65-.76-2.29-2.66H237l.13-1.27h-.26c-.38-.51-1.14-1.27-1.39-1.14l.38-.38a6.26,6.26,0,0,0-.64-2.41c0-1.78.5-3.55.5-5.33,0-.64-.38-1.27-.38-1.9,0-1,.13-1.9.13-2.66,0-.51-.13-.51-.13-.64,0-.38.38-.89.38-1,0-.38-.12-.38-.25-.51s.25-1.64.25-1.77c0-.89-.38-3.29-.38-3.67,0-.63.38-1.14.38-1.78s-.38-1.4-.38-2a5.3,5.3,0,0,0,.13-.64v-7.1L234.74,76c0-2,1-3.67,1-5.45a25.25,25.25,0,0,0-.63-4.44V63.37l-.26-.38.38-.51c0-.13-.12-.51-.12-.76s.12-.51.38-.51a42.85,42.85,0,0,1-.64-4.31c0-.38-.13-.88.26-1a3,3,0,0,0-.38-1.39c.63-.76.51-2.28.51-3.3a1.4,1.4,0,0,0-.38-1.14c0-1.65.38-3.3.38-4.82,0-.89-.51-1.78-.51-2.53s.63-2.79.63-3.55c0-1.27-.51-2-.51-3.42,0-.64.26-.89.26-1.4a.76.76,0,0,0-.38-.76v-3c1.4-2.15-.12-1.26,2.79-3,.38,0,1,.26,1.27.26.51,0,.89-.13,1.4-.13s1.14.13,1.65.13.76-.26,1.52-.26c.38,0,.76.26,1.27.26s.38-.13.64-.13c0-.13.38.25.63.38l.76-.38c1.65,0,4.31,2.53,4.82,4.56.38.13,2.91,2.79,3,4.19l-.13.63c0,.51.64.64.64,1.14,0,.12-.26.12-.26.38a25.69,25.69,0,0,0,.38,3.8c.13.63-.5,1.52-.5,2.41,0,.38.38.63.38,1s-.26.26-.51.26v2.53c.13,0,.25.51.25.63a1.51,1.51,0,0,0-.25.89c0,.25.13.25.13.63a1.11,1.11,0,0,1-.13.64c0,.38.63,1.27,1,1.27v.25h-.76c0,.51-.12.89-.12,1.39,0,.76.12,1.14.12,1.65s-.12.89-.12,1.4c0,.13.38.13.38.5.12,0-.12.26-.26.51l.26.38c0,.38-.38.51-.38.89,0,.63.5,1.14.5,1.65,0,.25-.38.64-.38.76v3c-.12,0-.12.25-.12.25,0,.51.12.76.12,1s0,.51-.12.51c0,1.14.12,1.39.12,2s-.25,1.65-.25,1.9c-.5-.13.63.51.63,1.27,0,0-.12.76-.5.76.5.13.5.64.5,1.14,0,1,0,.76-.5,1.65a1,1,0,0,1,.12.64,2.24,2.24,0,0,1-.12.89V83.4a2.31,2.31,0,0,1,.38,1.52c0,.51-.26,1-.26,1.52s.26.89.26,1.65-.38,1.27-.38,2.15c0,.63.12,1.27.12,1.77,0,1.4-.12,2.79-.12,4.18,0,.38,0,.76.38.89a6,6,0,0,0,1.14-.38c.13,0,1,.25,1.15.51,0-.51.5-.51.88-.51s1.52-.25,1.52.51a1.76,1.76,0,0,1-.25.76c-.76,0-1.52-.38-2.15-.38s-1.15.38-1.65.38-1.14-.38-1.52-.38c-.12,0-.51.38-.51.38-.76,0-1.52-.38-2.15-.38s-.9.13-1.4.13c-1,0-2-.13-2-1.27l.38-.51c0-3.55-1.77-3.8-3.16-5.07-.38-1.9-3.3-2.91-4.82-6,.12.64-2.29-3.17-2.92-3.17-.38,0-.51.76-.51,1.4.26.12.13,1.9.13,3h.63c1.27,0,5.2,5.07,7.22,7.6-.64-.88,2.54,1.52,2.54,3.3,0,.38-.13.63-.51.63s-4.69-5.07-4.94-5.45c.38.5-4.19-5.07-4.56-5.07s-.51.5-.51.89l.38.51c0,.25-.38.76-.38,1.26,0,1.9,1.9,1.9,3,3.3a14.34,14.34,0,0,1,1.65,2v.13c3.55,2.66,5.2,7.35,8.49,10,.25,0,.88.12.88.63-.63.76,1.27.51,1.27,2.15l-.12.38a3.19,3.19,0,0,0,1.65.63c.76,0,1.52-.38,2.28-.38.13,0,.25,0,.25.25h4.44c.25,0,.38-.25.51-.38.64,0-3.3-2.54-3.93-4.44l-.12.26c-.64-1.4-3.81-3.68-3.81-5.33,1.52,0,1.9,1.4,2.79,2.28,1.52,1.52,5.57,7.61,6.59,7.61l.51-.25a13.79,13.79,0,0,1,2.28.25c.12,0,.38-.25.5-.25s.38.25.51.25c.63,0,1.14-.25,2-.25a15.4,15.4,0,0,0,1.65.25c.63,0,2.79-.25,2.79-1.27,0-.13-.25-.25-.25-.64-.13,0,.13-.5.25-.76s-.25-.76-.25-1.14c0-1,.25-1.9.25-3a9.09,9.09,0,0,0-.38-3h-.25c-.76,0-.76-1.52-3.17-1.52-.51,0-1.14.13-1.14.64,0,1.39,1.39,1.39,1.9,2.15a13.26,13.26,0,0,0,1.4,2.66c.25.26.76.13.76.64s0,.51-.25.51c-.89,0-2.66-2.66-3.17-3.3s-1.65-1-1.65-1.78.13-.76.51-1.39c.12,0-.13-.25-.38-.25-1,0-2.28.5-3.3.5a2.51,2.51,0,0,1-1.14-.76,1.21,1.21,0,0,1,1-.63,2.61,2.61,0,0,0,.63.12c.12,0,.38-.12.51-.12.38,0,.63.12,1.14.12s1.64-.25,2.28-.25c.26.13.76.13.89.25.88,0,1.9-.25,2.91-.25,2.66,0,4.44,2.91,6.59,5.07.76.76.76,2,1.27,2.53v1.14l-.12,2.16s.38,0,.38.13l-.26.51c0,.63.26,1,.26,1.65l-.26.63c.26.51,1.27.51,1.27,1.14s.51,4.31-4.95,4.31c-1.27,0-2.41-.12-3.55-.12-.76,0-1.9.38-2.79.38l-.25-.26c-.26,0-.51.13-1,.13l-.38-.13c-.13,0-.64.13-.76.13a10.87,10.87,0,0,1-2-.13.74.74,0,0,0-.51.13c-.13-.13-.26-.13-.51-.25-.89,0-2.28.63-3.29.63-.25,0-.64-.25-.76-.25a1.22,1.22,0,0,0-.89.25c-.38,0-1.14-.38-1.65-.38l-.25.13H254a.77.77,0,0,0-.51-.13,28.35,28.35,0,0,0-6.59.51.66.66,0,0,1-.63-.13C245.13,116.23,243.23,116.35,243,116Zm-7.35-64.64a.12.12,0,0,0,.12.13.13.13,0,0,0,.13-.13c0-.13,0-.13-.13-.13S235.62,51.2,235.62,51.33Zm11.78,18.76a5.19,5.19,0,0,0,.51-2.79c0-1-.12-1.9-.12-2.92a1.39,1.39,0,0,1,.12-.76c0-1.9-.38-2.92-.38-4.43,0-.64.26-1.27.26-2.16,0-.13-.26-1.14-.26-1.27,0-.38,0-.51.26-.63v-2c-.26-.13-.26-.63-.26-.76a1.54,1.54,0,0,1,.26-1.14c0-.89-.39-1.65-.39-2.53,0-.25.39-.51.39-.76,0-.63-.39-1.4-.39-2s.39-.89.39-1.27l-.26-.51c-.13-.38.26-1.14.26-1.4,0-.64-.39-1-.39-1.27l.13-.38V37.89a1.33,1.33,0,0,1-.13-.76c0-.13.13-.25.13-.51,0,.12-.13-1.52-.13-2.54.13,0-4.69-4.94-5.7-4.94-.25,0-1.65.13-1.65.64,0,1.14,1.4,1.52,2,2.15,1.52,1.27,1.4,2.28,4.19,5.07,0,.89,0,.89-.64.89-.38,0-.89,0-.89-.51L245,37c-1.14-.89-5.19-7.6-8-7.6-.13-.25-.26,1-.26,1.14l.13.76c0,.38-.13.76-.13,1.14,0,.13,0,.51.13.51l.26-.26c2.91-.12.76.38,6.59,6.84,1,.63,3.3,2.79,3.3,4.19a.41.41,0,0,1-.38.38c-.51,0-4.57-4.31-4.57-4.44l-1.78-1.77v-.51l-2.41-2.54c-.51-.63-.38-.88-.88-1.65-.26.13-.51,2.66-.51,3.17s.38,1.52.38,2.15c-.25,1.14.13,3.3-.38,3.8-.25,1,2.79,1.65,2.79,2.53,0,.13-.12.13-.12.25.51.51,1.9.89,1.9,1.52,0,.12-.13.12-.13.25,1.4,1.65,6.34,5.7,6.34,7.35,0,.26,0,.51-.38.51-1.4-.26-7.61-10.39-10.14-10.39l-.25.25.25.25c.13.76-.25,1.4-.25,2.16.51,2,.51,2,1.65,2,1.14.25,3,3.42,4.69,5.07.5.64,4.05,4.18,4.05,5.07,0,.25,0,.51-.13.51-1.9,0-5.07-4.82-6.46-6.22,0-.25-2.28-3.8-3.29-3.8-.38,0,0,.51-.51.89l.38.63-.13.26v2.66a1.8,1.8,0,0,0,.26.51c.38.13.38-.51.88-.51,1.27.25,2.41,1.77,4.69,4.94.26.38.76.13.89.51.25,1.14,3.42,4.31,3.42,4.82,0,.25-.13.25-.51.25-1.65-1.52-3.93-2.91-5.07-4.94.76.76-3.43-4.31-3.8-4.31s-.64.64-.76.89.26,2,.26,2.28c.13,0-.13.38-.13.64a.34.34,0,0,0,.38.38h.25c.38.38,1.52,1.65,2.16,1.65C242.85,63.5,244.5,67.43,247.41,70.09Zm-10,10.65h.13c1.27,0,3.3,3.29,4.94,4.56a12.07,12.07,0,0,0,5.33,6.21c.12-.13.25-.26.25-.38s-.12-.26-.12-.51a.45.45,0,0,1,.12-.25V86.06c.13-.13.13-.5.13-.76s0-.76-.13-.89V81c-.12,0-.12-.12-.12-.25a2.87,2.87,0,0,1,.12-1.14V77.18c-.12,0-.25,0-.25.13a25.41,25.41,0,0,1,.25-2.66c0-.25-.12-.25-.12-.63s0-.51.25-.63c-.25,0,0-2.41-.63-2.66-1.52.26-2.66-2.15-3.42-3,0,0-1.27-1-4.06-3.8-1.27-.25-1.65-2-2.54-3.17a.84.84,0,0,0-.76.89L237,62c0,.38,0,.26-.13.38,0,2.54,2.29,2.54,3.55,5.07,1.14,1.39,6.46,6.34,6.46,8.24,0,.25,0,.38-.25.38-.89,0-5.45-6.21-5.45-6,.51-.63-4.18-4.18-4.31-4.31,0,.38.13.26.13.51l.13,4.43c.38,0,.25-.25.51-.25.76,0,2.66,1.52,2.66,2.15v.13l2.54,2.41a14.06,14.06,0,0,0,.76,1.39h.12c.51,0,3.3,3.17,3.3,4.19,0,.38,0,.51-.38.51s-1.39-.89-1.39-1.27l-.26.12c0-.25.26-.51.26-.63-.26-.13-4.82-4.31-4.82-4.82-.89-.12-1.91-3-3.3-3-.26,0-.26.25-.26.51,0,.5.13,1,.13,1.65s-.13.76-.13,1.27c0,.13,0,.51.13.64a1,1,0,0,0,.51-.25c-.38-.89,2.29,1.9,4.56,4.56.63.63,5.2,3.8,5.2,6a1.3,1.3,0,0,1-.26.63c-2,0-1.65-2.54-3.42-3.17l-2.79-2.79c0-1.52-2.79-3.55-3.3-3.55s-.25,1.4-.64,1.9C236.89,80.61,237.52,80.74,237.4,80.74Zm-.63,11a.44.44,0,0,0,.13.25c.13,0,.13-.13.13-.25a.12.12,0,0,0-.13-.13Zm2.79,17.36h2.29c.25,0,.25-.25.25-.51s-3-4.44-4.19-4.44c-.88,0-.88,2.41-.88,2.79,0,.76-.13,1.78.88,1.78,0-.13-.25-.26-.25-.64s.25-.38.38-.38c.38,0,.63,0,.63.38a.75.75,0,0,1-.13.51ZM237,71.1a.12.12,0,0,0,.13.12c.13,0,.25,0,.25-.12H237Zm8,38c.76,0,1.65-.38,2.41-.38.39,0,.64.25,1.14.25s1-.25,1.65-.25.51.25,1.14.25c.13,0,.38,0,.38-.25-.25-.64-1.9-2.29-2.28-2.92-.76-.38-6.34-6.08-7.61-8.75-.51-.76-2.15-1.52-2.66-2.28-.64-1-.76-1.52-1.78-2.15-.38.13-.38,2.28-.38,2.91l.13.51v6.46c2.66,0,3.55,2.66,6.34,5.45,0,.12-.38.63-.38.76C243.11,109.13,244.62,109.13,245,109.13Zm-7.48-70.6c1.65,0,2.92,2.79,3,2.79s.13-.13.26-.13c.89,0,.89.76,1,1.27,1,1.52,5.2,3.67,5.2,6.09,0,.38-.26.51-.63.51-.76,0-3.42-3.17-4.05-3.93l-.38-.38c-.12.76-1-2.41-1.77-1.78.26.13-3-3.17-3-3.93C237.15,38.65,237.15,38.53,237.52,38.53Zm0,71.74.13.13a.42.42,0,0,0,.25-.13c0-.13-.12-.13-.25-.13A.13.13,0,0,0,237.52,110.27Zm.38-12.55-.25-.13c-.13-.38.38-.38.5-.38,1.65,0,3.3,3.8,4.69,5.2.76.51,4.69,4.56,4.69,5.58,0,.12,0,.51-.25.51-1,0-3.93-4.18-4.82-5.2-.51-.64-1.65-.76-2-1.4a19.17,19.17,0,0,0-1.65-2.66Zm4.57,11.16a.44.44,0,0,0,.12.25.28.28,0,0,0,.26-.25.46.46,0,0,0-.26-.12Zm4.44-76.69c.5,0,.5-1.14.5-1.39,0-.5-.76-1.65-1.52-1.65-.26,0-1.65.13-1.39.64C245.51,30.29,246.27,32.19,246.91,32.19Zm-1.78,78.72c.13,0,.13,0,.13-.13A.13.13,0,0,0,245.13,110.9Zm3.93-30.42c.12-.38-.25-.38-.64-.38C248.42,80.48,248.93,80.48,249.06,80.48Zm-.38-7.86c-.12-.13.38.25.38-.5-.13,0-.51,0-.51.12S248.68,72.5,248.68,72.62Zm.25,26.11c1,0,1.78,1.52,2.29,2.28,1.27,1.77,6,4.82,6,7.22-1.4,0-3.68-2.79-5.2-4.69a26.09,26.09,0,0,0-3.42-4.18C248.55,99.24,248.68,98.73,248.93,98.73Zm.13-24.08.12-.25Zm.76,2c-.12-.25-.25-.13-.25-.13S249.69,76.68,249.82,76.68Zm0,3.93.25-.26-.38.13Zm.25,1.65h.13l-.13-.25Zm.13-12.17.13.13a.43.43,0,0,0,.25-.13c0-.13-.12-.13-.25-.13A.13.13,0,0,0,250.2,70.09Zm.51,11v0Zm.51,9.89.12-.13h-.12Zm1.14,3.93.13.13a.43.43,0,0,0,.25-.13c0-.13-.12-.13-.25-.13A.13.13,0,0,0,252.35,94.93Zm0,.76a.42.42,0,0,0,.13.25.27.27,0,0,0,.25-.25.43.43,0,0,0-.25-.13Zm6,3.68c0-.13,0-.51.12-.51,1,0,2.66,2.15,2.92,3h.13c.51,0,1.52,1.9,1.77,2.15-.89-.63,3.42,1.78,3.42,3.93,0,.25,0,.51-.38.51-2.79,0-1.14-3.3-5.2-4.95-.51-.38-1.65-3.17-2.54-3.17C258.56,100,258.31,99.88,258.31,99.37Zm2,12.42a.12.12,0,0,0-.12.13l.12.12a.12.12,0,0,0,.13-.12C260.47,111.79,260.47,111.79,260.34,111.79Zm4.19-10.27v-.25c-.38-.89-1.65-1-1.65-1.9,0-.26,0-.51.13-.51,1.52,0,4.18,4.69,5.32,5.83.76.76,2.66,2.16,2.66,3.55-1.26,0-4.06-3.55-3.93-3.29a11.72,11.72,0,0,1-2-3.42Zm-1.4,10.4a.13.13,0,0,0,.25,0c0-.13,0-.13-.13-.13S263.13,111.79,263.13,111.92Zm.13.12a.45.45,0,0,0,.13.26c.13,0,.13-.13.13-.26a.12.12,0,0,0-.13-.12Zm8.62-.76c0,.12,0,.12.13.12s.13,0,.13-.12h-.25Zm1.9-6,.13.12a.12.12,0,0,0,.13-.12c0-.13,0-.13-.13-.13A.12.12,0,0,0,273.78,105.33Zm.13-2.66a.45.45,0,0,0,.13.25.28.28,0,0,0,.26-.25.45.45,0,0,0-.26-.13Zm.26.12c0,.13,0,.26.13.26s.12-.13.12-.26a.12.12,0,0,0-.12-.12A.12.12,0,0,0,274.16,102.79Zm.13,2.79a.45.45,0,0,0,.12.25c.13,0,.13-.13.13-.25a.13.13,0,0,0-.13-.13Zm.76,3a.12.12,0,0,0,.12.13c.13,0,.25,0,.25-.13H275Zm.76.76c0,.13,0,.25.13.25s.12-.13.12-.25a.12.12,0,0,0-.12-.13A.12.12,0,0,0,275.8,109.38Zm0,1c0,.13,0,.25.13.25s.12-.12.12-.25a.12.12,0,0,0-.12-.13A.13.13,0,0,0,275.8,110.4Zm.13-.89a.44.44,0,0,0,.12.25c.13,0,.13-.13.13-.25a.12.12,0,0,0-.13-.13Zm0,1.27.12.13a.13.13,0,0,0,.13-.13c0-.13,0-.13-.13-.13A.12.12,0,0,0,275.93,110.78Zm.12-2a.44.44,0,0,0,.13.25.27.27,0,0,0,.25-.25.44.44,0,0,0-.25-.13Z"/>
<path class="logomain-cls-1" d="M310.41,115.72c-2.41,0-5.07-.25-7.61-.38-.5-.12-6.72-4.56-6.72-8.37,0-1,.38-2,.38-3s-.38-1.78-.38-2.79.38-2.28.38-3.42c0-.13-.38-1.64-.38-1.78,0-3.93.51-4.05.51-5.45,0-.25-.13-.64-.13-.76v-3.3a2.13,2.13,0,0,1-.25-1.27,7.87,7.87,0,0,1,.25-2.92v-7.1c0-.13-.25-.63-.25-.76a10.74,10.74,0,0,1,.5-1.9c.25.13-.26-.63-.26-1.14V68.06a4.18,4.18,0,0,0,.13-1.27c0-1.27-.13-2.41-.13-3.8,0-1.9.13-2,.13-2.92,0-1.14-.51-2.28-.51-3.55a11.94,11.94,0,0,0,.38-1.14c0-1.26-.25-2.79-.25-4.05a28.24,28.24,0,0,1,.38-2.91c0-.76-.13-1.4-.13-2,0-.38.13-.63.13-1,0-.13-.13-.89-.13-1.14V38.78l.13-.51c0-.51-.38-.76-.38-1.27,0-.89.38-1.65.38-2.28,0-.89-.51-1.65-.51-2.66,0-.38.13-.64.13-1s-.13-1-.13-1.52a2.57,2.57,0,0,1,2-2.54h.63c1.39,0,2.41-.38,3.93-.38a2.83,2.83,0,0,1,1.27.38,30.71,30.71,0,0,1,4.69-.25c.76,0,1.39.25,2.28.25a2.65,2.65,0,0,0,1.65-.38c2.79,0,5.07.38,7.86.38,1.39,0,2.79-.25,4.18-.25.88,0,1.9.25,2.91.25.5,0,.76-.25,1.14-.25a8.15,8.15,0,0,0,.88.25,11,11,0,0,0,2.54-.25A8.14,8.14,0,0,1,333,27h4.82c.88,0,7.22,5.45,7.35,9v1.77c0,1.4.63,2.29.63,3.3a18.6,18.6,0,0,1-.25,2.41l.13.64a2.67,2.67,0,0,1-2.79,3c-.13,0-1.78-.25-2.54-.25L326,46.76h-7.48c-.25,0-.88-.25-1-.25-1.52-.26-1.27,3.8-1.52,4.31,0,.13.13.63.13.89v8a1.61,1.61,0,0,0,1.39,1.39c2.15,0,4.94-.64,7.1-.38,1,0,7.1,6.34,7.1,7.23v6.59a8.14,8.14,0,0,1,.26,2.53c0,2.53-.26,2.91-1.65,3.17-3.8,0-7.48-.25-11.15-.25-1.39,0-3.3-.51-3.3,1.14,0,1,.26,2,.26,2.91,0,.26-.13,1.65-.13,1.9-.13.63.38,1.52.38,2.28a.94.94,0,0,1-.25.76v6.46c0,.13.38.51.5.64,3.29,0,6.46-.26,9.13-.13l.25.13c2.16.12,4.05-.26,6.34-.26,1.27,0,2.28.12,3.55.12.63,0,1.39-.38,2-.38.26-.13,1,.26,1.27.26s.89-.26,1-.26c2.79,0,6.46,5.45,6.46,9.76,0,.38-.26,1.52-.26,2.66,0,.76.38,1.39.38,2.28,0,.26-.38.76-.38,1.27,0,.89.13,1.65.13,2.28,0,2.54-5.33,2-7.61,2-1.14,0-2-.13-3.17-.13a3.86,3.86,0,0,0-1.14.13c-2.92,0-4.69-.25-6.84-.25a6.26,6.26,0,0,0-1.52.12l-.51-.25a7.79,7.79,0,0,1-1.9.38c-2.91,0-6.21-.38-9.38-.38C313.19,115.47,311.93,115.72,310.41,115.72ZM308,82.38c.64.13.76-.51.76-1.14,0-1,.38-2.41-1.27-2.41-2.91-2.66-7.86-9.38-8.74-9.38-.63,0-.89,2.16-.89,2.66C297.85,71.61,305.08,79.47,308,82.38ZM310.41,102c1,2,3.55,3,4.43,5.07,0,.51.25,1.14.89,1.14h2.54l.38-.13c-1.14-1.26-2.28-2.91-3.43-4.31-1.64-2-3.29-3.55-4.69-6.21-1.39-1-1.65-.63-1.77-2.66l-.13-.13a5.44,5.44,0,0,0-.64.13c-1,0-5.33-4.18-5.83-6l-3.42-3.42-.38-.13-.13.13c0,.12.13.38.13.5s-.25,1.14-.25,1.27c-.26-.12.25.51.25.89,3.29,2.79,9.63,10.27,9.76,11C308.37,99.5,310,101.52,310.41,102ZM299.25,51.71c2.28,1.27,7.1,9.13,8.87,9.13.51,0,.63-1.14.63-1.39s-.13-.76-.13-1.27l.13-.63c0-.26,0-.64-.13-.76-.38.12-.64.51-1,.51-.63,0-3.93-3.81-4.56-4.69-1.65-1.14-2-3.17-4.19-4.18-.76-.13-.76.88-.76,1.39C298.24,52.09,298.24,51.2,299.25,51.71Zm8.87,25.73c.63-.26.63-1.27.63-1.77,0-.76-.13-.89-.13-1.52,0-1.27,2.53-.64,2.53-1.65a50.84,50.84,0,0,1-5.58-6.72c.13.26-5.58-6.84-7.1-6.84-.25,0-.25.26-.25.63,0,1.78,4.31,6.34,6.84,9.38.89,1,3.29,2.79,3.29,4.31,0,.25-.25.25-.38.25-2.16,0-7-7.48-9.25-9.51-.51,0-.63.76-.63,1,0,1.9,2,2.79,2.79,4.44C303.05,72.12,306.35,76.3,308.12,77.44Zm-4.44,30.8.26-.13c0-2.41-4.31-5.33-5.2-6.59l-.38-.13a7,7,0,0,0-.25,2.28C298.11,105.2,302.42,108.24,303.69,108.24Zm-.63-63.5c-.13-.25,3.93,6.09,5.7,6.09,0-.76-.13-1.52-.13-2.16,0,0,.13-1.27.13-1.65l-.13-.13c-1.14-.38-9.89-9.76-10.14-9.51h-.25C298.24,39,300.14,42.46,303.05,44.74Zm0,16.1C306.47,65,312.18,73,313.83,73a5.93,5.93,0,0,0,2-.25c-.38-1.52-2-2.16-2.66-3.29,0-.64-4.06-4.44-4.95-6.59-2.53-.76-5.45-5.07-6.84-6.72.25-.5-2.54-2.79-2.66-2.91-.51,0-.51,1.27-.51,1.52C298.24,56.14,302,59.7,303.05,60.84Zm-4.57,16.48c1.4,1.52,8.5,10.52,9.64,10.52.12.26.51-.38.51-1,.13,0-.26-1.52-.26-2.28-3.67-2.16-7.73-10-9.88-10-.12,0-.25,0-.25.12A7.9,7.9,0,0,0,298.49,77.31ZM301,48c.64.76,6.72,8.36,7.61,8.36.13,0,.13-.12.13-.38,0-1.27-.13-2.92-.13-4.56-.51,0-.89.51-1.39.51-1.14,0-7.23-8.87-8.37-8.87-.38,0-.5.51-.5.76C298.36,45.37,300.14,46.89,301,48Zm8.5,57.8c1.9,1.65-.38,2.41,3.17,2.41.51,0,1.14-.13,1.14-.51a9.85,9.85,0,0,0-2.66-2.28c-.13-.12-.76-1.77-.88-1.9,0,.26-9.64-12.42-11.91-12.42C298.36,95.19,306.35,101.65,309.52,105.83Zm-9.38-5.07c2.29,1.52,4.06,5.58,6.47,7.35l2.16-.12c-2-2.79-3-3.43-4.44-5.45,0,0-4.31-5.83-5.32-5.83-.63,0-.63.63-.63,1C298.36,99.37,299.25,99.5,300.14,100.76Zm7.61-56,.38.12c.51,0,.51-1.9.51-2.28,0-.63-6.47-7.86-9.38-9.76-.76-.13-.76.63-.76,1.26s4.69,3.68,4.94,6.34Zm.63,48.93.26-.25a5,5,0,0,0-.26-.89c-.12-.76.51-2.16.26-3l-.26-.13h-1.14c-1.4-.76-6.22-8.75-8.49-8.75v2.28c2,2.41,6.21,8.36,9.38,10.52ZM300.64,30.8a50,50,0,0,0,7.73,9.38A36.62,36.62,0,0,1,314.21,39v-.25c-1-.63-1.14-1.78-2-2.66-1.65-1.78-5.58-5.07-5.58-7.35a17.86,17.86,0,0,0-2.66.13l-.26.38s.26.63.51.76c1.15,1.65,6.59,6.85,6.59,8.24,0,.25-.5.38-.76.38a1,1,0,0,1-.51-.13c-3-2.66-7.6-9.63-8.87-9.63a.65.65,0,0,0-.76.51C299.5,29.66,300.64,30.16,300.64,30.8Zm15.85,8.49,2.91-.13c-2.28-2.16-3.93-4.82-6.08-7.1-3.68-3.8-3.55-3.3-5.07-3.3a44.32,44.32,0,0,0,7.1,8.87C315.73,38.27,315.47,39.29,316.49,39.29Zm-7.23,23.19-.13-.13Zm1.9,2.66c0,.13.89.63.89.76-.12-.51,4.18,7,7.1,7,.51,0,1,.13,1.27-.38-1.27-2.15-3.93-4.94-6.09-7.35-.25-.51-1.27-.76-1.52-1.27l-.25-1.52a27.68,27.68,0,0,0-3,.13l-.13.25C310.41,63,310.78,64.51,311.16,65.14Zm9.64,43.35c.25,0,2.28,0,2.28-.76-2.15-2.53-8.36-10.14-8.49-10.14-.89,0-1.91-.13-2.16.51,0,.38.51,1.14.38,1.14l7.35,7.73.13.26c0,.38-.13.63-.13.89S320.67,108.5,320.8,108.5Zm-4.18-74.79c1.65.76,1.52,2.79,3.55,3.8.13.13.51,1.78.89,1.78.13,0,2.66.25,2.66-.51,0-.13-5.2-6.09-5.58-6.34-.13-.38-2.53-3.67-2.92-3.67s-2.15.13-2.15.38C312.81,29.53,316,32.83,316.62,33.71Zm6.09,39.17a1.06,1.06,0,0,0,1.14-1.14c0-2.41-7.35-9.64-7-9.64a14.21,14.21,0,0,0-2.53.26c0,.51,0,.64.13.76,2.66,3.17,1.52,2.79,7.48,8.75C322.19,72.5,321.81,72.88,322.7,72.88Zm3.17,35.36c.38,0,1.27,0,1.27-.51,0-.88-2.16-2.91-3.42-4.56-.64-.64-3.29-4.94-4.06-5.45-1.65,0-2.28-.25-2.15,1C319.91,101.78,325,108.24,325.87,108.24Zm-7.22-77.7c.38.76,6.59,8.88,8.36,8.88.25,0,1.4,0,1.4-.38s-2.92-3.29-3.55-4.05a34.16,34.16,0,0,1-4.69-6.09h-2.41a1,1,0,0,0-.13.38C317.76,29.4,318.52,30.42,318.64,30.54Zm4.82,37.39h.63V65.78c0-1.14-2.79-3.29-2.66-3.29h-2c-.25,0-.25.25-.25.38C319.15,63.88,322.7,67.43,323.46,67.93Zm8.24-28.77c.38,0,.88.13.88-.38,0-1.27-3.55-3.8-4.43-4.94s-3.3-5.07-3.93-5.07-1.77-.13-1.77.51c0,1,2.28,2.66,2.79,3.29s.51,1.27,1,1.77,1.52,1.27,1.64,1.52c.26.51,2.16,2.66,2.41,3.17A4.75,4.75,0,0,0,331.7,39.16Zm-.38,69.34c.38,0,.76,0,.76-.51-1.39-2.54-3.93-4.06-5.33-6.46-.64,1.65-1.14-3.68-3.17-3.68-.64,0-1,.25-1,.89a2,2,0,0,0,.38,1.14C326.12,102.79,328.15,108.5,331.32,108.5Zm4.31,0a2.27,2.27,0,0,0,1.27-.26c.63-.63-6.72-7.6-8.24-9.89a2.3,2.3,0,0,0-1.27-.25c-.76,0-.89,0-.89.25,0,0-.51.63,5.45,6.59C333,107,334.74,108.5,335.63,108.5Zm-5.58-75.67c1.4,1.52,3.68,6.33,6.09,6.33.12,0,1.14,0,1.14-.51,0-1-1.39-1.4-2-2.53,0-1.14-5.07-4.69-6.46-7.22H327a3,3,0,0,0-.13.51C327.26,29.78,328.91,31.56,330.05,32.83Zm9,74.91.13-.25c0-1.52.12-2.41-.51-3.17-1.65-1.65-4.82-6.21-6.09-6.21-.5,0-1.14.13-1.14.63S338.92,107.73,339,107.73Zm-2.15-72,.38.12c.51.13.51-1,.51-1.14,0-2.79-4.44-6-4.82-6s-1.4.51-1.14,1l1,1.64Zm1.65,65.91c.5,0,.63-.26.63-.76a2.84,2.84,0,0,0-2.28-2.54c-.64,0-.64.13-.64.51C336.9,98.48,337,101.65,338.55,101.65ZM337,30c.25,0,.38-.25.38-.63,0-.12-.5-.25-.63-.25s-.38.13-.38.25C336.39,29.78,336.52,30,337,30Z"/>
<path class="logomain-cls-1" d="M377.2,115.72c-2.41,0-5.07-.25-7.6-.38-.51-.12-6.72-4.56-6.72-8.37,0-1,.38-2,.38-3s-.38-1.78-.38-2.79.38-2.28.38-3.42c0-.13-.38-1.64-.38-1.78,0-3.93.51-4.05.51-5.45,0-.25-.12-.64-.12-.76v-3.3a2.08,2.08,0,0,1-.25-1.27,7.79,7.79,0,0,1,.25-2.92v-7.1c0-.13-.25-.63-.25-.76a10.25,10.25,0,0,1,.51-1.9c.25.13-.26-.63-.26-1.14V68.06a4.39,4.39,0,0,0,.12-1.27c0-1.27-.12-2.41-.12-3.8,0-1.9.12-2,.12-2.92,0-1.14-.51-2.28-.51-3.55a11.84,11.84,0,0,0,.38-1.14c0-1.26-.25-2.79-.25-4.05a28.24,28.24,0,0,1,.38-2.91c0-.76-.12-1.4-.12-2,0-.38.12-.63.12-1,0-.13-.12-.89-.12-1.14V38.78l.12-.51c0-.51-.38-.76-.38-1.27,0-.89.38-1.65.38-2.28,0-.89-.51-1.65-.51-2.66,0-.38.13-.64.13-1s-.13-1-.13-1.52a2.56,2.56,0,0,1,2-2.54h.64c1.39,0,2.4-.38,3.92-.38a2.82,2.82,0,0,1,1.27.38,30.76,30.76,0,0,1,4.69-.25c.76,0,1.39.25,2.28.25a2.64,2.64,0,0,0,1.64-.38c2.79,0,5.07.38,7.86.38,1.39,0,2.79-.25,4.18-.25.88,0,1.9.25,2.91.25.51,0,.76-.25,1.14-.25a8.36,8.36,0,0,0,.89.25,10.91,10.91,0,0,0,2.54-.25,8,8,0,0,1,.89.25h4.82c.89,0,7.23,5.45,7.35,9v1.77c0,1.4.63,2.29.63,3.3a19.54,19.54,0,0,1-.25,2.41l.13.64a2.67,2.67,0,0,1-2.79,3c-.13,0-1.77-.25-2.53-.25l-14.32-.13h-7.48c-.25,0-.88-.25-1-.25-1.52-.26-1.27,3.8-1.52,4.31,0,.13.12.63.12.89v8a1.61,1.61,0,0,0,1.39,1.39c2.15,0,4.95-.64,7.1-.38,1,0,7.1,6.34,7.1,7.23v6.59a8.14,8.14,0,0,1,.26,2.53c0,2.53-.26,2.91-1.65,3.17-3.81,0-7.48-.25-11.15-.25-1.4,0-3.3-.51-3.3,1.14,0,1,.26,2,.26,2.91,0,.26-.12,1.65-.12,1.9-.13.63.38,1.52.38,2.28a.93.93,0,0,1-.25.76v6.46c0,.13.38.51.51.64,3.29,0,6.46-.26,9.12-.13l.26.13c2.16.12,4.05-.26,6.34-.26,1.26,0,2.28.12,3.55.12.63,0,1.39-.38,2-.38.26-.13,1,.26,1.27.26s.89-.26,1-.26c2.79,0,6.46,5.45,6.46,9.76,0,.38-.26,1.52-.26,2.66,0,.76.38,1.39.38,2.28,0,.26-.38.76-.38,1.27,0,.89.13,1.65.13,2.28,0,2.54-5.33,2-7.6,2-1.14,0-2-.13-3.17-.13a3.84,3.84,0,0,0-1.14.13c-2.92,0-4.7-.25-6.84-.25a6.26,6.26,0,0,0-1.52.12l-.51-.25a7.74,7.74,0,0,1-1.9.38c-2.91,0-6.21-.38-9.38-.38C380,115.47,378.72,115.72,377.2,115.72Zm-2.41-33.33c.64.13.76-.51.76-1.14,0-1,.38-2.41-1.27-2.41-2.92-2.66-7.86-9.38-8.74-9.38-.64,0-.89,2.16-.89,2.66C364.66,71.61,371.88,79.47,374.79,82.38ZM377.2,102c1,2,3.55,3,4.44,5.07,0,.51.25,1.14.89,1.14h2.54l.38-.13c-1.14-1.26-2.28-2.91-3.42-4.31-1.65-2-3.3-3.55-4.69-6.21-1.4-1-1.65-.63-1.78-2.66l-.12-.13a5.23,5.23,0,0,0-.64.13c-1,0-5.33-4.18-5.83-6l-3.42-3.42-.38-.13-.13.13c0,.12.13.38.13.5s-.26,1.14-.26,1.27c-.25-.12.26.51.26.89,3.3,2.79,9.63,10.27,9.76,11C375.17,99.5,376.82,101.52,377.2,102ZM366,51.71c2.28,1.27,7.1,9.13,8.87,9.13.51,0,.64-1.14.64-1.39s-.12-.76-.12-1.27l.12-.63c0-.26,0-.64-.12-.76-.38.12-.64.51-1,.51-.64,0-3.93-3.81-4.56-4.69-1.65-1.14-2-3.17-4.18-4.18-.76-.13-.76.88-.76,1.39C365,52.09,365,51.2,366,51.71Zm8.87,25.73c.64-.26.64-1.27.64-1.77,0-.76-.12-.89-.12-1.52,0-1.27,2.53-.64,2.53-1.65a50.36,50.36,0,0,1-5.58-6.72c.13.26-5.58-6.84-7.1-6.84-.25,0-.25.26-.25.63,0,1.78,4.31,6.34,6.84,9.38.89,1,3.29,2.79,3.29,4.31,0,.25-.25.25-.38.25-2.15,0-7-7.48-9.25-9.51-.51,0-.64.76-.64,1,0,1.9,2,2.79,2.79,4.44C369.85,72.12,373.14,76.3,374.92,77.44Zm-4.44,30.8.26-.13c0-2.41-4.31-5.33-5.19-6.59l-.38-.13a6.91,6.91,0,0,0-.26,2.28C364.9,105.2,369.22,108.24,370.48,108.24Zm-.63-63.5c-.13-.25,3.93,6.09,5.71,6.09,0-.76-.12-1.52-.12-2.16,0,0,.12-1.27.12-1.65l-.12-.13c-1.14-.38-9.89-9.76-10.15-9.51H365C365,39,366.93,42.46,369.85,44.74Zm0,16.1C373.27,65,379,73,380.62,73a5.94,5.94,0,0,0,2-.25c-.38-1.52-2-2.16-2.66-3.29,0-.64-4.05-4.44-4.94-6.59-2.53-.76-5.45-5.07-6.84-6.72.25-.5-2.54-2.79-2.66-2.91-.51,0-.51,1.27-.51,1.52C365,56.14,368.84,59.7,369.85,60.84Zm-4.57,16.48c1.4,1.52,8.5,10.52,9.64,10.52.13.26.51-.38.51-1,.12,0-.26-1.52-.26-2.28-3.68-2.16-7.73-10-9.89-10-.12,0-.25,0-.25.12A8,8,0,0,0,365.28,77.31ZM367.82,48c.64.76,6.72,8.36,7.61,8.36.12,0,.12-.12.12-.38,0-1.27-.12-2.92-.12-4.56-.51,0-.89.51-1.4.51-1.14,0-7.23-8.87-8.37-8.87-.38,0-.51.51-.51.76C365.16,45.37,366.93,46.89,367.82,48Zm8.49,57.8c1.9,1.65-.38,2.41,3.17,2.41.51,0,1.14-.13,1.14-.51a9.94,9.94,0,0,0-2.66-2.28c-.13-.12-.76-1.77-.89-1.9,0,.26-9.63-12.42-11.91-12.42C365.16,95.19,373.14,101.65,376.31,105.83Zm-9.38-5.07c2.29,1.52,4.05,5.58,6.47,7.35l2.15-.12c-2-2.79-3-3.43-4.44-5.45,0,0-4.31-5.83-5.32-5.83-.63,0-.63.63-.63,1C365.16,99.37,366,99.5,366.93,100.76Zm7.6-56,.38.12c.51,0,.51-1.9.51-2.28,0-.63-6.47-7.86-9.38-9.76-.76-.13-.76.63-.76,1.26s4.69,3.68,4.95,6.34Zm.63,48.93.26-.25a5.08,5.08,0,0,0-.26-.89c-.12-.76.51-2.16.26-3l-.26-.13H374c-1.39-.76-6.21-8.75-8.49-8.75v2.28c2,2.41,6.21,8.36,9.38,10.52ZM367.44,30.8a50.15,50.15,0,0,0,7.73,9.38A36.62,36.62,0,0,1,381,39v-.25c-1-.63-1.14-1.78-2-2.66-1.65-1.78-5.58-5.07-5.58-7.35a17.86,17.86,0,0,0-2.66.13l-.26.38s.26.63.51.76c1.14,1.65,6.59,6.85,6.59,8.24,0,.25-.51.38-.76.38a1,1,0,0,1-.51-.13c-3-2.66-7.6-9.63-8.87-9.63a.65.65,0,0,0-.76.51C366.3,29.66,367.44,30.16,367.44,30.8Zm15.84,8.49,2.92-.13c-2.28-2.16-3.93-4.82-6.09-7.1-3.67-3.8-3.55-3.3-5.07-3.3a44.3,44.3,0,0,0,7.1,8.87C382.53,38.27,382.27,39.29,383.28,39.29Zm-7.22,23.19-.13-.13Zm1.9,2.66c0,.13.89.63.89.76-.13-.51,4.18,7,7.1,7,.5,0,1,.13,1.27-.38-1.27-2.15-3.93-4.94-6.09-7.35-.25-.51-1.26-.76-1.52-1.27l-.26-1.52a27.67,27.67,0,0,0-3,.13l-.12.25C377.2,63,377.58,64.51,378,65.14Zm9.63,43.35c.25,0,2.28,0,2.28-.76-2.15-2.53-8.37-10.14-8.49-10.14-.89,0-1.91-.13-2.16.51,0,.38.51,1.14.38,1.14L387,107l.12.26c0,.38-.12.63-.12.89S387.47,108.5,387.6,108.5Zm-4.18-74.79c1.65.76,1.52,2.79,3.55,3.8.12.13.51,1.78.89,1.78.12,0,2.66.25,2.66-.51,0-.13-5.2-6.09-5.57-6.34-.13-.38-2.54-3.67-2.91-3.67s-2.15.13-2.15.38C379.61,29.53,382.78,32.83,383.41,33.71Zm6.08,39.17a1.06,1.06,0,0,0,1.14-1.14c0-2.41-7.36-9.64-7-9.64a14.31,14.31,0,0,0-2.54.26c0,.51,0,.64.13.76,2.66,3.17,1.53,2.79,7.48,8.75C389,72.5,388.61,72.88,389.5,72.88Zm3.17,35.36c.39,0,1.27,0,1.27-.51,0-.88-2.16-2.91-3.43-4.56-.63-.64-3.29-4.94-4.05-5.45-1.65,0-2.28-.25-2.15,1C386.71,101.78,391.78,108.24,392.66,108.24Zm-7.22-77.7c.38.76,6.59,8.88,8.37,8.88.25,0,1.4,0,1.4-.38s-2.92-3.29-3.55-4.05A34,34,0,0,1,387,28.89h-2.41a1,1,0,0,0-.12.38C384.55,29.4,385.31,30.42,385.44,30.54Zm4.82,37.39h.64V65.78c0-1.14-2.79-3.29-2.66-3.29h-2c-.25,0-.25.25-.25.38C385.95,63.88,389.5,67.43,390.26,67.93Zm8.24-28.77c.38,0,.89.13.89-.38,0-1.27-3.55-3.8-4.44-4.94s-3.3-5.07-3.93-5.07-1.77-.13-1.77.51c0,1,2.28,2.66,2.79,3.29s.5,1.27,1,1.77,1.52,1.27,1.64,1.52c.26.51,2.16,2.66,2.41,3.17A4.74,4.74,0,0,0,398.5,39.16Zm-.38,69.34c.38,0,.76,0,.76-.51-1.39-2.54-3.93-4.06-5.32-6.46-.64,1.65-1.14-3.68-3.17-3.68-.64,0-1,.25-1,.89a2.05,2.05,0,0,0,.38,1.14C392.92,102.79,394.95,108.5,398.12,108.5Zm4.31,0a2.26,2.26,0,0,0,1.26-.26c.64-.63-6.71-7.6-8.24-9.89a2.28,2.28,0,0,0-1.27-.25c-.76,0-.89,0-.89.25,0,0-.5.63,5.46,6.59C399.76,107,401.53,108.5,402.43,108.5Zm-5.58-75.67c1.4,1.52,3.67,6.33,6.08,6.33.13,0,1.14,0,1.14-.51,0-1-1.39-1.4-2-2.53,0-1.14-5.07-4.69-6.46-7.22h-1.78a2.93,2.93,0,0,0-.13.51C394.06,29.78,395.71,31.56,396.85,32.83Zm9,74.91.12-.25c0-1.52.13-2.41-.5-3.17-1.65-1.65-4.82-6.21-6.08-6.21-.51,0-1.14.13-1.14.63S405.72,107.73,405.85,107.73Zm-2.16-72,.38.12c.51.13.51-1,.51-1.14,0-2.79-4.43-6-4.82-6s-1.4.51-1.14,1l1,1.64Zm1.65,65.91c.51,0,.63-.26.63-.76a2.84,2.84,0,0,0-2.28-2.54c-.63,0-.63.13-.63.51C403.69,98.48,403.82,101.65,405.34,101.65ZM403.82,30c.25,0,.38-.25.38-.63,0-.12-.51-.25-.63-.25s-.38.13-.38.25C403.19,29.78,403.31,30,403.82,30Z"/>
<path class="logomain-cls-2" d="M89.69,25.93a3.44,3.44,0,0,1,2.54-1.3v-.45H80.95v.45A4.28,4.28,0,0,1,84.07,26c.85,1.07.92,2.77.92,4.88s-.19,4.34-.61,5.1a6.54,6.54,0,0,1-6,3.13c-6.86,0-10.83-6.35-10.83-15.64,0-8.45,4.19-16,11-16a9.59,9.59,0,0,1,7.47,3.4,16.59,16.59,0,0,1,3.08,6.75h.46V7.87h-.34A12.66,12.66,0,0,1,88,9.7a16.34,16.34,0,0,0-9.67-3c-5.12,0-8.62,1.88-11.08,4.65a18.54,18.54,0,0,0-4.39,12c0,10.2,5.78,16.45,15.52,16.45,4.94,0,10.25-3.14,11-3.8V29.51A10.28,10.28,0,0,1,89.69,25.93Z"/>
<path class="logomain-cls-2" d="M169.81,8.78c-3.27-1.66-6.82-1.52-10.05-1.52-5.73,0-9.9.05-12,.05v.45a4.19,4.19,0,0,1,3.2,1.56c.58.81.58,3.13.58,5.23v8.71c0,3.27,0,7.6-.07,9.26,0,1.92-.15,4.24-.62,4.88a5,5,0,0,1-3,1.61c-2.32-.44-3.9-1.7-5.74-4.74-1.23-2-2.93-4.92-4.27-7.15a8.62,8.62,0,0,0-2.47-2.86v-.13c3.43-1.26,6.35-3.85,6.35-8.23a8,8,0,0,0-3.77-7.24c-2.2-1.34-4.82-1.38-8.24-1.38-2.77,0-9.74.05-10.55.05v.45a4.28,4.28,0,0,1,3.05,1.38c.61.76.65,3.31.65,5.41v8.71c0,3.27,0,7.6-.08,9.26,0,1.92-.07,4.16-.62,4.92A4.6,4.6,0,0,1,119.23,39v0a4.48,4.48,0,0,1-3.7-2.77c-.61-1.52-1-2.54-1.62-4.38-2.42-7.56-4.89-15.2-8.09-25.12h-.3a8.5,8.5,0,0,1-3.39,3.71l.38,1c-2.42,6.71-5.73,15.78-7.93,21.42a21.8,21.8,0,0,1-2.38,4.92A4.73,4.73,0,0,1,89.58,39v.49h8.28v-.44c-1.35-.18-3.19-.58-3.19-2.15a13.4,13.4,0,0,1,.8-3.4c.69-2.1,1.42-4.12,2.19-6.35H107.9c1.54,4.69,2.77,8.81,2.77,9.83,0,1.7-2.34,2-2.69,2.06v.44h23.26v-.44a4.23,4.23,0,0,1-3.65-1.88c-.51-.89-.47-2.23-.51-4.15s0-4.83,0-8.68a8.76,8.76,0,0,1,2,.23c1.31.31,2.58,1.69,3.58,3a72.57,72.57,0,0,1,5.28,8.49,15.07,15.07,0,0,0,2.24,3.4h21.53c7.12,0,16-3,16-16.55C177.67,15.26,174.09,11,169.81,8.78ZM98,26.24c2.42-7,4.35-12.21,4.92-13.82.93,2.68,2.93,8.49,4.67,13.81ZM132.62,23a15.73,15.73,0,0,1-5.58.81c0-.94,0-8.09.07-12.25a20.17,20.17,0,0,1,.23-3.44,15.15,15.15,0,0,1,2.08-.13,8.39,8.39,0,0,1,4.08.94,7.33,7.33,0,0,1,3.78,6.75C137.28,18.85,135.93,21.75,132.62,23Zm32,15.32a12.48,12.48,0,0,1-3.89.54c-1.39,0-3.13-.18-4.16-1.38-.66-.76-.81-3.18-.85-4.88,0-2,0-5.23,0-9,0-7.06,0-12.3.27-15.2A20.36,20.36,0,0,1,159.72,8a17.29,17.29,0,0,1,4,.4c5.32,1.12,9.25,7.78,9.25,14.66C172.94,30.82,170.16,36.45,164.66,38.29Z"/>
<path class="logomain-cls-2" d="M195,38.54a26.18,26.18,0,0,1-3.81.27c-2,0-4-.36-4.5-1.16s-.54-2.68-.58-4.6c0-1.16,0-3.71,0-5.32s0-3.53.07-4.34c1.62,0,2,0,3.5.09a5.07,5.07,0,0,1,3.5,1.52,13.23,13.23,0,0,1,2.27,5.23h.47V16.15h-.47c-.61,3.35-1.34,5.32-4.46,6.17a26.53,26.53,0,0,1-4.85.36c0-.31,0-1.88,0-6.39,0-3.93.11-7.2.19-8.14a16,16,0,0,1,2.93-.22c3.35,0,5.85.4,6.74.89a20.61,20.61,0,0,1,5.85,6.08l.39-.22L199.5,7.29H178.24v.45c1.39.22,2.15.36,2.93,1.29.61.76.65,3.4.65,5.5v8.71c0,3.27,0,7.6-.07,9.26,0,1.92-.19,4.11-.7,4.83a4.9,4.9,0,0,1-3.16,1.7v.44h23.57l1.92-8.54-.42-.14C200.43,35.9,198.2,38,195,38.54Z"/>
<path class="logomain-cls-2" d="M279.19,23.95v.45a4.26,4.26,0,0,1,3.12,1.39c.84,1.07.92,2.77.93,4.87a14.9,14.9,0,0,1-.62,5.1,6.53,6.53,0,0,1-6,3.13c-6.1,0-9.91-5-10.67-12.7.29-.45.58-.89.85-1.34,3-5,4.24-10.38,3.58-14.81a8.88,8.88,0,0,1,6.43-2.79,9.59,9.59,0,0,1,7.47,3.4,16.67,16.67,0,0,1,3.08,6.75h.46V7.63h-.35a12.11,12.11,0,0,1-1.27,1.83,16.32,16.32,0,0,0-9.67-3,15.72,15.72,0,0,0-6.67,1.36C268.39,3.2,264.41,0,257.65,0,248.42,0,239,6.86,235.38,14.8a15.38,15.38,0,0,0-.64,11.88,18.69,18.69,0,0,0-4.29,5.3c0-1.81,0-3.57,0-5,0-4,.12-7.6.19-10.15.07-2.73.15-5.46.5-6.35a4,4,0,0,1,3.62-2.77V7.28h-9.55v.45c2.47.4,3.7,1.47,4.2,3.13a25.83,25.83,0,0,1,.39,6v15.2L211.51,7.29H203.7v.45c1.62.27,3.77.89,4.08,4.38.07,3.44,0,4.25,0,7.64,0,4-.08,7.6-.15,10.15-.08,3.39-.23,5.9-.92,7.15a4.24,4.24,0,0,1-3.31,2v.44h9.47V39c-2.08-.31-3.23-.94-3.82-2.28-.5-1.16-.58-3.84-.58-6.83V11c7,9.07,12.1,16.45,20.88,28.11.23.31.5.53.69.53a.33.33,0,0,0,.24-.11C231.85,42.09,235,43,238,43a27.46,27.46,0,0,0,11.16-2.38A5.77,5.77,0,0,0,255,44c3-.14,5.17-2,6.64-3.6.35-.34.94-1,.58-1.22s-.47.14-.64.34c-2.7,2.44-4.94,2.65-6.29,2.44a4.52,4.52,0,0,1-3.12-2.78,39.25,39.25,0,0,0,10.27-8.33c2.25,5.56,7.17,8.77,14.15,8.77,4.92,0,10.23-3.14,11-3.81V29.26a10.34,10.34,0,0,1,.34-3.58,3.42,3.42,0,0,1,2.54-1.3v-.45Zm-13.34,0c0-.23,0-.46,0-.69,0-4.72,1.31-9.17,3.66-12.17C269.76,14.79,268.55,19.26,265.85,23.93ZM247.9,28.17c-.58,4.21-.41,8.42.77,11.47a25.37,25.37,0,0,1-9.52,2c-4.17,0-7-2.37-6.41-7a12.18,12.18,0,0,1,3.05-6,6.45,6.45,0,0,0,5,2.71,7.08,7.08,0,0,0,2.06-.41c.23-.13.71-.27.59-.54s-.23-.14-.41-.07a6.16,6.16,0,0,1-1.88.2,5.33,5.33,0,0,1-4.47-2.85,22.63,22.63,0,0,1,3.82-3.05,95.28,95.28,0,0,1,9.64-5.1A42.33,42.33,0,0,0,247.9,28.17Zm3.77,10c-1-2.71-1.3-6.78-.83-11.06a39.24,39.24,0,0,1,1.82-8.62c3.11-1.7,7.22-4.21,9.75-7.13,1.87-2,3.35-5.56,1.87-6.78s-4.52,1.09-5.93,2.38a40.68,40.68,0,0,0-7.87,11.27c-4.18,1.9-7.11,3-10.7,5a26.54,26.54,0,0,0-3.94,2.58,15.14,15.14,0,0,1,.82-10c3.87-8.89,11.81-14.39,20.68-14.39,6.36,0,10.23,2.75,11.61,7a13.5,13.5,0,0,0-3.49,2.82,18.53,18.53,0,0,0-4.38,12,21.52,21.52,0,0,0,.89,6.3A36,36,0,0,1,251.67,38.14Zm1.46-21a35.36,35.36,0,0,1,6.11-9.64c.94-1.15,3.34-3.06,4.46-2.11s-.58,3.87-2.11,5.5A39,39,0,0,1,253.13,17.1Z"/>
<path class="logomain-cls-2" d="M350.3,7.07h-9.55v.45c2.47.4,3.7,1.48,4.2,3.13a26.19,26.19,0,0,1,.38,6v15.2L327.08,7.08H310.3v.45c2.46.4,3.61,1.48,4.12,3.13a29.86,29.86,0,0,1,.42,6.39c0,2.55,0,4.38,0,7.6-.07,6-.5,13.63-9.24,13.64-5.12,0-8.08-4.11-8.2-10.45,0-2.86,0-4.92,0-9,0-3.22,0-4.61.08-7.69.08-2.77,2-3.35,3.5-3.58V7.09H289.46v.45a4.26,4.26,0,0,1,3.12,1.56c.57.81.57,3.13.57,5.23v5.95c0,3.26,0,6.08,0,7.73,0,2.24.12,11.8,11.17,11.8,11.24,0,11.16-9.75,11.24-13.1.07-4,.19-7.11.22-9.66a33,33,0,0,1,.54-6.75,3.87,3.87,0,0,1,3.27-2.72c1.57.3,3.48,1.06,3.78,4.32.07,3.44,0,4.25,0,7.65,0,4-.07,7.6-.15,10.15-.07,3.4-.23,5.91-.92,7.16a4.23,4.23,0,0,1-3.31,2v.45h9.47v-.45c-2.08-.31-3.23-.94-3.81-2.28-.5-1.16-.58-3.84-.58-6.84V10.83c7,9.07,12.1,16.45,20.88,28.12.23.31.49.53.69.53s.39-.27.38-.49c0-3.49,0-8.81,0-12.21,0-4,.11-7.6.19-10.15.07-2.73.15-5.45.5-6.35a4,4,0,0,1,3.62-2.77Z"/>
</g>
</g>
</svg>