<svg xmlns="http://www.w3.org/2000/svg" viewBox="0 0 33.96 28.01">
	<defs>
	  <style>.twit-cls-1{fill:#ff6000;fill-rule:evenodd;}</style>
  </defs>
  <title>twit</title>
	<path class="twit-cls-1" d="M9.29,28c0-.14-.17-.11-.27-.14a18.5,18.5,0,0,1-5.28-1A10.26,10.26,0,0,1,0,24.82,13.52,13.52,0,0,0,10.12,21.9c-3.48-.21-5.84-2.28-6.51-4.85.87.19,2.34.23,2.91-.28C3.22,16,1.31,13.74,1,10a16.05,16.05,0,0,0,2.91.83C4,10.18,3.12,10,2.77,9.57,1.34,8,.16,3.88,2.08,1.38A19.77,19.77,0,0,0,16.63,8.73c-.74-5.14,2-7.94,6.1-8.73h1.53c.44.19,1.68.36,2.35.7.85.41,1.54,1.44,2.36,1.52,1.46.15,2.5-1.23,4-1.39a8.11,8.11,0,0,1-1.94,2.91c-.21.2-1.18.4-.69.69a25.24,25.24,0,0,0,3.61-1c-.52.55-.82,1.2-1.38,1.8S30.73,6.45,30.5,7.21a11.25,11.25,0,0,0,0,2.35,20.21,20.21,0,0,1-5.82,12.61A20,20,0,0,1,11.78,28Z"/>
</svg>